<?xml version="1.0" encoding="utf-8" standalone="no"?>
<!DOCTYPE svg PUBLIC "-//W3C//DTD SVG 1.1//EN"
  "http://www.w3.org/Graphics/SVG/1.1/DTD/svg11.dtd">
<svg xmlns:xlink="http://www.w3.org/1999/xlink" width="582.558281pt" height="439.151172pt" viewBox="0 0 582.558281 439.151172" xmlns="http://www.w3.org/2000/svg" version="1.1">
 <metadata>
  <rdf:RDF xmlns:dc="http://purl.org/dc/elements/1.1/" xmlns:cc="http://creativecommons.org/ns#" xmlns:rdf="http://www.w3.org/1999/02/22-rdf-syntax-ns#">
   <cc:Work>
    <dc:type rdf:resource="http://purl.org/dc/dcmitype/StillImage"/>
    <dc:date>2026-05-27T14:14:41.728558</dc:date>
    <dc:format>image/svg+xml</dc:format>
    <dc:creator>
     <cc:Agent>
      <dc:title>Matplotlib v3.10.9, https://matplotlib.org/</dc:title>
     </cc:Agent>
    </dc:creator>
   </cc:Work>
  </rdf:RDF>
 </metadata>
 <defs>
  <style type="text/css">*{stroke-linejoin: round; stroke-linecap: butt}</style>
 </defs>
 <g id="figure_1">
  <g id="patch_1">
   <path d="M 0 439.151172 
L 582.558281 439.151172 
L 582.558281 0 
L 0 0 
z
" style="fill: #f5efdf"/>
  </g>
  <g id="axes_1">
   <g id="patch_2">
    <path d="M 51.008281 395.798359 
L 568.158281 395.798359 
L 568.158281 34.378359 
L 51.008281 34.378359 
z
" style="fill: #f5efdf"/>
   </g>
   <g id="matplotlib.axis_1">
    <g id="xtick_1">
     <g id="line2d_1">
      <defs>
       <path id="m87cd8bf177" d="M 0 0 
L 0 3 
" style="stroke: #8a8275; stroke-width: 0.8"/>
      </defs>
      <g>
       <use xlink:href="#m87cd8bf177" x="64.617492" y="395.798359" style="fill: #8a8275; stroke: #8a8275; stroke-width: 0.8"/>
      </g>
     </g>
     <g id="text_1">
      <!-- 27.5 -->
      <g style="fill: #3d3a33" transform="translate(55.711242 408.377109) scale(0.08 -0.08)">
       <defs>
        <path id="DejaVuSerif-32" d="M 819 3553 
L 469 3553 
L 469 4384 
Q 803 4563 1142 4656 
Q 1481 4750 1806 4750 
Q 2534 4750 2956 4397 
Q 3378 4044 3378 3438 
Q 3378 2753 2422 1800 
Q 2347 1728 2309 1691 
L 1131 513 
L 3078 513 
L 3078 1088 
L 3444 1088 
L 3444 0 
L 434 0 
L 434 341 
L 1850 1753 
Q 2319 2222 2519 2614 
Q 2719 3006 2719 3438 
Q 2719 3909 2473 4175 
Q 2228 4441 1797 4441 
Q 1350 4441 1106 4219 
Q 863 3997 819 3553 
z
" transform="scale(0.015625)"/>
        <path id="DejaVuSerif-37" d="M 3609 4347 
L 1784 0 
L 1319 0 
L 3059 4153 
L 903 4153 
L 903 3578 
L 538 3578 
L 538 4666 
L 3609 4666 
L 3609 4347 
z
" transform="scale(0.015625)"/>
        <path id="DejaVuSerif-2e" d="M 603 325 
Q 603 500 722 622 
Q 841 744 1019 744 
Q 1191 744 1312 622 
Q 1434 500 1434 325 
Q 1434 153 1312 31 
Q 1191 -91 1019 -91 
Q 841 -91 722 29 
Q 603 150 603 325 
z
" transform="scale(0.015625)"/>
        <path id="DejaVuSerif-35" d="M 3219 4666 
L 3219 4153 
L 1081 4153 
L 1081 2816 
Q 1244 2928 1461 2984 
Q 1678 3041 1947 3041 
Q 2703 3041 3140 2622 
Q 3578 2203 3578 1478 
Q 3578 738 3136 323 
Q 2694 -91 1894 -91 
Q 1572 -91 1234 -12 
Q 897 66 544 225 
L 544 1131 
L 897 1131 
Q 925 688 1179 453 
Q 1434 219 1894 219 
Q 2388 219 2653 544 
Q 2919 869 2919 1478 
Q 2919 2084 2655 2407 
Q 2391 2731 1894 2731 
Q 1613 2731 1398 2631 
Q 1184 2531 1019 2322 
L 750 2322 
L 750 4666 
L 3219 4666 
z
" transform="scale(0.015625)"/>
       </defs>
       <use xlink:href="#DejaVuSerif-32"/>
       <use xlink:href="#DejaVuSerif-37" transform="translate(63.623047 0)"/>
       <use xlink:href="#DejaVuSerif-2e" transform="translate(127.246094 0)"/>
       <use xlink:href="#DejaVuSerif-35" transform="translate(159.033203 0)"/>
      </g>
     </g>
    </g>
    <g id="xtick_2">
     <g id="line2d_2">
      <g>
       <use xlink:href="#m87cd8bf177" x="132.663544" y="395.798359" style="fill: #8a8275; stroke: #8a8275; stroke-width: 0.8"/>
      </g>
     </g>
     <g id="text_2">
      <!-- 30.0 -->
      <g style="fill: #3d3a33" transform="translate(123.757294 408.377109) scale(0.08 -0.08)">
       <defs>
        <path id="DejaVuSerif-33" d="M 622 4469 
Q 988 4606 1323 4678 
Q 1659 4750 1953 4750 
Q 2638 4750 3022 4454 
Q 3406 4159 3406 3634 
Q 3406 3213 3140 2930 
Q 2875 2647 2388 2547 
Q 2963 2466 3280 2130 
Q 3597 1794 3597 1259 
Q 3597 606 3158 257 
Q 2719 -91 1894 -91 
Q 1528 -91 1179 -12 
Q 831 66 488 225 
L 488 1131 
L 838 1131 
Q 869 681 1141 450 
Q 1413 219 1906 219 
Q 2384 219 2661 495 
Q 2938 772 2938 1253 
Q 2938 1803 2653 2086 
Q 2369 2369 1819 2369 
L 1522 2369 
L 1522 2688 
L 1678 2688 
Q 2225 2688 2498 2914 
Q 2772 3141 2772 3597 
Q 2772 4006 2547 4223 
Q 2322 4441 1900 4441 
Q 1478 4441 1245 4241 
Q 1013 4041 972 3647 
L 622 3647 
L 622 4469 
z
" transform="scale(0.015625)"/>
        <path id="DejaVuSerif-30" d="M 2034 219 
Q 2513 219 2750 744 
Q 2988 1269 2988 2328 
Q 2988 3391 2750 3916 
Q 2513 4441 2034 4441 
Q 1556 4441 1318 3916 
Q 1081 3391 1081 2328 
Q 1081 1269 1318 744 
Q 1556 219 2034 219 
z
M 2034 -91 
Q 1275 -91 848 546 
Q 422 1184 422 2328 
Q 422 3475 848 4112 
Q 1275 4750 2034 4750 
Q 2797 4750 3222 4112 
Q 3647 3475 3647 2328 
Q 3647 1184 3222 546 
Q 2797 -91 2034 -91 
z
" transform="scale(0.015625)"/>
       </defs>
       <use xlink:href="#DejaVuSerif-33"/>
       <use xlink:href="#DejaVuSerif-30" transform="translate(63.623047 0)"/>
       <use xlink:href="#DejaVuSerif-2e" transform="translate(127.246094 0)"/>
       <use xlink:href="#DejaVuSerif-30" transform="translate(159.033203 0)"/>
      </g>
     </g>
    </g>
    <g id="xtick_3">
     <g id="line2d_3">
      <g>
       <use xlink:href="#m87cd8bf177" x="200.709597" y="395.798359" style="fill: #8a8275; stroke: #8a8275; stroke-width: 0.8"/>
      </g>
     </g>
     <g id="text_3">
      <!-- 32.5 -->
      <g style="fill: #3d3a33" transform="translate(191.803347 408.377109) scale(0.08 -0.08)">
       <use xlink:href="#DejaVuSerif-33"/>
       <use xlink:href="#DejaVuSerif-32" transform="translate(63.623047 0)"/>
       <use xlink:href="#DejaVuSerif-2e" transform="translate(127.246094 0)"/>
       <use xlink:href="#DejaVuSerif-35" transform="translate(159.033203 0)"/>
      </g>
     </g>
    </g>
    <g id="xtick_4">
     <g id="line2d_4">
      <g>
       <use xlink:href="#m87cd8bf177" x="268.75565" y="395.798359" style="fill: #8a8275; stroke: #8a8275; stroke-width: 0.8"/>
      </g>
     </g>
     <g id="text_4">
      <!-- 35.0 -->
      <g style="fill: #3d3a33" transform="translate(259.8494 408.377109) scale(0.08 -0.08)">
       <use xlink:href="#DejaVuSerif-33"/>
       <use xlink:href="#DejaVuSerif-35" transform="translate(63.623047 0)"/>
       <use xlink:href="#DejaVuSerif-2e" transform="translate(127.246094 0)"/>
       <use xlink:href="#DejaVuSerif-30" transform="translate(159.033203 0)"/>
      </g>
     </g>
    </g>
    <g id="xtick_5">
     <g id="line2d_5">
      <g>
       <use xlink:href="#m87cd8bf177" x="336.801702" y="395.798359" style="fill: #8a8275; stroke: #8a8275; stroke-width: 0.8"/>
      </g>
     </g>
     <g id="text_5">
      <!-- 37.5 -->
      <g style="fill: #3d3a33" transform="translate(327.895452 408.377109) scale(0.08 -0.08)">
       <use xlink:href="#DejaVuSerif-33"/>
       <use xlink:href="#DejaVuSerif-37" transform="translate(63.623047 0)"/>
       <use xlink:href="#DejaVuSerif-2e" transform="translate(127.246094 0)"/>
       <use xlink:href="#DejaVuSerif-35" transform="translate(159.033203 0)"/>
      </g>
     </g>
    </g>
    <g id="xtick_6">
     <g id="line2d_6">
      <g>
       <use xlink:href="#m87cd8bf177" x="404.847755" y="395.798359" style="fill: #8a8275; stroke: #8a8275; stroke-width: 0.8"/>
      </g>
     </g>
     <g id="text_6">
      <!-- 40.0 -->
      <g style="fill: #3d3a33" transform="translate(395.941505 408.377109) scale(0.08 -0.08)">
       <defs>
        <path id="DejaVuSerif-34" d="M 2234 1581 
L 2234 4063 
L 641 1581 
L 2234 1581 
z
M 3609 0 
L 1484 0 
L 1484 331 
L 2234 331 
L 2234 1247 
L 197 1247 
L 197 1588 
L 2241 4750 
L 2859 4750 
L 2859 1581 
L 3750 1581 
L 3750 1247 
L 2859 1247 
L 2859 331 
L 3609 331 
L 3609 0 
z
" transform="scale(0.015625)"/>
       </defs>
       <use xlink:href="#DejaVuSerif-34"/>
       <use xlink:href="#DejaVuSerif-30" transform="translate(63.623047 0)"/>
       <use xlink:href="#DejaVuSerif-2e" transform="translate(127.246094 0)"/>
       <use xlink:href="#DejaVuSerif-30" transform="translate(159.033203 0)"/>
      </g>
     </g>
    </g>
    <g id="xtick_7">
     <g id="line2d_7">
      <g>
       <use xlink:href="#m87cd8bf177" x="472.893808" y="395.798359" style="fill: #8a8275; stroke: #8a8275; stroke-width: 0.8"/>
      </g>
     </g>
     <g id="text_7">
      <!-- 42.5 -->
      <g style="fill: #3d3a33" transform="translate(463.987558 408.377109) scale(0.08 -0.08)">
       <use xlink:href="#DejaVuSerif-34"/>
       <use xlink:href="#DejaVuSerif-32" transform="translate(63.623047 0)"/>
       <use xlink:href="#DejaVuSerif-2e" transform="translate(127.246094 0)"/>
       <use xlink:href="#DejaVuSerif-35" transform="translate(159.033203 0)"/>
      </g>
     </g>
    </g>
    <g id="xtick_8">
     <g id="line2d_8">
      <g>
       <use xlink:href="#m87cd8bf177" x="540.93986" y="395.798359" style="fill: #8a8275; stroke: #8a8275; stroke-width: 0.8"/>
      </g>
     </g>
     <g id="text_8">
      <!-- 45.0 -->
      <g style="fill: #3d3a33" transform="translate(532.03361 408.377109) scale(0.08 -0.08)">
       <use xlink:href="#DejaVuSerif-34"/>
       <use xlink:href="#DejaVuSerif-35" transform="translate(63.623047 0)"/>
       <use xlink:href="#DejaVuSerif-2e" transform="translate(127.246094 0)"/>
       <use xlink:href="#DejaVuSerif-30" transform="translate(159.033203 0)"/>
      </g>
     </g>
    </g>
    <g id="text_9">
     <!-- Air temperature (°C) -->
     <g style="fill: #3d3a33" transform="translate(262.040078 422.879453) scale(0.09 -0.09)">
      <defs>
       <path id="DejaVuSerif-41" d="M 1281 1691 
L 2994 1691 
L 2138 3909 
L 1281 1691 
z
M -38 0 
L -38 331 
L 372 331 
L 2034 4666 
L 2559 4666 
L 4225 331 
L 4684 331 
L 4684 0 
L 2988 0 
L 2988 331 
L 3506 331 
L 3116 1356 
L 1153 1356 
L 763 331 
L 1275 331 
L 1275 0 
L -38 0 
z
" transform="scale(0.015625)"/>
       <path id="DejaVuSerif-69" d="M 622 4353 
Q 622 4497 726 4603 
Q 831 4709 978 4709 
Q 1122 4709 1226 4603 
Q 1331 4497 1331 4353 
Q 1331 4206 1228 4103 
Q 1125 4000 978 4000 
Q 831 4000 726 4103 
Q 622 4206 622 4353 
z
M 1356 331 
L 1900 331 
L 1900 0 
L 231 0 
L 231 331 
L 781 331 
L 781 2988 
L 231 2988 
L 231 3322 
L 1356 3322 
L 1356 331 
z
" transform="scale(0.015625)"/>
       <path id="DejaVuSerif-72" d="M 3059 3328 
L 3059 2497 
L 2728 2497 
Q 2713 2744 2591 2866 
Q 2469 2988 2234 2988 
Q 1809 2988 1582 2694 
Q 1356 2400 1356 1850 
L 1356 331 
L 2022 331 
L 2022 0 
L 263 0 
L 263 331 
L 781 331 
L 781 2994 
L 231 2994 
L 231 3322 
L 1356 3322 
L 1356 2731 
Q 1525 3078 1790 3245 
Q 2056 3413 2438 3413 
Q 2578 3413 2733 3391 
Q 2888 3369 3059 3328 
z
" transform="scale(0.015625)"/>
       <path id="DejaVuSerif-20" transform="scale(0.015625)"/>
       <path id="DejaVuSerif-74" d="M 691 2988 
L 184 2988 
L 184 3322 
L 691 3322 
L 691 4353 
L 1269 4353 
L 1269 3322 
L 2350 3322 
L 2350 2988 
L 1269 2988 
L 1269 878 
Q 1269 456 1350 337 
Q 1431 219 1650 219 
Q 1875 219 1978 351 
Q 2081 484 2088 781 
L 2522 781 
Q 2497 328 2275 118 
Q 2053 -91 1600 -91 
Q 1103 -91 897 129 
Q 691 350 691 878 
L 691 2988 
z
" transform="scale(0.015625)"/>
       <path id="DejaVuSerif-65" d="M 3469 1600 
L 991 1600 
L 991 1575 
Q 991 903 1244 561 
Q 1497 219 1991 219 
Q 2369 219 2611 417 
Q 2853 616 2950 1006 
L 3413 1006 
Q 3275 459 2904 184 
Q 2534 -91 1931 -91 
Q 1203 -91 761 389 
Q 319 869 319 1663 
Q 319 2450 753 2931 
Q 1188 3413 1894 3413 
Q 2647 3413 3050 2948 
Q 3453 2484 3469 1600 
z
M 2791 1931 
Q 2772 2513 2545 2808 
Q 2319 3103 1894 3103 
Q 1497 3103 1269 2806 
Q 1041 2509 991 1931 
L 2791 1931 
z
" transform="scale(0.015625)"/>
       <path id="DejaVuSerif-6d" d="M 3316 2675 
Q 3481 3041 3739 3227 
Q 3997 3413 4341 3413 
Q 4863 3413 5119 3089 
Q 5375 2766 5375 2113 
L 5375 331 
L 5894 331 
L 5894 0 
L 4300 0 
L 4300 331 
L 4800 331 
L 4800 2047 
Q 4800 2556 4650 2772 
Q 4500 2988 4153 2988 
Q 3769 2988 3567 2697 
Q 3366 2406 3366 1850 
L 3366 331 
L 3866 331 
L 3866 0 
L 2291 0 
L 2291 331 
L 2791 331 
L 2791 2069 
Q 2791 2566 2641 2777 
Q 2491 2988 2144 2988 
Q 1759 2988 1557 2697 
Q 1356 2406 1356 1850 
L 1356 331 
L 1856 331 
L 1856 0 
L 263 0 
L 263 331 
L 781 331 
L 781 2994 
L 231 2994 
L 231 3322 
L 1356 3322 
L 1356 2731 
Q 1516 3063 1762 3238 
Q 2009 3413 2322 3413 
Q 2709 3413 2968 3220 
Q 3228 3028 3316 2675 
z
" transform="scale(0.015625)"/>
       <path id="DejaVuSerif-70" d="M 1313 1825 
L 1313 1497 
Q 1313 897 1542 583 
Q 1772 269 2209 269 
Q 2650 269 2876 622 
Q 3103 975 3103 1663 
Q 3103 2353 2876 2703 
Q 2650 3053 2209 3053 
Q 1772 3053 1542 2737 
Q 1313 2422 1313 1825 
z
M 738 2988 
L 184 2988 
L 184 3322 
L 1313 3322 
L 1313 2803 
Q 1481 3116 1742 3264 
Q 2003 3413 2388 3413 
Q 3000 3413 3387 2928 
Q 3775 2444 3775 1663 
Q 3775 881 3387 395 
Q 3000 -91 2388 -91 
Q 2003 -91 1742 57 
Q 1481 206 1313 519 
L 1313 -997 
L 1856 -997 
L 1856 -1331 
L 184 -1331 
L 184 -997 
L 738 -997 
L 738 2988 
z
" transform="scale(0.015625)"/>
       <path id="DejaVuSerif-61" d="M 2547 1044 
L 2547 1747 
L 1806 1747 
Q 1378 1747 1168 1562 
Q 959 1378 959 997 
Q 959 650 1171 447 
Q 1384 244 1747 244 
Q 2106 244 2326 466 
Q 2547 688 2547 1044 
z
M 3122 2075 
L 3122 331 
L 3634 331 
L 3634 0 
L 2547 0 
L 2547 359 
Q 2356 128 2106 18 
Q 1856 -91 1522 -91 
Q 969 -91 644 203 
Q 319 497 319 997 
Q 319 1513 691 1797 
Q 1063 2081 1741 2081 
L 2547 2081 
L 2547 2309 
Q 2547 2688 2317 2895 
Q 2088 3103 1672 3103 
Q 1328 3103 1125 2947 
Q 922 2791 872 2484 
L 575 2484 
L 575 3156 
Q 875 3284 1158 3348 
Q 1441 3413 1709 3413 
Q 2400 3413 2761 3070 
Q 3122 2728 3122 2075 
z
" transform="scale(0.015625)"/>
       <path id="DejaVuSerif-75" d="M 2266 3322 
L 3341 3322 
L 3341 331 
L 3884 331 
L 3884 0 
L 2766 0 
L 2766 588 
Q 2606 256 2353 82 
Q 2100 -91 1766 -91 
Q 1213 -91 952 223 
Q 691 538 691 1209 
L 691 2988 
L 172 2988 
L 172 3322 
L 1269 3322 
L 1269 1388 
Q 1269 781 1417 556 
Q 1566 331 1947 331 
Q 2347 331 2556 625 
Q 2766 919 2766 1478 
L 2766 2988 
L 2266 2988 
L 2266 3322 
z
" transform="scale(0.015625)"/>
       <path id="DejaVuSerif-28" d="M 2041 -997 
Q 1281 -656 893 83 
Q 506 822 506 1931 
Q 506 3044 893 3783 
Q 1281 4522 2041 4863 
L 2041 4556 
Q 1559 4225 1350 3623 
Q 1141 3022 1141 1931 
Q 1141 844 1350 242 
Q 1559 -359 2041 -691 
L 2041 -997 
z
" transform="scale(0.015625)"/>
       <path id="DejaVuSerif-b0" d="M 1600 4319 
Q 1363 4319 1200 4155 
Q 1038 3991 1038 3750 
Q 1038 3513 1198 3353 
Q 1359 3194 1600 3194 
Q 1838 3194 2000 3355 
Q 2163 3516 2163 3750 
Q 2163 3984 1997 4151 
Q 1831 4319 1600 4319 
z
M 1600 4750 
Q 1800 4750 1984 4673 
Q 2169 4597 2303 4453 
Q 2447 4313 2519 4134 
Q 2591 3956 2591 3750 
Q 2591 3338 2302 3052 
Q 2013 2766 1594 2766 
Q 1172 2766 890 3047 
Q 609 3328 609 3750 
Q 609 4169 896 4459 
Q 1184 4750 1600 4750 
z
" transform="scale(0.015625)"/>
       <path id="DejaVuSerif-43" d="M 4513 1234 
Q 4306 581 3820 245 
Q 3334 -91 2591 -91 
Q 2134 -91 1743 65 
Q 1353 222 1050 525 
Q 700 875 529 1320 
Q 359 1766 359 2328 
Q 359 3416 987 4083 
Q 1616 4750 2644 4750 
Q 3025 4750 3456 4650 
Q 3888 4550 4384 4347 
L 4384 3272 
L 4031 3272 
Q 3916 3859 3567 4137 
Q 3219 4416 2591 4416 
Q 1844 4416 1459 3886 
Q 1075 3356 1075 2328 
Q 1075 1303 1459 773 
Q 1844 244 2591 244 
Q 3113 244 3450 492 
Q 3788 741 3938 1234 
L 4513 1234 
z
" transform="scale(0.015625)"/>
       <path id="DejaVuSerif-29" d="M 453 -997 
L 453 -691 
Q 934 -359 1145 242 
Q 1356 844 1356 1931 
Q 1356 3022 1145 3623 
Q 934 4225 453 4556 
L 453 4863 
Q 1216 4522 1603 3783 
Q 1991 3044 1991 1931 
Q 1991 822 1603 83 
Q 1216 -656 453 -997 
z
" transform="scale(0.015625)"/>
      </defs>
      <use xlink:href="#DejaVuSerif-41"/>
      <use xlink:href="#DejaVuSerif-69" transform="translate(72.216797 0)"/>
      <use xlink:href="#DejaVuSerif-72" transform="translate(104.199219 0)"/>
      <use xlink:href="#DejaVuSerif-20" transform="translate(152.001953 0)"/>
      <use xlink:href="#DejaVuSerif-74" transform="translate(183.789062 0)"/>
      <use xlink:href="#DejaVuSerif-65" transform="translate(223.974609 0)"/>
      <use xlink:href="#DejaVuSerif-6d" transform="translate(283.154297 0)"/>
      <use xlink:href="#DejaVuSerif-70" transform="translate(377.978516 0)"/>
      <use xlink:href="#DejaVuSerif-65" transform="translate(441.992188 0)"/>
      <use xlink:href="#DejaVuSerif-72" transform="translate(501.171875 0)"/>
      <use xlink:href="#DejaVuSerif-61" transform="translate(548.974609 0)"/>
      <use xlink:href="#DejaVuSerif-74" transform="translate(608.59375 0)"/>
      <use xlink:href="#DejaVuSerif-75" transform="translate(648.779297 0)"/>
      <use xlink:href="#DejaVuSerif-72" transform="translate(713.183594 0)"/>
      <use xlink:href="#DejaVuSerif-65" transform="translate(760.986328 0)"/>
      <use xlink:href="#DejaVuSerif-20" transform="translate(820.166016 0)"/>
      <use xlink:href="#DejaVuSerif-28" transform="translate(851.953125 0)"/>
      <use xlink:href="#DejaVuSerif-b0" transform="translate(890.966797 0)"/>
      <use xlink:href="#DejaVuSerif-43" transform="translate(940.966797 0)"/>
      <use xlink:href="#DejaVuSerif-29" transform="translate(1017.480469 0)"/>
     </g>
    </g>
   </g>
   <g id="matplotlib.axis_2">
    <g id="ytick_1">
     <g id="line2d_9">
      <defs>
       <path id="m5fd7ac0fad" d="M 0 0 
L -3 0 
" style="stroke: #8a8275; stroke-width: 0.8"/>
      </defs>
      <g>
       <use xlink:href="#m5fd7ac0fad" x="51.008281" y="395.798359" style="fill: #8a8275; stroke: #8a8275; stroke-width: 0.8"/>
      </g>
     </g>
     <g id="text_10">
      <!-- 10 -->
      <g style="fill: #3d3a33" transform="translate(34.328281 398.837734) scale(0.08 -0.08)">
       <defs>
        <path id="DejaVuSerif-31" d="M 909 0 
L 909 331 
L 1722 331 
L 1722 4213 
L 781 3603 
L 781 4013 
L 1919 4750 
L 2350 4750 
L 2350 331 
L 3163 331 
L 3163 0 
L 909 0 
z
" transform="scale(0.015625)"/>
       </defs>
       <use xlink:href="#DejaVuSerif-31"/>
       <use xlink:href="#DejaVuSerif-30" transform="translate(63.623047 0)"/>
      </g>
     </g>
    </g>
    <g id="ytick_2">
     <g id="line2d_10">
      <g>
       <use xlink:href="#m5fd7ac0fad" x="51.008281" y="355.640582" style="fill: #8a8275; stroke: #8a8275; stroke-width: 0.8"/>
      </g>
     </g>
     <g id="text_11">
      <!-- 20 -->
      <g style="fill: #3d3a33" transform="translate(34.328281 358.679957) scale(0.08 -0.08)">
       <use xlink:href="#DejaVuSerif-32"/>
       <use xlink:href="#DejaVuSerif-30" transform="translate(63.623047 0)"/>
      </g>
     </g>
    </g>
    <g id="ytick_3">
     <g id="line2d_11">
      <g>
       <use xlink:href="#m5fd7ac0fad" x="51.008281" y="315.482804" style="fill: #8a8275; stroke: #8a8275; stroke-width: 0.8"/>
      </g>
     </g>
     <g id="text_12">
      <!-- 30 -->
      <g style="fill: #3d3a33" transform="translate(34.328281 318.522179) scale(0.08 -0.08)">
       <use xlink:href="#DejaVuSerif-33"/>
       <use xlink:href="#DejaVuSerif-30" transform="translate(63.623047 0)"/>
      </g>
     </g>
    </g>
    <g id="ytick_4">
     <g id="line2d_12">
      <g>
       <use xlink:href="#m5fd7ac0fad" x="51.008281" y="275.325026" style="fill: #8a8275; stroke: #8a8275; stroke-width: 0.8"/>
      </g>
     </g>
     <g id="text_13">
      <!-- 40 -->
      <g style="fill: #3d3a33" transform="translate(34.328281 278.364401) scale(0.08 -0.08)">
       <use xlink:href="#DejaVuSerif-34"/>
       <use xlink:href="#DejaVuSerif-30" transform="translate(63.623047 0)"/>
      </g>
     </g>
    </g>
    <g id="ytick_5">
     <g id="line2d_13">
      <g>
       <use xlink:href="#m5fd7ac0fad" x="51.008281" y="235.167248" style="fill: #8a8275; stroke: #8a8275; stroke-width: 0.8"/>
      </g>
     </g>
     <g id="text_14">
      <!-- 50 -->
      <g style="fill: #3d3a33" transform="translate(34.328281 238.206623) scale(0.08 -0.08)">
       <use xlink:href="#DejaVuSerif-35"/>
       <use xlink:href="#DejaVuSerif-30" transform="translate(63.623047 0)"/>
      </g>
     </g>
    </g>
    <g id="ytick_6">
     <g id="line2d_14">
      <g>
       <use xlink:href="#m5fd7ac0fad" x="51.008281" y="195.00947" style="fill: #8a8275; stroke: #8a8275; stroke-width: 0.8"/>
      </g>
     </g>
     <g id="text_15">
      <!-- 60 -->
      <g style="fill: #3d3a33" transform="translate(34.328281 198.048845) scale(0.08 -0.08)">
       <defs>
        <path id="DejaVuSerif-36" d="M 2094 219 
Q 2534 219 2771 542 
Q 3009 866 3009 1472 
Q 3009 2078 2771 2401 
Q 2534 2725 2094 2725 
Q 1647 2725 1412 2412 
Q 1178 2100 1178 1509 
Q 1178 888 1415 553 
Q 1653 219 2094 219 
z
M 1075 2569 
Q 1288 2803 1556 2918 
Q 1825 3034 2163 3034 
Q 2859 3034 3264 2615 
Q 3669 2197 3669 1472 
Q 3669 763 3233 336 
Q 2797 -91 2069 -91 
Q 1278 -91 853 498 
Q 428 1088 428 2181 
Q 428 3406 931 4078 
Q 1434 4750 2350 4750 
Q 2597 4750 2869 4703 
Q 3141 4656 3425 4563 
L 3425 3794 
L 3072 3794 
Q 3034 4109 2831 4275 
Q 2628 4441 2284 4441 
Q 1678 4441 1381 3981 
Q 1084 3522 1075 2569 
z
" transform="scale(0.015625)"/>
       </defs>
       <use xlink:href="#DejaVuSerif-36"/>
       <use xlink:href="#DejaVuSerif-30" transform="translate(63.623047 0)"/>
      </g>
     </g>
    </g>
    <g id="ytick_7">
     <g id="line2d_15">
      <g>
       <use xlink:href="#m5fd7ac0fad" x="51.008281" y="154.851693" style="fill: #8a8275; stroke: #8a8275; stroke-width: 0.8"/>
      </g>
     </g>
     <g id="text_16">
      <!-- 70 -->
      <g style="fill: #3d3a33" transform="translate(34.328281 157.891068) scale(0.08 -0.08)">
       <use xlink:href="#DejaVuSerif-37"/>
       <use xlink:href="#DejaVuSerif-30" transform="translate(63.623047 0)"/>
      </g>
     </g>
    </g>
    <g id="ytick_8">
     <g id="line2d_16">
      <g>
       <use xlink:href="#m5fd7ac0fad" x="51.008281" y="114.693915" style="fill: #8a8275; stroke: #8a8275; stroke-width: 0.8"/>
      </g>
     </g>
     <g id="text_17">
      <!-- 80 -->
      <g style="fill: #3d3a33" transform="translate(34.328281 117.73329) scale(0.08 -0.08)">
       <defs>
        <path id="DejaVuSerif-38" d="M 2981 1275 
Q 2981 1775 2732 2051 
Q 2484 2328 2034 2328 
Q 1584 2328 1336 2051 
Q 1088 1775 1088 1275 
Q 1088 772 1336 495 
Q 1584 219 2034 219 
Q 2484 219 2732 495 
Q 2981 772 2981 1275 
z
M 2853 3541 
Q 2853 3966 2637 4203 
Q 2422 4441 2034 4441 
Q 1650 4441 1433 4203 
Q 1216 3966 1216 3541 
Q 1216 3113 1433 2875 
Q 1650 2638 2034 2638 
Q 2422 2638 2637 2875 
Q 2853 3113 2853 3541 
z
M 2516 2484 
Q 3047 2413 3344 2092 
Q 3641 1772 3641 1275 
Q 3641 619 3225 264 
Q 2809 -91 2034 -91 
Q 1263 -91 845 264 
Q 428 619 428 1275 
Q 428 1772 725 2092 
Q 1022 2413 1556 2484 
Q 1084 2569 832 2842 
Q 581 3116 581 3541 
Q 581 4103 968 4426 
Q 1356 4750 2034 4750 
Q 2713 4750 3100 4426 
Q 3488 4103 3488 3541 
Q 3488 3116 3236 2842 
Q 2984 2569 2516 2484 
z
" transform="scale(0.015625)"/>
       </defs>
       <use xlink:href="#DejaVuSerif-38"/>
       <use xlink:href="#DejaVuSerif-30" transform="translate(63.623047 0)"/>
      </g>
     </g>
    </g>
    <g id="ytick_9">
     <g id="line2d_17">
      <g>
       <use xlink:href="#m5fd7ac0fad" x="51.008281" y="74.536137" style="fill: #8a8275; stroke: #8a8275; stroke-width: 0.8"/>
      </g>
     </g>
     <g id="text_18">
      <!-- 90 -->
      <g style="fill: #3d3a33" transform="translate(34.328281 77.575512) scale(0.08 -0.08)">
       <defs>
        <path id="DejaVuSerif-39" d="M 2994 2091 
Q 2784 1856 2512 1740 
Q 2241 1625 1900 1625 
Q 1206 1625 804 2044 
Q 403 2463 403 3188 
Q 403 3897 839 4323 
Q 1275 4750 2003 4750 
Q 2794 4750 3217 4161 
Q 3641 3572 3641 2478 
Q 3641 1253 3137 581 
Q 2634 -91 1722 -91 
Q 1475 -91 1203 -44 
Q 931 3 647 97 
L 647 872 
L 997 872 
Q 1038 556 1241 387 
Q 1444 219 1784 219 
Q 2391 219 2687 676 
Q 2984 1134 2994 2091 
z
M 1978 4441 
Q 1534 4441 1298 4117 
Q 1063 3794 1063 3188 
Q 1063 2581 1298 2256 
Q 1534 1931 1978 1931 
Q 2422 1931 2658 2245 
Q 2894 2559 2894 3150 
Q 2894 3772 2656 4106 
Q 2419 4441 1978 4441 
z
" transform="scale(0.015625)"/>
       </defs>
       <use xlink:href="#DejaVuSerif-39"/>
       <use xlink:href="#DejaVuSerif-30" transform="translate(63.623047 0)"/>
      </g>
     </g>
    </g>
    <g id="ytick_10">
     <g id="line2d_18">
      <g>
       <use xlink:href="#m5fd7ac0fad" x="51.008281" y="34.378359" style="fill: #8a8275; stroke: #8a8275; stroke-width: 0.8"/>
      </g>
     </g>
     <g id="text_19">
      <!-- 100 -->
      <g style="fill: #3d3a33" transform="translate(29.238281 37.417734) scale(0.08 -0.08)">
       <use xlink:href="#DejaVuSerif-31"/>
       <use xlink:href="#DejaVuSerif-30" transform="translate(63.623047 0)"/>
       <use xlink:href="#DejaVuSerif-30" transform="translate(127.246094 0)"/>
      </g>
     </g>
    </g>
    <g id="text_20">
     <!-- Relative humidity (%) -->
     <g style="fill: #3d3a33" transform="translate(21.238594 264.537734) rotate(-90) scale(0.09 -0.09)">
      <defs>
       <path id="DejaVuSerif-52" d="M 3066 2316 
Q 3284 2256 3442 2114 
Q 3600 1972 3725 1716 
L 4403 331 
L 4972 331 
L 4972 0 
L 3872 0 
L 3144 1484 
Q 2934 1916 2759 2042 
Q 2584 2169 2278 2169 
L 1581 2169 
L 1581 331 
L 2241 331 
L 2241 0 
L 353 0 
L 353 331 
L 947 331 
L 947 4331 
L 353 4331 
L 353 4666 
L 2719 4666 
Q 3400 4666 3770 4341 
Q 4141 4016 4141 3419 
Q 4141 2938 3870 2661 
Q 3600 2384 3066 2316 
z
M 1581 2503 
L 2503 2503 
Q 2975 2503 3200 2726 
Q 3425 2950 3425 3419 
Q 3425 3888 3200 4109 
Q 2975 4331 2503 4331 
L 1581 4331 
L 1581 2503 
z
" transform="scale(0.015625)"/>
       <path id="DejaVuSerif-6c" d="M 1313 331 
L 1856 331 
L 1856 0 
L 184 0 
L 184 331 
L 738 331 
L 738 4531 
L 184 4531 
L 184 4863 
L 1313 4863 
L 1313 331 
z
" transform="scale(0.015625)"/>
       <path id="DejaVuSerif-76" d="M 1581 0 
L 359 2988 
L -19 2988 
L -19 3322 
L 1509 3322 
L 1509 2988 
L 978 2988 
L 1913 703 
L 2847 2988 
L 2350 2988 
L 2350 3322 
L 3597 3322 
L 3597 2988 
L 3225 2988 
L 2003 0 
L 1581 0 
z
" transform="scale(0.015625)"/>
       <path id="DejaVuSerif-68" d="M 263 0 
L 263 331 
L 781 331 
L 781 4531 
L 231 4531 
L 231 4863 
L 1356 4863 
L 1356 2731 
Q 1516 3069 1770 3241 
Q 2025 3413 2363 3413 
Q 2913 3413 3172 3097 
Q 3431 2781 3431 2113 
L 3431 331 
L 3944 331 
L 3944 0 
L 2356 0 
L 2356 331 
L 2853 331 
L 2853 1931 
Q 2853 2541 2704 2764 
Q 2556 2988 2175 2988 
Q 1775 2988 1565 2697 
Q 1356 2406 1356 1850 
L 1356 331 
L 1856 331 
L 1856 0 
L 263 0 
z
" transform="scale(0.015625)"/>
       <path id="DejaVuSerif-64" d="M 3359 331 
L 3909 331 
L 3909 0 
L 2784 0 
L 2784 519 
Q 2616 206 2355 57 
Q 2094 -91 1709 -91 
Q 1097 -91 708 395 
Q 319 881 319 1663 
Q 319 2444 706 2928 
Q 1094 3413 1709 3413 
Q 2094 3413 2355 3264 
Q 2616 3116 2784 2803 
L 2784 4531 
L 2241 4531 
L 2241 4863 
L 3359 4863 
L 3359 331 
z
M 2784 1497 
L 2784 1825 
Q 2784 2422 2554 2737 
Q 2325 3053 1888 3053 
Q 1444 3053 1217 2703 
Q 991 2353 991 1663 
Q 991 975 1217 622 
Q 1444 269 1888 269 
Q 2325 269 2554 583 
Q 2784 897 2784 1497 
z
" transform="scale(0.015625)"/>
       <path id="DejaVuSerif-79" d="M 1381 -609 
L 1600 -56 
L 359 2988 
L -19 2988 
L -19 3322 
L 1509 3322 
L 1509 2988 
L 978 2988 
L 1913 703 
L 2847 2988 
L 2350 2988 
L 2350 3322 
L 3597 3322 
L 3597 2988 
L 3225 2988 
L 1703 -750 
Q 1547 -1138 1356 -1280 
Q 1166 -1422 819 -1422 
Q 672 -1422 517 -1397 
Q 363 -1372 206 -1325 
L 206 -691 
L 500 -691 
Q 519 -903 608 -995 
Q 697 -1088 884 -1088 
Q 1056 -1088 1161 -992 
Q 1266 -897 1381 -609 
z
" transform="scale(0.015625)"/>
       <path id="DejaVuSerif-25" d="M 1434 4459 
Q 1159 4459 1004 4200 
Q 850 3941 850 3475 
Q 850 3016 1008 2753 
Q 1166 2491 1434 2491 
Q 1700 2491 1854 2752 
Q 2009 3013 2009 3475 
Q 2009 3938 1854 4198 
Q 1700 4459 1434 4459 
z
M 4653 2169 
Q 4381 2169 4226 1906 
Q 4072 1644 4072 1178 
Q 4072 719 4228 458 
Q 4384 197 4653 197 
Q 4922 197 5075 458 
Q 5228 719 5228 1178 
Q 5228 1641 5073 1905 
Q 4919 2169 4653 2169 
z
M 4653 2450 
Q 5147 2450 5437 2106 
Q 5728 1763 5728 1178 
Q 5728 594 5436 251 
Q 5144 -91 4653 -91 
Q 4153 -91 3862 251 
Q 3572 594 3572 1178 
Q 3572 1766 3864 2108 
Q 4156 2450 4653 2450 
z
M 4263 4750 
L 4738 4750 
L 1819 -91 
L 1344 -91 
L 4263 4750 
z
M 1428 4750 
Q 1922 4750 2215 4408 
Q 2509 4066 2509 3481 
Q 2509 2891 2217 2550 
Q 1925 2209 1428 2209 
Q 931 2209 642 2551 
Q 353 2894 353 3481 
Q 353 4063 643 4406 
Q 934 4750 1428 4750 
z
" transform="scale(0.015625)"/>
      </defs>
      <use xlink:href="#DejaVuSerif-52"/>
      <use xlink:href="#DejaVuSerif-65" transform="translate(75.292969 0)"/>
      <use xlink:href="#DejaVuSerif-6c" transform="translate(134.472656 0)"/>
      <use xlink:href="#DejaVuSerif-61" transform="translate(166.455078 0)"/>
      <use xlink:href="#DejaVuSerif-74" transform="translate(226.074219 0)"/>
      <use xlink:href="#DejaVuSerif-69" transform="translate(266.259766 0)"/>
      <use xlink:href="#DejaVuSerif-76" transform="translate(298.242188 0)"/>
      <use xlink:href="#DejaVuSerif-65" transform="translate(354.736328 0)"/>
      <use xlink:href="#DejaVuSerif-20" transform="translate(413.916016 0)"/>
      <use xlink:href="#DejaVuSerif-68" transform="translate(445.703125 0)"/>
      <use xlink:href="#DejaVuSerif-75" transform="translate(510.107422 0)"/>
      <use xlink:href="#DejaVuSerif-6d" transform="translate(574.511719 0)"/>
      <use xlink:href="#DejaVuSerif-69" transform="translate(669.335938 0)"/>
      <use xlink:href="#DejaVuSerif-64" transform="translate(701.318359 0)"/>
      <use xlink:href="#DejaVuSerif-69" transform="translate(765.332031 0)"/>
      <use xlink:href="#DejaVuSerif-74" transform="translate(797.314453 0)"/>
      <use xlink:href="#DejaVuSerif-79" transform="translate(837.5 0)"/>
      <use xlink:href="#DejaVuSerif-20" transform="translate(893.994141 0)"/>
      <use xlink:href="#DejaVuSerif-28" transform="translate(925.78125 0)"/>
      <use xlink:href="#DejaVuSerif-25" transform="translate(964.794922 0)"/>
      <use xlink:href="#DejaVuSerif-29" transform="translate(1059.814453 0)"/>
     </g>
    </g>
   </g>
   <g id="QuadContourSet_1">
    <path clip-path="url(#p6a92fbb749)" style="fill: none; stroke: #a45a2a; stroke-opacity: 0.85; stroke-width: 0.9"/>
    <path d="M 51.008281 229.933491 
L 53.295279 235.167248 
L 62.788474 255.246137 
L 64.617492 258.981301 
L 72.879349 275.325026 
L 78.226702 285.919728 
L 83.130578 295.403915 
L 91.835913 313.512025 
L 92.799177 315.482804 
L 100.88242 335.561693 
L 105.445123 350.822155 
L 106.870081 355.640582 
L 109.992397 375.71947 
L 119.054334 394.726125 
L 119.568613 395.798359 
" clip-path="url(#p6a92fbb749)" style="fill: none; stroke: #a45a2a; stroke-opacity: 0.85; stroke-width: 0.9"/>
    <path d="M 51.008281 103.909038 
L 54.098815 114.693915 
L 60.727057 134.772804 
L 64.617492 145.106847 
L 68.543785 154.851693 
L 77.708466 174.930582 
L 78.226702 176.005599 
L 88.015735 195.00947 
L 91.835913 201.909293 
L 99.623932 215.088359 
L 105.445123 224.604837 
L 112.332322 235.167248 
L 116.897342 242.161243 
M 134.786425 268.340289 
L 139.782114 275.325026 
L 146.272755 285.036998 
L 153.625075 295.403915 
L 159.881965 305.263153 
L 166.753416 315.482804 
L 173.491176 327.357192 
L 178.415724 335.561693 
L 187.100387 354.354216 
L 187.728288 355.640582 
L 193.507282 375.71947 
L 200.709597 387.137714 
L 206.576136 395.798359 
" clip-path="url(#p6a92fbb749)" style="fill: none; stroke: #a45a2a; stroke-opacity: 0.85; stroke-width: 0.9"/>
    <path d="M 51.008281 43.241779 
L 55.535193 54.457248 
L 64.545403 74.536137 
L 64.617492 74.689149 
L 74.299917 94.615026 
L 78.226702 104.596997 
L 82.470511 114.693915 
L 91.835913 134.585544 
L 91.930171 134.772804 
L 102.531724 154.851693 
L 105.445123 159.996689 
L 114.496824 174.930582 
L 119.054334 182.130374 
L 127.784728 195.00947 
L 132.663544 202.069147 
L 142.303596 215.088359 
L 146.272755 220.465797 
L 157.906255 235.167248 
L 159.881965 237.72857 
L 173.491176 254.278326 
L 174.334035 255.246137 
L 187.100387 270.694892 
L 191.220308 275.325026 
L 200.709597 286.849779 
L 208.307975 295.403915 
L 214.318808 302.946271 
L 225.121957 315.482804 
L 227.928018 319.264536 
L 241.040904 335.561693 
L 241.537229 336.322524 
L 255.146439 355.509321 
L 255.247962 355.640582 
L 266.675292 375.71947 
L 268.75565 377.997717 
L 282.36486 392.137297 
L 286.140935 395.798359 
" clip-path="url(#p6a92fbb749)" style="fill: none; stroke: #a45a2a; stroke-opacity: 0.85; stroke-width: 0.9"/>
    <path d="M 67.679877 34.378359 
L 76.857957 54.457248 
L 78.226702 57.294386 
L 79.807232 60.457411 
M 94.292487 88.425341 
L 97.68726 94.615026 
L 105.445123 110.086204 
L 107.911141 114.693915 
L 119.054334 134.166529 
L 119.425004 134.772804 
L 132.227523 154.851693 
L 132.663544 155.512103 
L 146.272755 174.780417 
L 146.385922 174.930582 
L 159.881965 192.645536 
L 161.81355 195.00947 
L 173.491176 209.373324 
L 178.482835 215.088359 
L 187.100387 225.164063 
L 196.309985 235.167248 
L 200.709597 240.129826 
L 214.318808 254.432438 
L 215.131649 255.246137 
L 227.928018 268.811061 
L 234.589922 275.325026 
L 241.537229 282.663428 
L 254.664702 295.403915 
L 255.146439 295.921482 
L 268.75565 309.808095 
L 274.837824 315.482804 
L 282.36486 323.467077 
L 294.957264 335.561693 
L 295.974071 336.717592 
L 309.583281 351.076801 
L 314.388333 355.640582 
L 323.192492 365.997081 
L 332.554885 375.71947 
L 336.801702 379.379271 
L 350.410913 390.261345 
L 358.046648 395.798359 
" clip-path="url(#p6a92fbb749)" style="fill: none; stroke: #a45a2a; stroke-opacity: 0.85; stroke-width: 0.9"/>
    <path d="M 86.404866 34.378359 
L 91.835913 45.315162 
L 96.551066 54.457248 
L 105.445123 70.79515 
L 107.556943 74.536137 
L 119.054334 94.170585 
L 119.32376 94.615026 
L 131.146298 114.693915 
L 132.663544 117.146708 
L 144.309137 134.772804 
L 146.272755 137.644241 
L 158.857993 154.851693 
L 159.881965 156.225742 
L 173.491176 173.430562 
L 174.752808 174.930582 
L 187.100387 189.63156 
L 191.948884 195.00947 
L 200.709597 204.866929 
L 210.48283 215.088359 
L 214.318808 219.212732 
L 227.928018 232.965414 
L 230.226313 235.167248 
L 241.537229 246.482867 
L 251.028659 255.246137 
L 255.146439 259.275672 
L 268.75565 271.798667 
L 272.83451 275.325026 
L 282.36486 284.200324 
L 295.549478 295.403915 
L 295.974071 295.800241 
L 309.583281 307.928934 
L 318.936843 315.482804 
L 323.192492 319.335809 
L 336.801702 330.771167 
L 343.026019 335.561693 
L 350.410913 342.085974 
L 364.020123 352.922739 
L 367.72816 355.640582 
L 377.629334 364.213494 
L 391.238544 374.490797 
L 393.008249 375.71947 
L 404.847755 383.589975 
L 418.456965 391.684559 
L 426.03607 395.798359 
" clip-path="url(#p6a92fbb749)" style="fill: none; stroke: #a45a2a; stroke-opacity: 0.85; stroke-width: 0.9"/>
    <path d="M 104.073242 34.378359 
L 105.445123 36.973169 
L 115.048897 54.457248 
L 119.054334 61.443182 
L 126.842787 74.536137 
L 132.663544 84.05245 
L 139.356881 94.615026 
L 146.272755 105.411345 
L 152.611413 114.693915 
L 159.881965 125.016081 
L 167.218623 134.772804 
L 173.491176 142.965346 
L 183.223077 154.851693 
L 187.100387 159.559547 
L 190.094149 162.952333 
M 211.450568 186.737078 
L 214.318808 189.875863 
L 219.356154 195.00947 
L 227.928018 203.925925 
L 239.486577 215.088359 
L 241.537229 217.132931 
L 255.146439 230.085316 
L 260.856067 235.167248 
L 268.75565 242.52185 
L 282.36486 254.261455 
L 283.554364 255.246137 
L 295.974071 266.137292 
L 307.4258 275.325026 
L 309.583281 277.184832 
L 323.192492 288.365215 
L 332.528381 295.403915 
L 336.801702 298.91623 
L 350.410913 309.425638 
L 358.95226 315.482804 
L 364.020123 319.463454 
L 377.629334 329.413439 
L 386.870952 335.561693 
L 391.238544 338.838472 
L 404.847755 348.30989 
L 416.679787 355.640582 
L 418.456965 356.908819 
L 432.066176 365.968279 
L 445.675387 373.857861 
L 449.15396 375.71947 
L 459.284597 381.270998 
L 472.893808 388.078214 
L 486.503018 394.216872 
L 490.209778 395.798359 
" clip-path="url(#p6a92fbb749)" style="fill: none; stroke: #a45a2a; stroke-opacity: 0.85; stroke-width: 0.9"/>
    <path d="M 120.747666 34.378359 
L 132.560408 54.457248 
L 132.663544 54.628792 
L 145.087002 74.536137 
L 146.272755 76.397622 
L 158.30299 94.615026 
L 159.881965 96.929062 
L 172.799383 114.693915 
L 173.491176 115.623261 
L 187.100387 132.927736 
L 188.641675 134.772804 
L 200.709597 149.118276 
L 205.866647 154.851693 
L 214.318808 164.275403 
L 224.560057 174.930582 
L 227.928018 178.479408 
L 241.537229 192.056448 
L 244.659363 195.00947 
L 255.146439 205.175835 
L 266.171149 215.088359 
L 268.75565 217.493879 
L 282.36486 229.597102 
L 289.058985 235.167248 
L 295.974071 241.190232 
L 309.583281 252.286934 
L 313.402486 255.246137 
L 323.192492 263.27319 
L 336.801702 273.574236 
L 339.220419 275.325026 
L 350.410913 283.992177 
L 364.020123 293.643803 
L 366.62192 295.403915 
L 377.629334 303.464672 
L 391.238544 312.571448 
L 395.85635 315.482804 
L 404.847755 321.696755 
L 418.456965 330.337254 
L 427.409904 335.561693 
L 432.066176 338.582084 
L 445.675387 346.821885 
L 459.284597 354.180804 
L 462.151361 355.640582 
L 472.893808 361.784969 
L 486.503018 368.777968 
L 500.112229 374.981986 
L 501.830571 375.71947 
L 513.721439 381.264096 
L 527.33065 387.379109 
L 540.93986 392.540388 
L 550.490164 395.798359 
" clip-path="url(#p6a92fbb749)" style="fill: none; stroke: #a45a2a; stroke-opacity: 0.85; stroke-width: 0.9"/>
    <path d="M 136.59624 34.378359 
L 146.272755 50.063205 
L 148.978234 54.457248 
L 159.881965 71.454002 
L 161.970834 74.536137 
L 173.491176 90.995916 
L 176.184494 94.615026 
L 187.100387 108.967714 
L 191.738465 114.693915 
L 200.709597 125.637043 
L 208.700401 134.772804 
L 214.318808 141.178078 
L 227.142269 154.851693 
L 227.928018 155.694737 
L 230.378543 158.219907 
M 253.032844 180.921127 
L 255.146439 182.997687 
L 268.289163 195.00947 
L 268.75565 195.447115 
L 282.36486 207.792478 
L 291.023908 215.088359 
L 295.974071 219.41287 
L 309.583281 230.681953 
L 315.319565 235.167248 
L 323.192492 241.611325 
L 336.801702 252.036618 
L 341.207781 255.246137 
L 350.410913 262.330375 
L 364.020123 272.074696 
L 368.803991 275.325026 
L 377.629334 281.722853 
L 391.238544 290.904143 
L 398.350052 295.403915 
L 404.847755 299.835121 
L 418.456965 308.542749 
L 430.291941 315.482804 
L 432.066176 316.616365 
L 445.675387 324.923432 
L 459.284597 332.446067 
L 465.296447 335.561693 
L 472.893808 339.886879 
L 486.503018 347.064811 
L 500.112229 353.541318 
L 504.807193 355.640582 
L 513.721439 360.053678 
L 527.33065 366.226697 
L 540.93986 371.768673 
L 551.584907 375.71947 
L 554.549071 376.946829 
L 568.158281 382.230291 
" clip-path="url(#p6a92fbb749)" style="fill: none; stroke: #a45a2a; stroke-opacity: 0.85; stroke-width: 0.9"/>
    <path d="M 151.462789 34.378359 
L 159.881965 47.931108 
L 164.14956 54.457248 
L 173.491176 68.240745 
L 178.019319 74.536137 
L 187.100387 86.84146 
L 193.197913 94.615026 
L 200.709597 104.035624 
L 209.758055 114.693915 
L 214.318808 120.02487 
L 227.778323 134.772804 
L 227.928018 134.936942 
L 241.537229 149.312988 
L 247.138129 154.851693 
L 255.146439 162.861633 
L 268.080722 174.930582 
L 268.75565 175.572573 
L 282.36486 188.083507 
L 290.440942 195.00947 
L 295.974071 199.891426 
L 309.583281 211.261356 
L 314.404601 215.088359 
L 323.192492 222.327059 
L 336.801702 232.806031 
L 340.001383 235.167248 
L 350.410913 243.205376 
L 364.020123 252.968789 
L 367.332915 255.246137 
L 377.629334 262.714164 
L 391.238544 271.889092 
L 396.606447 275.325026 
L 404.847755 280.937856 
L 418.456965 289.619904 
L 428.193076 295.403915 
L 432.066176 297.873766 
L 445.675387 306.138959 
L 459.284597 313.69658 
L 462.653993 315.482804 
L 472.893808 321.349757 
L 486.503018 328.558515 
L 500.112229 335.138274 
L 501.022528 335.561693 
L 513.721439 341.986566 
L 527.33065 348.264787 
L 540.93986 353.978301 
L 545.122834 355.640582 
L 554.549071 359.739682 
L 568.158281 365.19343 
" clip-path="url(#p6a92fbb749)" style="fill: none; stroke: #a45a2a; stroke-opacity: 0.85; stroke-width: 0.9"/>
    <path d="M 165.227603 34.378359 
L 173.491176 46.974508 
L 178.691632 54.457248 
L 187.100387 66.20902 
L 193.421351 74.536137 
L 200.709597 83.945457 
L 209.49086 94.615026 
L 214.318808 100.411687 
L 226.980737 114.693915 
L 227.928018 115.758135 
L 241.537229 130.417641 
L 245.827357 134.772804 
L 255.146439 144.292343 
L 257.160838 146.21722 
M 280.541319 168.264206 
L 282.36486 169.956052 
L 288.043347 174.930582 
L 295.974071 182.032567 
L 309.583281 193.459694 
L 311.498616 195.00947 
L 323.192492 204.758513 
L 336.577681 215.088359 
L 336.801702 215.267808 
L 350.410913 225.868345 
L 363.363316 235.167248 
L 364.020123 235.66051 
L 377.629334 245.581227 
L 391.238544 254.711744 
L 392.059502 255.246137 
L 404.847755 264.014217 
L 418.456965 272.630976 
L 422.909944 275.325026 
L 432.066176 281.203235 
L 445.675387 289.384291 
L 456.430636 295.403915 
L 459.284597 297.112047 
L 472.893808 304.922108 
L 486.503018 312.097239 
L 493.302097 315.482804 
L 500.112229 319.13038 
L 513.721439 325.995049 
L 527.33065 332.291876 
L 534.847274 335.561693 
L 540.93986 338.428059 
L 554.549071 344.460557 
L 568.158281 349.980409 
" clip-path="url(#p6a92fbb749)" style="fill: none; stroke: #a45a2a; stroke-opacity: 0.85; stroke-width: 0.9"/>
    <path d="M 178.479423 34.378359 
L 187.100387 46.80958 
L 192.716483 54.457248 
L 200.709597 65.088417 
L 208.242452 74.536137 
L 214.318808 82.039169 
L 225.137005 94.615026 
L 227.928018 97.833337 
L 241.537229 112.724853 
L 243.423807 114.693915 
L 255.146439 126.951387 
L 263.122453 134.772804 
L 268.75565 140.343522 
L 282.36486 153.051444 
L 284.371559 154.851693 
L 295.974071 165.434261 
L 307.136796 174.930582 
L 309.583281 177.060352 
L 323.192492 188.468621 
L 331.500197 195.00947 
L 336.801702 199.312268 
L 350.410913 209.838775 
L 357.586087 215.088359 
L 364.020123 219.975062 
L 377.629334 229.791328 
L 385.521087 235.167248 
L 391.238544 239.23817 
L 404.847755 248.470703 
L 415.53217 255.246137 
L 418.456965 257.198047 
L 432.066176 265.943505 
L 445.675387 274.026209 
L 447.940032 275.325026 
L 459.284597 282.211244 
L 472.893808 289.905176 
L 483.289673 295.403915 
L 486.503018 297.215067 
L 500.112229 304.575501 
L 513.721439 311.366297 
L 522.4939 315.482804 
L 527.33065 317.913572 
L 540.93986 324.424702 
L 554.549071 330.423755 
L 567.132521 335.561693 
L 568.158281 336.012338 
" clip-path="url(#p6a92fbb749)" style="fill: none; stroke: #a45a2a; stroke-opacity: 0.85; stroke-width: 0.9"/>
    <path d="M 191.319241 34.378359 
L 200.709597 47.250683 
L 206.274298 54.457248 
L 214.318808 64.680825 
L 222.539579 74.536137 
L 227.928018 80.921024 
L 240.200306 94.615026 
L 241.537229 96.099641 
L 255.146439 110.591258 
L 259.217547 114.693915 
L 268.75565 124.345837 
L 279.741333 134.772804 
L 282.36486 137.288668 
L 289.774052 144.108001 
M 313.918505 165.414066 
L 323.192492 173.15715 
L 325.394768 174.930582 
L 336.801702 184.345385 
L 350.410913 194.79418 
L 350.698862 195.00947 
L 364.020123 205.283494 
L 377.629334 214.996029 
L 377.761996 215.088359 
L 391.238544 224.823506 
L 404.847755 233.930099 
L 406.756033 235.167248 
L 418.456965 243.08848 
L 432.066176 251.687633 
L 437.966746 255.246137 
L 445.675387 260.130102 
L 459.284597 268.298985 
L 471.854345 275.325026 
L 472.893808 275.939201 
L 486.503018 283.74134 
L 500.112229 290.970572 
L 508.956279 295.403915 
L 513.721439 297.940967 
L 527.33065 304.867765 
L 540.93986 311.283101 
L 550.408454 315.482804 
L 554.549071 317.441909 
L 568.158281 323.60278 
" clip-path="url(#p6a92fbb749)" style="fill: none; stroke: #a45a2a; stroke-opacity: 0.85; stroke-width: 0.9"/>
    <path d="M 203.785327 34.378359 
L 214.318808 48.162131 
L 219.408972 54.457248 
L 227.928018 64.837956 
L 236.362478 74.536137 
L 241.537229 80.437055 
L 254.736555 94.615026 
L 255.146439 95.054414 
L 268.75565 109.139664 
L 274.452021 114.693915 
L 282.36486 122.456925 
L 295.747341 134.772804 
L 295.974071 134.983963 
L 309.583281 147.297805 
L 318.497986 154.851693 
L 323.192492 158.905274 
L 336.801702 170.138445 
L 342.908228 174.930582 
L 350.410913 180.9688 
L 364.020123 191.344604 
L 369.043468 195.00947 
L 377.629334 201.472244 
L 391.238544 211.152404 
L 397.030241 215.088359 
L 404.847755 220.601524 
L 418.456965 229.706568 
L 427.082317 235.167248 
L 432.066176 238.460309 
L 445.675387 247.082865 
L 459.284597 255.101572 
L 459.536025 255.246137 
L 472.893808 263.30088 
L 486.503018 270.935732 
L 494.754429 275.325026 
L 500.112229 278.330396 
L 513.721439 285.63407 
L 527.33065 292.425264 
L 533.584494 295.403915 
L 540.93986 299.113485 
L 554.549071 305.628308 
L 568.158281 311.683256 
" clip-path="url(#p6a92fbb749)" style="fill: none; stroke: #a45a2a; stroke-opacity: 0.85; stroke-width: 0.9"/>
    <path d="M 215.911355 34.378359 
L 227.928018 49.442592 
L 232.159067 54.457248 
L 241.537229 65.446755 
L 249.754791 74.536137 
L 255.146439 80.467784 
L 268.75565 94.577107 
L 268.793475 94.615026 
L 282.36486 108.254582 
L 289.177848 114.693915 
L 295.974071 121.168282 
L 309.583281 133.412159 
L 311.148745 134.772804 
L 322.237965 144.551905 
M 347.144544 165.076285 
L 350.410913 167.735015 
L 359.810687 174.930582 
L 364.020123 178.236843 
L 377.629334 188.510491 
L 386.751056 195.00947 
L 391.238544 198.308537 
L 404.847755 207.925528 
L 415.634676 215.088359 
L 418.456965 217.032735 
L 432.066176 226.104377 
L 445.675387 234.553472 
L 446.690154 235.167248 
L 459.284597 243.108808 
L 472.893808 251.13266 
L 480.214378 255.246137 
L 486.503018 258.948794 
L 500.112229 266.607237 
L 513.721439 273.749603 
L 516.826356 275.325026 
L 527.33065 280.93235 
L 540.93986 287.773316 
L 554.549071 294.154738 
L 557.30292 295.403915 
L 568.158281 300.603155 
" clip-path="url(#p6a92fbb749)" style="fill: none; stroke: #a45a2a; stroke-opacity: 0.85; stroke-width: 0.9"/>
   </g>
   <g id="patch_3">
    <path d="M 51.008281 395.798359 
L 51.008281 34.378359 
" style="fill: none; stroke: #8a8275; stroke-width: 0.8; stroke-linejoin: miter; stroke-linecap: square"/>
   </g>
   <g id="patch_4">
    <path d="M 51.008281 395.798359 
L 568.158281 395.798359 
" style="fill: none; stroke: #8a8275; stroke-width: 0.8; stroke-linejoin: miter; stroke-linecap: square"/>
   </g>
   <g id="patch_5">
    <path d="M 345.815845 333.55918 
Q 308.256995 324.748822 270.698146 315.938464 
" style="fill: none; stroke: #3d3a33; stroke-width: 0.9; stroke-linecap: round"/>
   </g>
   <g id="text_21">
    <g id="patch_6">
     <path d="M 350.410913 351.418792 
L 407.563257 351.418792 
Q 409.813257 351.418792 409.813257 349.168792 
L 409.813257 333.511839 
Q 409.813257 331.261839 407.563257 331.261839 
L 350.410913 331.261839 
Q 348.160913 331.261839 348.160913 333.511839 
L 348.160913 349.168792 
Q 348.160913 351.418792 350.410913 351.418792 
z
" style="fill: #f5efdf; stroke: #3d3a33; stroke-width: 0.8; stroke-linejoin: miter"/>
    </g>
    <!-- 35 °C, 30% RH -->
    <g style="fill: #1b1b1b" transform="translate(350.410913 339.210667) scale(0.075 -0.075)">
     <defs>
      <path id="DejaVuSerif-2c" d="M 231 -622 
Q 525 -406 662 -114 
Q 800 178 800 594 
L 800 709 
L 1416 709 
Q 1391 175 1164 -208 
Q 938 -591 481 -872 
L 231 -622 
z
" transform="scale(0.015625)"/>
      <path id="DejaVuSerif-48" d="M 353 0 
L 353 331 
L 947 331 
L 947 4331 
L 353 4331 
L 353 4666 
L 2175 4666 
L 2175 4331 
L 1581 4331 
L 1581 2719 
L 4000 2719 
L 4000 4331 
L 3406 4331 
L 3406 4666 
L 5228 4666 
L 5228 4331 
L 4634 4331 
L 4634 331 
L 5228 331 
L 5228 0 
L 3406 0 
L 3406 331 
L 4000 331 
L 4000 2338 
L 1581 2338 
L 1581 331 
L 2175 331 
L 2175 0 
L 353 0 
z
" transform="scale(0.015625)"/>
     </defs>
     <use xlink:href="#DejaVuSerif-33"/>
     <use xlink:href="#DejaVuSerif-35" transform="translate(63.623047 0)"/>
     <use xlink:href="#DejaVuSerif-20" transform="translate(127.246094 0)"/>
     <use xlink:href="#DejaVuSerif-b0" transform="translate(159.033203 0)"/>
     <use xlink:href="#DejaVuSerif-43" transform="translate(209.033203 0)"/>
     <use xlink:href="#DejaVuSerif-2c" transform="translate(281.921875 0)"/>
     <use xlink:href="#DejaVuSerif-20" transform="translate(313.708984 0)"/>
     <use xlink:href="#DejaVuSerif-33" transform="translate(345.496094 0)"/>
     <use xlink:href="#DejaVuSerif-30" transform="translate(409.119141 0)"/>
     <use xlink:href="#DejaVuSerif-25" transform="translate(472.742188 0)"/>
     <use xlink:href="#DejaVuSerif-20" transform="translate(567.761719 0)"/>
     <use xlink:href="#DejaVuSerif-52" transform="translate(599.548828 0)"/>
     <use xlink:href="#DejaVuSerif-48" transform="translate(674.841797 0)"/>
    </g>
    <!-- → HI 35 °C -->
    <g style="fill: #1b1b1b" transform="translate(350.410913 347.609026) scale(0.075 -0.075)">
     <defs>
      <path id="DejaVuSerif-2192" d="M 366 2322 
L 4391 2322 
L 3788 3375 
L 3822 3375 
L 5125 2084 
L 5125 2053 
L 3822 763 
L 3788 763 
L 4391 1816 
L 366 1816 
L 366 2322 
z
" transform="scale(0.015625)"/>
      <path id="DejaVuSerif-49" d="M 1581 331 
L 2175 331 
L 2175 0 
L 353 0 
L 353 331 
L 947 331 
L 947 4331 
L 353 4331 
L 353 4666 
L 2175 4666 
L 2175 4331 
L 1581 4331 
L 1581 331 
z
" transform="scale(0.015625)"/>
     </defs>
     <use xlink:href="#DejaVuSerif-2192"/>
     <use xlink:href="#DejaVuSerif-20" transform="translate(83.789062 0)"/>
     <use xlink:href="#DejaVuSerif-48" transform="translate(115.576172 0)"/>
     <use xlink:href="#DejaVuSerif-49" transform="translate(202.783203 0)"/>
     <use xlink:href="#DejaVuSerif-20" transform="translate(242.285156 0)"/>
     <use xlink:href="#DejaVuSerif-33" transform="translate(274.072266 0)"/>
     <use xlink:href="#DejaVuSerif-35" transform="translate(337.695312 0)"/>
     <use xlink:href="#DejaVuSerif-20" transform="translate(401.318359 0)"/>
     <use xlink:href="#DejaVuSerif-b0" transform="translate(433.105469 0)"/>
     <use xlink:href="#DejaVuSerif-43" transform="translate(483.105469 0)"/>
    </g>
   </g>
   <g id="patch_7">
    <path d="M 137.588446 87.414259 
Q 202.233367 110.754616 266.878287 134.094973 
" style="fill: none; stroke: #3d3a33; stroke-width: 0.9; stroke-linecap: round"/>
   </g>
   <g id="text_22">
    <g id="patch_8">
     <path d="M 78.226702 86.377458 
L 135.379046 86.377458 
Q 137.629046 86.377458 137.629046 84.127458 
L 137.629046 68.470505 
Q 137.629046 66.220505 135.379046 66.220505 
L 78.226702 66.220505 
Q 75.976702 66.220505 75.976702 68.470505 
L 75.976702 84.127458 
Q 75.976702 86.377458 78.226702 86.377458 
z
" style="fill: #f5efdf; stroke: #3d3a33; stroke-width: 0.8; stroke-linejoin: miter"/>
    </g>
    <!-- 35 °C, 75% RH -->
    <g style="fill: #1b1b1b" transform="translate(78.226702 74.169333) scale(0.075 -0.075)">
     <use xlink:href="#DejaVuSerif-33"/>
     <use xlink:href="#DejaVuSerif-35" transform="translate(63.623047 0)"/>
     <use xlink:href="#DejaVuSerif-20" transform="translate(127.246094 0)"/>
     <use xlink:href="#DejaVuSerif-b0" transform="translate(159.033203 0)"/>
     <use xlink:href="#DejaVuSerif-43" transform="translate(209.033203 0)"/>
     <use xlink:href="#DejaVuSerif-2c" transform="translate(281.921875 0)"/>
     <use xlink:href="#DejaVuSerif-20" transform="translate(313.708984 0)"/>
     <use xlink:href="#DejaVuSerif-37" transform="translate(345.496094 0)"/>
     <use xlink:href="#DejaVuSerif-35" transform="translate(409.119141 0)"/>
     <use xlink:href="#DejaVuSerif-25" transform="translate(472.742188 0)"/>
     <use xlink:href="#DejaVuSerif-20" transform="translate(567.761719 0)"/>
     <use xlink:href="#DejaVuSerif-52" transform="translate(599.548828 0)"/>
     <use xlink:href="#DejaVuSerif-48" transform="translate(674.841797 0)"/>
    </g>
    <!-- → HI 53 °C -->
    <g style="fill: #1b1b1b" transform="translate(78.226702 82.567693) scale(0.075 -0.075)">
     <use xlink:href="#DejaVuSerif-2192"/>
     <use xlink:href="#DejaVuSerif-20" transform="translate(83.789062 0)"/>
     <use xlink:href="#DejaVuSerif-48" transform="translate(115.576172 0)"/>
     <use xlink:href="#DejaVuSerif-49" transform="translate(202.783203 0)"/>
     <use xlink:href="#DejaVuSerif-20" transform="translate(242.285156 0)"/>
     <use xlink:href="#DejaVuSerif-35" transform="translate(274.072266 0)"/>
     <use xlink:href="#DejaVuSerif-33" transform="translate(337.695312 0)"/>
     <use xlink:href="#DejaVuSerif-20" transform="translate(401.318359 0)"/>
     <use xlink:href="#DejaVuSerif-b0" transform="translate(433.105469 0)"/>
     <use xlink:href="#DejaVuSerif-43" transform="translate(483.105469 0)"/>
    </g>
   </g>
   <g id="text_23">
    <!-- What the same air temperature feels like at different humidity -->
    <g style="fill: #1b1b1b" transform="translate(51.008281 22.378359) scale(0.105 -0.105)">
     <defs>
      <path id="DejaVuSerif-57" d="M 4878 0 
L 4366 0 
L 3297 3794 
L 2228 0 
L 1716 0 
L 494 4331 
L 31 4331 
L 31 4666 
L 1734 4666 
L 1734 4331 
L 1153 4331 
L 2125 884 
L 3188 4666 
L 3694 4666 
L 4775 844 
L 5753 4331 
L 5216 4331 
L 5216 4666 
L 6559 4666 
L 6559 4331 
L 6100 4331 
L 4878 0 
z
" transform="scale(0.015625)"/>
      <path id="DejaVuSerif-73" d="M 359 184 
L 359 959 
L 691 959 
Q 703 588 923 403 
Q 1144 219 1575 219 
Q 1963 219 2166 364 
Q 2369 509 2369 788 
Q 2369 1006 2220 1140 
Q 2072 1275 1594 1428 
L 1178 1569 
Q 750 1706 558 1912 
Q 366 2119 366 2438 
Q 366 2894 700 3153 
Q 1034 3413 1625 3413 
Q 1888 3413 2178 3344 
Q 2469 3275 2778 3144 
L 2778 2419 
L 2447 2419 
Q 2434 2741 2221 2922 
Q 2009 3103 1644 3103 
Q 1281 3103 1095 2975 
Q 909 2847 909 2591 
Q 909 2381 1050 2254 
Q 1191 2128 1613 1997 
L 2069 1856 
Q 2541 1709 2748 1489 
Q 2956 1269 2956 922 
Q 2956 450 2595 179 
Q 2234 -91 1600 -91 
Q 1278 -91 972 -22 
Q 666 47 359 184 
z
" transform="scale(0.015625)"/>
      <path id="DejaVuSerif-66" d="M 2753 4078 
L 2450 4078 
Q 2447 4313 2317 4434 
Q 2188 4556 1941 4556 
Q 1619 4556 1487 4379 
Q 1356 4203 1356 3750 
L 1356 3322 
L 2284 3322 
L 2284 2988 
L 1356 2988 
L 1356 331 
L 2094 331 
L 2094 0 
L 231 0 
L 231 331 
L 781 331 
L 781 2988 
L 231 2988 
L 231 3322 
L 781 3322 
L 781 3738 
Q 781 4294 1070 4578 
Q 1359 4863 1919 4863 
Q 2128 4863 2337 4825 
Q 2547 4788 2753 4709 
L 2753 4078 
z
" transform="scale(0.015625)"/>
      <path id="DejaVuSerif-6b" d="M 1831 0 
L 219 0 
L 219 331 
L 738 331 
L 738 4531 
L 184 4531 
L 184 4863 
L 1313 4863 
L 1313 1697 
L 2713 2988 
L 2234 2988 
L 2234 3322 
L 3738 3322 
L 3738 2988 
L 3169 2988 
L 2181 2075 
L 3444 331 
L 3922 331 
L 3922 0 
L 2284 0 
L 2284 331 
L 2759 331 
L 1766 1697 
L 1313 1275 
L 1313 331 
L 1831 331 
L 1831 0 
z
" transform="scale(0.015625)"/>
      <path id="DejaVuSerif-6e" d="M 263 0 
L 263 331 
L 781 331 
L 781 2988 
L 231 2988 
L 231 3322 
L 1356 3322 
L 1356 2731 
Q 1516 3069 1770 3241 
Q 2025 3413 2363 3413 
Q 2913 3413 3172 3097 
Q 3431 2781 3431 2113 
L 3431 331 
L 3944 331 
L 3944 0 
L 2356 0 
L 2356 331 
L 2853 331 
L 2853 1931 
Q 2853 2541 2703 2767 
Q 2553 2994 2175 2994 
Q 1775 2994 1565 2701 
Q 1356 2409 1356 1850 
L 1356 331 
L 1856 331 
L 1856 0 
L 263 0 
z
" transform="scale(0.015625)"/>
     </defs>
     <use xlink:href="#DejaVuSerif-57"/>
     <use xlink:href="#DejaVuSerif-68" transform="translate(102.783203 0)"/>
     <use xlink:href="#DejaVuSerif-61" transform="translate(167.1875 0)"/>
     <use xlink:href="#DejaVuSerif-74" transform="translate(226.806641 0)"/>
     <use xlink:href="#DejaVuSerif-20" transform="translate(266.992188 0)"/>
     <use xlink:href="#DejaVuSerif-74" transform="translate(298.779297 0)"/>
     <use xlink:href="#DejaVuSerif-68" transform="translate(338.964844 0)"/>
     <use xlink:href="#DejaVuSerif-65" transform="translate(403.369141 0)"/>
     <use xlink:href="#DejaVuSerif-20" transform="translate(462.548828 0)"/>
     <use xlink:href="#DejaVuSerif-73" transform="translate(494.335938 0)"/>
     <use xlink:href="#DejaVuSerif-61" transform="translate(545.654297 0)"/>
     <use xlink:href="#DejaVuSerif-6d" transform="translate(605.273438 0)"/>
     <use xlink:href="#DejaVuSerif-65" transform="translate(700.097656 0)"/>
     <use xlink:href="#DejaVuSerif-20" transform="translate(759.277344 0)"/>
     <use xlink:href="#DejaVuSerif-61" transform="translate(791.064453 0)"/>
     <use xlink:href="#DejaVuSerif-69" transform="translate(850.683594 0)"/>
     <use xlink:href="#DejaVuSerif-72" transform="translate(882.666016 0)"/>
     <use xlink:href="#DejaVuSerif-20" transform="translate(930.46875 0)"/>
     <use xlink:href="#DejaVuSerif-74" transform="translate(962.255859 0)"/>
     <use xlink:href="#DejaVuSerif-65" transform="translate(1002.441406 0)"/>
     <use xlink:href="#DejaVuSerif-6d" transform="translate(1061.621094 0)"/>
     <use xlink:href="#DejaVuSerif-70" transform="translate(1156.445312 0)"/>
     <use xlink:href="#DejaVuSerif-65" transform="translate(1220.458984 0)"/>
     <use xlink:href="#DejaVuSerif-72" transform="translate(1279.638672 0)"/>
     <use xlink:href="#DejaVuSerif-61" transform="translate(1327.441406 0)"/>
     <use xlink:href="#DejaVuSerif-74" transform="translate(1387.060547 0)"/>
     <use xlink:href="#DejaVuSerif-75" transform="translate(1427.246094 0)"/>
     <use xlink:href="#DejaVuSerif-72" transform="translate(1491.650391 0)"/>
     <use xlink:href="#DejaVuSerif-65" transform="translate(1539.453125 0)"/>
     <use xlink:href="#DejaVuSerif-20" transform="translate(1598.632812 0)"/>
     <use xlink:href="#DejaVuSerif-66" transform="translate(1630.419922 0)"/>
     <use xlink:href="#DejaVuSerif-65" transform="translate(1667.431641 0)"/>
     <use xlink:href="#DejaVuSerif-65" transform="translate(1726.611328 0)"/>
     <use xlink:href="#DejaVuSerif-6c" transform="translate(1785.791016 0)"/>
     <use xlink:href="#DejaVuSerif-73" transform="translate(1817.773438 0)"/>
     <use xlink:href="#DejaVuSerif-20" transform="translate(1869.091797 0)"/>
     <use xlink:href="#DejaVuSerif-6c" transform="translate(1900.878906 0)"/>
     <use xlink:href="#DejaVuSerif-69" transform="translate(1932.861328 0)"/>
     <use xlink:href="#DejaVuSerif-6b" transform="translate(1964.84375 0)"/>
     <use xlink:href="#DejaVuSerif-65" transform="translate(2025.439453 0)"/>
     <use xlink:href="#DejaVuSerif-20" transform="translate(2084.619141 0)"/>
     <use xlink:href="#DejaVuSerif-61" transform="translate(2116.40625 0)"/>
     <use xlink:href="#DejaVuSerif-74" transform="translate(2176.025391 0)"/>
     <use xlink:href="#DejaVuSerif-20" transform="translate(2216.210938 0)"/>
     <use xlink:href="#DejaVuSerif-64" transform="translate(2247.998047 0)"/>
     <use xlink:href="#DejaVuSerif-69" transform="translate(2312.011719 0)"/>
     <use xlink:href="#DejaVuSerif-66" transform="translate(2343.994141 0)"/>
     <use xlink:href="#DejaVuSerif-66" transform="translate(2381.005859 0)"/>
     <use xlink:href="#DejaVuSerif-65" transform="translate(2418.017578 0)"/>
     <use xlink:href="#DejaVuSerif-72" transform="translate(2477.197266 0)"/>
     <use xlink:href="#DejaVuSerif-65" transform="translate(2525 0)"/>
     <use xlink:href="#DejaVuSerif-6e" transform="translate(2584.179688 0)"/>
     <use xlink:href="#DejaVuSerif-74" transform="translate(2648.583984 0)"/>
     <use xlink:href="#DejaVuSerif-20" transform="translate(2688.769531 0)"/>
     <use xlink:href="#DejaVuSerif-68" transform="translate(2720.556641 0)"/>
     <use xlink:href="#DejaVuSerif-75" transform="translate(2784.960938 0)"/>
     <use xlink:href="#DejaVuSerif-6d" transform="translate(2849.365234 0)"/>
     <use xlink:href="#DejaVuSerif-69" transform="translate(2944.189453 0)"/>
     <use xlink:href="#DejaVuSerif-64" transform="translate(2976.171875 0)"/>
     <use xlink:href="#DejaVuSerif-69" transform="translate(3040.185547 0)"/>
     <use xlink:href="#DejaVuSerif-74" transform="translate(3072.167969 0)"/>
     <use xlink:href="#DejaVuSerif-79" transform="translate(3112.353516 0)"/>
    </g>
   </g>
   <g id="text_24">
    <g clip-path="url(#p6a92fbb749)">
     <!-- 30 °C -->
     <g style="fill: #3d3a33; opacity: 0.85" transform="translate(118.326785 247.349733) rotate(-302.673013) scale(0.075 -0.075)">
      <use xlink:href="#DejaVuSerif-33"/>
      <use xlink:href="#DejaVuSerif-30" transform="translate(63.623047 0)"/>
      <use xlink:href="#DejaVuSerif-20" transform="translate(127.246094 0)"/>
      <use xlink:href="#DejaVuSerif-b0" transform="translate(159.033203 0)"/>
      <use xlink:href="#DejaVuSerif-43" transform="translate(209.033203 0)"/>
     </g>
    </g>
   </g>
   <g id="text_25">
    <g clip-path="url(#p6a92fbb749)">
     <!-- 35 °C -->
     <g style="fill: #3d3a33; opacity: 0.85" transform="translate(80.315224 65.798705) rotate(-295.821636) scale(0.075 -0.075)">
      <use xlink:href="#DejaVuSerif-33"/>
      <use xlink:href="#DejaVuSerif-35" transform="translate(63.623047 0)"/>
      <use xlink:href="#DejaVuSerif-20" transform="translate(127.246094 0)"/>
      <use xlink:href="#DejaVuSerif-b0" transform="translate(159.033203 0)"/>
      <use xlink:href="#DejaVuSerif-43" transform="translate(209.033203 0)"/>
     </g>
    </g>
   </g>
   <g id="text_26">
    <g clip-path="url(#p6a92fbb749)">
     <!-- 40 °C -->
     <g style="fill: #3d3a33; opacity: 0.85" transform="translate(192.183253 168.072926) rotate(-310.100642) scale(0.075 -0.075)">
      <use xlink:href="#DejaVuSerif-34"/>
      <use xlink:href="#DejaVuSerif-30" transform="translate(63.623047 0)"/>
      <use xlink:href="#DejaVuSerif-20" transform="translate(127.246094 0)"/>
      <use xlink:href="#DejaVuSerif-b0" transform="translate(159.033203 0)"/>
      <use xlink:href="#DejaVuSerif-43" transform="translate(209.033203 0)"/>
     </g>
    </g>
   </g>
   <g id="text_27">
    <g clip-path="url(#p6a92fbb749)">
     <!-- 45 °C -->
     <g style="fill: #3d3a33; opacity: 0.85" transform="translate(232.704734 163.320727) rotate(-313.143857) scale(0.075 -0.075)">
      <use xlink:href="#DejaVuSerif-34"/>
      <use xlink:href="#DejaVuSerif-35" transform="translate(63.623047 0)"/>
      <use xlink:href="#DejaVuSerif-20" transform="translate(127.246094 0)"/>
      <use xlink:href="#DejaVuSerif-b0" transform="translate(159.033203 0)"/>
      <use xlink:href="#DejaVuSerif-43" transform="translate(209.033203 0)"/>
     </g>
    </g>
   </g>
   <g id="text_28">
    <g clip-path="url(#p6a92fbb749)">
     <!-- 50 °C -->
     <g style="fill: #3d3a33; opacity: 0.85" transform="translate(259.738657 151.194687) rotate(-314.830665) scale(0.075 -0.075)">
      <use xlink:href="#DejaVuSerif-35"/>
      <use xlink:href="#DejaVuSerif-30" transform="translate(63.623047 0)"/>
      <use xlink:href="#DejaVuSerif-20" transform="translate(127.246094 0)"/>
      <use xlink:href="#DejaVuSerif-b0" transform="translate(159.033203 0)"/>
      <use xlink:href="#DejaVuSerif-43" transform="translate(209.033203 0)"/>
     </g>
    </g>
   </g>
   <g id="text_29">
    <g clip-path="url(#p6a92fbb749)">
     <!-- 55 °C -->
     <g style="fill: #3d3a33; opacity: 0.85" transform="translate(292.545011 149.011108) rotate(-316.681433) scale(0.075 -0.075)">
      <use xlink:href="#DejaVuSerif-35"/>
      <use xlink:href="#DejaVuSerif-35" transform="translate(63.623047 0)"/>
      <use xlink:href="#DejaVuSerif-20" transform="translate(127.246094 0)"/>
      <use xlink:href="#DejaVuSerif-b0" transform="translate(159.033203 0)"/>
      <use xlink:href="#DejaVuSerif-43" transform="translate(209.033203 0)"/>
     </g>
    </g>
   </g>
   <g id="text_30">
    <g clip-path="url(#p6a92fbb749)">
     <!-- 60 °C -->
     <g style="fill: #3d3a33; opacity: 0.85" transform="translate(325.241186 149.346304) rotate(-318.743524) scale(0.075 -0.075)">
      <use xlink:href="#DejaVuSerif-36"/>
      <use xlink:href="#DejaVuSerif-30" transform="translate(63.623047 0)"/>
      <use xlink:href="#DejaVuSerif-20" transform="translate(127.246094 0)"/>
      <use xlink:href="#DejaVuSerif-b0" transform="translate(159.033203 0)"/>
      <use xlink:href="#DejaVuSerif-43" transform="translate(209.033203 0)"/>
     </g>
    </g>
   </g>
   <g id="line2d_19">
    <defs>
     <path id="m290bd97750" d="M 0 3 
C 0.795609 3 1.55874 2.683901 2.12132 2.12132 
C 2.683901 1.55874 3 0.795609 3 0 
C 3 -0.795609 2.683901 -1.55874 2.12132 -2.12132 
C 1.55874 -2.683901 0.795609 -3 0 -3 
C -0.795609 -3 -1.55874 -2.683901 -2.12132 -2.12132 
C -2.683901 -1.55874 -3 -0.795609 -3 0 
C -3 0.795609 -2.683901 1.55874 -2.12132 2.12132 
C -1.55874 2.683901 -0.795609 3 0 3 
z
" style="stroke: #1b1b1b"/>
    </defs>
    <g clip-path="url(#p6a92fbb749)">
     <use xlink:href="#m290bd97750" x="268.75565" y="315.482804" style="fill: #1b1b1b; stroke: #1b1b1b"/>
    </g>
   </g>
   <g id="line2d_20">
    <g clip-path="url(#p6a92fbb749)">
     <use xlink:href="#m290bd97750" x="268.75565" y="134.772804" style="fill: #1b1b1b; stroke: #1b1b1b"/>
    </g>
   </g>
  </g>
 </g>
 <defs>
  <clipPath id="p6a92fbb749">
   <rect x="51.008281" y="34.378359" width="517.15" height="361.42"/>
  </clipPath>
 </defs>
</svg>
