<?xml version="1.0" encoding="utf-8" standalone="no"?>
<!DOCTYPE svg PUBLIC "-//W3C//DTD SVG 1.1//EN"
  "http://www.w3.org/Graphics/SVG/1.1/DTD/svg11.dtd">
<svg xmlns:xlink="http://www.w3.org/1999/xlink" width="582.498281pt" height="439.151172pt" viewBox="0 0 582.498281 439.151172" xmlns="http://www.w3.org/2000/svg" version="1.1">
 <metadata>
  <rdf:RDF xmlns:dc="http://purl.org/dc/elements/1.1/" xmlns:cc="http://creativecommons.org/ns#" xmlns:rdf="http://www.w3.org/1999/02/22-rdf-syntax-ns#">
   <cc:Work>
    <dc:type rdf:resource="http://purl.org/dc/dcmitype/StillImage"/>
    <dc:date>2026-05-27T14:14:42.567575</dc:date>
    <dc:format>image/svg+xml</dc:format>
    <dc:creator>
     <cc:Agent>
      <dc:title>Matplotlib v3.10.9, https://matplotlib.org/</dc:title>
     </cc:Agent>
    </dc:creator>
   </cc:Work>
  </rdf:RDF>
 </metadata>
 <defs>
  <style type="text/css">*{stroke-linejoin: round; stroke-linecap: butt}</style>
 </defs>
 <g id="figure_1">
  <g id="patch_1">
   <path d="M 0 439.151172 
L 582.498281 439.151172 
L 582.498281 0 
L 0 0 
z
" style="fill: #f5efdf"/>
  </g>
  <g id="axes_1">
   <g id="patch_2">
    <path d="M 51.008281 395.798359 
L 560.463281 395.798359 
L 560.463281 34.378359 
L 51.008281 34.378359 
z
" style="fill: #f5efdf"/>
   </g>
   <g id="matplotlib.axis_1">
    <g id="xtick_1">
     <g id="line2d_1">
      <defs>
       <path id="ma20d07d11b" d="M 0 0 
L 0 3 
" style="stroke: #8a8275; stroke-width: 0.8"/>
      </defs>
      <g>
       <use xlink:href="#ma20d07d11b" x="51.008281" y="395.798359" style="fill: #8a8275; stroke: #8a8275; stroke-width: 0.8"/>
      </g>
     </g>
     <g id="text_1">
      <!-- 80 -->
      <g style="fill: #3d3a33" transform="translate(45.918281 408.377109) scale(0.08 -0.08)">
       <defs>
        <path id="DejaVuSerif-38" d="M 2981 1275 
Q 2981 1775 2732 2051 
Q 2484 2328 2034 2328 
Q 1584 2328 1336 2051 
Q 1088 1775 1088 1275 
Q 1088 772 1336 495 
Q 1584 219 2034 219 
Q 2484 219 2732 495 
Q 2981 772 2981 1275 
z
M 2853 3541 
Q 2853 3966 2637 4203 
Q 2422 4441 2034 4441 
Q 1650 4441 1433 4203 
Q 1216 3966 1216 3541 
Q 1216 3113 1433 2875 
Q 1650 2638 2034 2638 
Q 2422 2638 2637 2875 
Q 2853 3113 2853 3541 
z
M 2516 2484 
Q 3047 2413 3344 2092 
Q 3641 1772 3641 1275 
Q 3641 619 3225 264 
Q 2809 -91 2034 -91 
Q 1263 -91 845 264 
Q 428 619 428 1275 
Q 428 1772 725 2092 
Q 1022 2413 1556 2484 
Q 1084 2569 832 2842 
Q 581 3116 581 3541 
Q 581 4103 968 4426 
Q 1356 4750 2034 4750 
Q 2713 4750 3100 4426 
Q 3488 4103 3488 3541 
Q 3488 3116 3236 2842 
Q 2984 2569 2516 2484 
z
" transform="scale(0.015625)"/>
        <path id="DejaVuSerif-30" d="M 2034 219 
Q 2513 219 2750 744 
Q 2988 1269 2988 2328 
Q 2988 3391 2750 3916 
Q 2513 4441 2034 4441 
Q 1556 4441 1318 3916 
Q 1081 3391 1081 2328 
Q 1081 1269 1318 744 
Q 1556 219 2034 219 
z
M 2034 -91 
Q 1275 -91 848 546 
Q 422 1184 422 2328 
Q 422 3475 848 4112 
Q 1275 4750 2034 4750 
Q 2797 4750 3222 4112 
Q 3647 3475 3647 2328 
Q 3647 1184 3222 546 
Q 2797 -91 2034 -91 
z
" transform="scale(0.015625)"/>
       </defs>
       <use xlink:href="#DejaVuSerif-38"/>
       <use xlink:href="#DejaVuSerif-30" transform="translate(63.623047 0)"/>
      </g>
     </g>
    </g>
    <g id="xtick_2">
     <g id="line2d_2">
      <g>
       <use xlink:href="#ma20d07d11b" x="123.787567" y="395.798359" style="fill: #8a8275; stroke: #8a8275; stroke-width: 0.8"/>
      </g>
     </g>
     <g id="text_2">
      <!-- 85 -->
      <g style="fill: #3d3a33" transform="translate(118.697567 408.377109) scale(0.08 -0.08)">
       <defs>
        <path id="DejaVuSerif-35" d="M 3219 4666 
L 3219 4153 
L 1081 4153 
L 1081 2816 
Q 1244 2928 1461 2984 
Q 1678 3041 1947 3041 
Q 2703 3041 3140 2622 
Q 3578 2203 3578 1478 
Q 3578 738 3136 323 
Q 2694 -91 1894 -91 
Q 1572 -91 1234 -12 
Q 897 66 544 225 
L 544 1131 
L 897 1131 
Q 925 688 1179 453 
Q 1434 219 1894 219 
Q 2388 219 2653 544 
Q 2919 869 2919 1478 
Q 2919 2084 2655 2407 
Q 2391 2731 1894 2731 
Q 1613 2731 1398 2631 
Q 1184 2531 1019 2322 
L 750 2322 
L 750 4666 
L 3219 4666 
z
" transform="scale(0.015625)"/>
       </defs>
       <use xlink:href="#DejaVuSerif-38"/>
       <use xlink:href="#DejaVuSerif-35" transform="translate(63.623047 0)"/>
      </g>
     </g>
    </g>
    <g id="xtick_3">
     <g id="line2d_3">
      <g>
       <use xlink:href="#ma20d07d11b" x="196.566853" y="395.798359" style="fill: #8a8275; stroke: #8a8275; stroke-width: 0.8"/>
      </g>
     </g>
     <g id="text_3">
      <!-- 90 -->
      <g style="fill: #3d3a33" transform="translate(191.476853 408.377109) scale(0.08 -0.08)">
       <defs>
        <path id="DejaVuSerif-39" d="M 2994 2091 
Q 2784 1856 2512 1740 
Q 2241 1625 1900 1625 
Q 1206 1625 804 2044 
Q 403 2463 403 3188 
Q 403 3897 839 4323 
Q 1275 4750 2003 4750 
Q 2794 4750 3217 4161 
Q 3641 3572 3641 2478 
Q 3641 1253 3137 581 
Q 2634 -91 1722 -91 
Q 1475 -91 1203 -44 
Q 931 3 647 97 
L 647 872 
L 997 872 
Q 1038 556 1241 387 
Q 1444 219 1784 219 
Q 2391 219 2687 676 
Q 2984 1134 2994 2091 
z
M 1978 4441 
Q 1534 4441 1298 4117 
Q 1063 3794 1063 3188 
Q 1063 2581 1298 2256 
Q 1534 1931 1978 1931 
Q 2422 1931 2658 2245 
Q 2894 2559 2894 3150 
Q 2894 3772 2656 4106 
Q 2419 4441 1978 4441 
z
" transform="scale(0.015625)"/>
       </defs>
       <use xlink:href="#DejaVuSerif-39"/>
       <use xlink:href="#DejaVuSerif-30" transform="translate(63.623047 0)"/>
      </g>
     </g>
    </g>
    <g id="xtick_4">
     <g id="line2d_4">
      <g>
       <use xlink:href="#ma20d07d11b" x="269.346138" y="395.798359" style="fill: #8a8275; stroke: #8a8275; stroke-width: 0.8"/>
      </g>
     </g>
     <g id="text_4">
      <!-- 95 -->
      <g style="fill: #3d3a33" transform="translate(264.256138 408.377109) scale(0.08 -0.08)">
       <use xlink:href="#DejaVuSerif-39"/>
       <use xlink:href="#DejaVuSerif-35" transform="translate(63.623047 0)"/>
      </g>
     </g>
    </g>
    <g id="xtick_5">
     <g id="line2d_5">
      <g>
       <use xlink:href="#ma20d07d11b" x="342.125424" y="395.798359" style="fill: #8a8275; stroke: #8a8275; stroke-width: 0.8"/>
      </g>
     </g>
     <g id="text_5">
      <!-- 100 -->
      <g style="fill: #3d3a33" transform="translate(334.490424 408.377109) scale(0.08 -0.08)">
       <defs>
        <path id="DejaVuSerif-31" d="M 909 0 
L 909 331 
L 1722 331 
L 1722 4213 
L 781 3603 
L 781 4013 
L 1919 4750 
L 2350 4750 
L 2350 331 
L 3163 331 
L 3163 0 
L 909 0 
z
" transform="scale(0.015625)"/>
       </defs>
       <use xlink:href="#DejaVuSerif-31"/>
       <use xlink:href="#DejaVuSerif-30" transform="translate(63.623047 0)"/>
       <use xlink:href="#DejaVuSerif-30" transform="translate(127.246094 0)"/>
      </g>
     </g>
    </g>
    <g id="xtick_6">
     <g id="line2d_6">
      <g>
       <use xlink:href="#ma20d07d11b" x="414.90471" y="395.798359" style="fill: #8a8275; stroke: #8a8275; stroke-width: 0.8"/>
      </g>
     </g>
     <g id="text_6">
      <!-- 105 -->
      <g style="fill: #3d3a33" transform="translate(407.26971 408.377109) scale(0.08 -0.08)">
       <use xlink:href="#DejaVuSerif-31"/>
       <use xlink:href="#DejaVuSerif-30" transform="translate(63.623047 0)"/>
       <use xlink:href="#DejaVuSerif-35" transform="translate(127.246094 0)"/>
      </g>
     </g>
    </g>
    <g id="xtick_7">
     <g id="line2d_7">
      <g>
       <use xlink:href="#ma20d07d11b" x="487.683996" y="395.798359" style="fill: #8a8275; stroke: #8a8275; stroke-width: 0.8"/>
      </g>
     </g>
     <g id="text_7">
      <!-- 110 -->
      <g style="fill: #3d3a33" transform="translate(480.048996 408.377109) scale(0.08 -0.08)">
       <use xlink:href="#DejaVuSerif-31"/>
       <use xlink:href="#DejaVuSerif-31" transform="translate(63.623047 0)"/>
       <use xlink:href="#DejaVuSerif-30" transform="translate(127.246094 0)"/>
      </g>
     </g>
    </g>
    <g id="xtick_8">
     <g id="line2d_8">
      <g>
       <use xlink:href="#ma20d07d11b" x="560.463281" y="395.798359" style="fill: #8a8275; stroke: #8a8275; stroke-width: 0.8"/>
      </g>
     </g>
     <g id="text_8">
      <!-- 115 -->
      <g style="fill: #3d3a33" transform="translate(552.828281 408.377109) scale(0.08 -0.08)">
       <use xlink:href="#DejaVuSerif-31"/>
       <use xlink:href="#DejaVuSerif-31" transform="translate(63.623047 0)"/>
       <use xlink:href="#DejaVuSerif-35" transform="translate(127.246094 0)"/>
      </g>
     </g>
    </g>
    <g id="text_9">
     <!-- Air temperature (°F) -->
     <g style="fill: #3d3a33" transform="translate(258.513203 422.879453) scale(0.09 -0.09)">
      <defs>
       <path id="DejaVuSerif-41" d="M 1281 1691 
L 2994 1691 
L 2138 3909 
L 1281 1691 
z
M -38 0 
L -38 331 
L 372 331 
L 2034 4666 
L 2559 4666 
L 4225 331 
L 4684 331 
L 4684 0 
L 2988 0 
L 2988 331 
L 3506 331 
L 3116 1356 
L 1153 1356 
L 763 331 
L 1275 331 
L 1275 0 
L -38 0 
z
" transform="scale(0.015625)"/>
       <path id="DejaVuSerif-69" d="M 622 4353 
Q 622 4497 726 4603 
Q 831 4709 978 4709 
Q 1122 4709 1226 4603 
Q 1331 4497 1331 4353 
Q 1331 4206 1228 4103 
Q 1125 4000 978 4000 
Q 831 4000 726 4103 
Q 622 4206 622 4353 
z
M 1356 331 
L 1900 331 
L 1900 0 
L 231 0 
L 231 331 
L 781 331 
L 781 2988 
L 231 2988 
L 231 3322 
L 1356 3322 
L 1356 331 
z
" transform="scale(0.015625)"/>
       <path id="DejaVuSerif-72" d="M 3059 3328 
L 3059 2497 
L 2728 2497 
Q 2713 2744 2591 2866 
Q 2469 2988 2234 2988 
Q 1809 2988 1582 2694 
Q 1356 2400 1356 1850 
L 1356 331 
L 2022 331 
L 2022 0 
L 263 0 
L 263 331 
L 781 331 
L 781 2994 
L 231 2994 
L 231 3322 
L 1356 3322 
L 1356 2731 
Q 1525 3078 1790 3245 
Q 2056 3413 2438 3413 
Q 2578 3413 2733 3391 
Q 2888 3369 3059 3328 
z
" transform="scale(0.015625)"/>
       <path id="DejaVuSerif-20" transform="scale(0.015625)"/>
       <path id="DejaVuSerif-74" d="M 691 2988 
L 184 2988 
L 184 3322 
L 691 3322 
L 691 4353 
L 1269 4353 
L 1269 3322 
L 2350 3322 
L 2350 2988 
L 1269 2988 
L 1269 878 
Q 1269 456 1350 337 
Q 1431 219 1650 219 
Q 1875 219 1978 351 
Q 2081 484 2088 781 
L 2522 781 
Q 2497 328 2275 118 
Q 2053 -91 1600 -91 
Q 1103 -91 897 129 
Q 691 350 691 878 
L 691 2988 
z
" transform="scale(0.015625)"/>
       <path id="DejaVuSerif-65" d="M 3469 1600 
L 991 1600 
L 991 1575 
Q 991 903 1244 561 
Q 1497 219 1991 219 
Q 2369 219 2611 417 
Q 2853 616 2950 1006 
L 3413 1006 
Q 3275 459 2904 184 
Q 2534 -91 1931 -91 
Q 1203 -91 761 389 
Q 319 869 319 1663 
Q 319 2450 753 2931 
Q 1188 3413 1894 3413 
Q 2647 3413 3050 2948 
Q 3453 2484 3469 1600 
z
M 2791 1931 
Q 2772 2513 2545 2808 
Q 2319 3103 1894 3103 
Q 1497 3103 1269 2806 
Q 1041 2509 991 1931 
L 2791 1931 
z
" transform="scale(0.015625)"/>
       <path id="DejaVuSerif-6d" d="M 3316 2675 
Q 3481 3041 3739 3227 
Q 3997 3413 4341 3413 
Q 4863 3413 5119 3089 
Q 5375 2766 5375 2113 
L 5375 331 
L 5894 331 
L 5894 0 
L 4300 0 
L 4300 331 
L 4800 331 
L 4800 2047 
Q 4800 2556 4650 2772 
Q 4500 2988 4153 2988 
Q 3769 2988 3567 2697 
Q 3366 2406 3366 1850 
L 3366 331 
L 3866 331 
L 3866 0 
L 2291 0 
L 2291 331 
L 2791 331 
L 2791 2069 
Q 2791 2566 2641 2777 
Q 2491 2988 2144 2988 
Q 1759 2988 1557 2697 
Q 1356 2406 1356 1850 
L 1356 331 
L 1856 331 
L 1856 0 
L 263 0 
L 263 331 
L 781 331 
L 781 2994 
L 231 2994 
L 231 3322 
L 1356 3322 
L 1356 2731 
Q 1516 3063 1762 3238 
Q 2009 3413 2322 3413 
Q 2709 3413 2968 3220 
Q 3228 3028 3316 2675 
z
" transform="scale(0.015625)"/>
       <path id="DejaVuSerif-70" d="M 1313 1825 
L 1313 1497 
Q 1313 897 1542 583 
Q 1772 269 2209 269 
Q 2650 269 2876 622 
Q 3103 975 3103 1663 
Q 3103 2353 2876 2703 
Q 2650 3053 2209 3053 
Q 1772 3053 1542 2737 
Q 1313 2422 1313 1825 
z
M 738 2988 
L 184 2988 
L 184 3322 
L 1313 3322 
L 1313 2803 
Q 1481 3116 1742 3264 
Q 2003 3413 2388 3413 
Q 3000 3413 3387 2928 
Q 3775 2444 3775 1663 
Q 3775 881 3387 395 
Q 3000 -91 2388 -91 
Q 2003 -91 1742 57 
Q 1481 206 1313 519 
L 1313 -997 
L 1856 -997 
L 1856 -1331 
L 184 -1331 
L 184 -997 
L 738 -997 
L 738 2988 
z
" transform="scale(0.015625)"/>
       <path id="DejaVuSerif-61" d="M 2547 1044 
L 2547 1747 
L 1806 1747 
Q 1378 1747 1168 1562 
Q 959 1378 959 997 
Q 959 650 1171 447 
Q 1384 244 1747 244 
Q 2106 244 2326 466 
Q 2547 688 2547 1044 
z
M 3122 2075 
L 3122 331 
L 3634 331 
L 3634 0 
L 2547 0 
L 2547 359 
Q 2356 128 2106 18 
Q 1856 -91 1522 -91 
Q 969 -91 644 203 
Q 319 497 319 997 
Q 319 1513 691 1797 
Q 1063 2081 1741 2081 
L 2547 2081 
L 2547 2309 
Q 2547 2688 2317 2895 
Q 2088 3103 1672 3103 
Q 1328 3103 1125 2947 
Q 922 2791 872 2484 
L 575 2484 
L 575 3156 
Q 875 3284 1158 3348 
Q 1441 3413 1709 3413 
Q 2400 3413 2761 3070 
Q 3122 2728 3122 2075 
z
" transform="scale(0.015625)"/>
       <path id="DejaVuSerif-75" d="M 2266 3322 
L 3341 3322 
L 3341 331 
L 3884 331 
L 3884 0 
L 2766 0 
L 2766 588 
Q 2606 256 2353 82 
Q 2100 -91 1766 -91 
Q 1213 -91 952 223 
Q 691 538 691 1209 
L 691 2988 
L 172 2988 
L 172 3322 
L 1269 3322 
L 1269 1388 
Q 1269 781 1417 556 
Q 1566 331 1947 331 
Q 2347 331 2556 625 
Q 2766 919 2766 1478 
L 2766 2988 
L 2266 2988 
L 2266 3322 
z
" transform="scale(0.015625)"/>
       <path id="DejaVuSerif-28" d="M 2041 -997 
Q 1281 -656 893 83 
Q 506 822 506 1931 
Q 506 3044 893 3783 
Q 1281 4522 2041 4863 
L 2041 4556 
Q 1559 4225 1350 3623 
Q 1141 3022 1141 1931 
Q 1141 844 1350 242 
Q 1559 -359 2041 -691 
L 2041 -997 
z
" transform="scale(0.015625)"/>
       <path id="DejaVuSerif-b0" d="M 1600 4319 
Q 1363 4319 1200 4155 
Q 1038 3991 1038 3750 
Q 1038 3513 1198 3353 
Q 1359 3194 1600 3194 
Q 1838 3194 2000 3355 
Q 2163 3516 2163 3750 
Q 2163 3984 1997 4151 
Q 1831 4319 1600 4319 
z
M 1600 4750 
Q 1800 4750 1984 4673 
Q 2169 4597 2303 4453 
Q 2447 4313 2519 4134 
Q 2591 3956 2591 3750 
Q 2591 3338 2302 3052 
Q 2013 2766 1594 2766 
Q 1172 2766 890 3047 
Q 609 3328 609 3750 
Q 609 4169 896 4459 
Q 1184 4750 1600 4750 
z
" transform="scale(0.015625)"/>
       <path id="DejaVuSerif-46" d="M 353 0 
L 353 331 
L 947 331 
L 947 4331 
L 353 4331 
L 353 4666 
L 4172 4666 
L 4172 3628 
L 3788 3628 
L 3788 4281 
L 1581 4281 
L 1581 2719 
L 3175 2719 
L 3175 3303 
L 3559 3303 
L 3559 1753 
L 3175 1753 
L 3175 2338 
L 1581 2338 
L 1581 331 
L 2328 331 
L 2328 0 
L 353 0 
z
" transform="scale(0.015625)"/>
       <path id="DejaVuSerif-29" d="M 453 -997 
L 453 -691 
Q 934 -359 1145 242 
Q 1356 844 1356 1931 
Q 1356 3022 1145 3623 
Q 934 4225 453 4556 
L 453 4863 
Q 1216 4522 1603 3783 
Q 1991 3044 1991 1931 
Q 1991 822 1603 83 
Q 1216 -656 453 -997 
z
" transform="scale(0.015625)"/>
      </defs>
      <use xlink:href="#DejaVuSerif-41"/>
      <use xlink:href="#DejaVuSerif-69" transform="translate(72.216797 0)"/>
      <use xlink:href="#DejaVuSerif-72" transform="translate(104.199219 0)"/>
      <use xlink:href="#DejaVuSerif-20" transform="translate(152.001953 0)"/>
      <use xlink:href="#DejaVuSerif-74" transform="translate(183.789062 0)"/>
      <use xlink:href="#DejaVuSerif-65" transform="translate(223.974609 0)"/>
      <use xlink:href="#DejaVuSerif-6d" transform="translate(283.154297 0)"/>
      <use xlink:href="#DejaVuSerif-70" transform="translate(377.978516 0)"/>
      <use xlink:href="#DejaVuSerif-65" transform="translate(441.992188 0)"/>
      <use xlink:href="#DejaVuSerif-72" transform="translate(501.171875 0)"/>
      <use xlink:href="#DejaVuSerif-61" transform="translate(548.974609 0)"/>
      <use xlink:href="#DejaVuSerif-74" transform="translate(608.59375 0)"/>
      <use xlink:href="#DejaVuSerif-75" transform="translate(648.779297 0)"/>
      <use xlink:href="#DejaVuSerif-72" transform="translate(713.183594 0)"/>
      <use xlink:href="#DejaVuSerif-65" transform="translate(760.986328 0)"/>
      <use xlink:href="#DejaVuSerif-20" transform="translate(820.166016 0)"/>
      <use xlink:href="#DejaVuSerif-28" transform="translate(851.953125 0)"/>
      <use xlink:href="#DejaVuSerif-b0" transform="translate(890.966797 0)"/>
      <use xlink:href="#DejaVuSerif-46" transform="translate(940.966797 0)"/>
      <use xlink:href="#DejaVuSerif-29" transform="translate(1010.351562 0)"/>
     </g>
    </g>
   </g>
   <g id="matplotlib.axis_2">
    <g id="ytick_1">
     <g id="line2d_9">
      <defs>
       <path id="m8d228194c6" d="M 0 0 
L -3 0 
" style="stroke: #8a8275; stroke-width: 0.8"/>
      </defs>
      <g>
       <use xlink:href="#m8d228194c6" x="51.008281" y="395.798359" style="fill: #8a8275; stroke: #8a8275; stroke-width: 0.8"/>
      </g>
     </g>
     <g id="text_10">
      <!-- 10 -->
      <g style="fill: #3d3a33" transform="translate(34.328281 398.837734) scale(0.08 -0.08)">
       <use xlink:href="#DejaVuSerif-31"/>
       <use xlink:href="#DejaVuSerif-30" transform="translate(63.623047 0)"/>
      </g>
     </g>
    </g>
    <g id="ytick_2">
     <g id="line2d_10">
      <g>
       <use xlink:href="#m8d228194c6" x="51.008281" y="355.640582" style="fill: #8a8275; stroke: #8a8275; stroke-width: 0.8"/>
      </g>
     </g>
     <g id="text_11">
      <!-- 20 -->
      <g style="fill: #3d3a33" transform="translate(34.328281 358.679957) scale(0.08 -0.08)">
       <defs>
        <path id="DejaVuSerif-32" d="M 819 3553 
L 469 3553 
L 469 4384 
Q 803 4563 1142 4656 
Q 1481 4750 1806 4750 
Q 2534 4750 2956 4397 
Q 3378 4044 3378 3438 
Q 3378 2753 2422 1800 
Q 2347 1728 2309 1691 
L 1131 513 
L 3078 513 
L 3078 1088 
L 3444 1088 
L 3444 0 
L 434 0 
L 434 341 
L 1850 1753 
Q 2319 2222 2519 2614 
Q 2719 3006 2719 3438 
Q 2719 3909 2473 4175 
Q 2228 4441 1797 4441 
Q 1350 4441 1106 4219 
Q 863 3997 819 3553 
z
" transform="scale(0.015625)"/>
       </defs>
       <use xlink:href="#DejaVuSerif-32"/>
       <use xlink:href="#DejaVuSerif-30" transform="translate(63.623047 0)"/>
      </g>
     </g>
    </g>
    <g id="ytick_3">
     <g id="line2d_11">
      <g>
       <use xlink:href="#m8d228194c6" x="51.008281" y="315.482804" style="fill: #8a8275; stroke: #8a8275; stroke-width: 0.8"/>
      </g>
     </g>
     <g id="text_12">
      <!-- 30 -->
      <g style="fill: #3d3a33" transform="translate(34.328281 318.522179) scale(0.08 -0.08)">
       <defs>
        <path id="DejaVuSerif-33" d="M 622 4469 
Q 988 4606 1323 4678 
Q 1659 4750 1953 4750 
Q 2638 4750 3022 4454 
Q 3406 4159 3406 3634 
Q 3406 3213 3140 2930 
Q 2875 2647 2388 2547 
Q 2963 2466 3280 2130 
Q 3597 1794 3597 1259 
Q 3597 606 3158 257 
Q 2719 -91 1894 -91 
Q 1528 -91 1179 -12 
Q 831 66 488 225 
L 488 1131 
L 838 1131 
Q 869 681 1141 450 
Q 1413 219 1906 219 
Q 2384 219 2661 495 
Q 2938 772 2938 1253 
Q 2938 1803 2653 2086 
Q 2369 2369 1819 2369 
L 1522 2369 
L 1522 2688 
L 1678 2688 
Q 2225 2688 2498 2914 
Q 2772 3141 2772 3597 
Q 2772 4006 2547 4223 
Q 2322 4441 1900 4441 
Q 1478 4441 1245 4241 
Q 1013 4041 972 3647 
L 622 3647 
L 622 4469 
z
" transform="scale(0.015625)"/>
       </defs>
       <use xlink:href="#DejaVuSerif-33"/>
       <use xlink:href="#DejaVuSerif-30" transform="translate(63.623047 0)"/>
      </g>
     </g>
    </g>
    <g id="ytick_4">
     <g id="line2d_12">
      <g>
       <use xlink:href="#m8d228194c6" x="51.008281" y="275.325026" style="fill: #8a8275; stroke: #8a8275; stroke-width: 0.8"/>
      </g>
     </g>
     <g id="text_13">
      <!-- 40 -->
      <g style="fill: #3d3a33" transform="translate(34.328281 278.364401) scale(0.08 -0.08)">
       <defs>
        <path id="DejaVuSerif-34" d="M 2234 1581 
L 2234 4063 
L 641 1581 
L 2234 1581 
z
M 3609 0 
L 1484 0 
L 1484 331 
L 2234 331 
L 2234 1247 
L 197 1247 
L 197 1588 
L 2241 4750 
L 2859 4750 
L 2859 1581 
L 3750 1581 
L 3750 1247 
L 2859 1247 
L 2859 331 
L 3609 331 
L 3609 0 
z
" transform="scale(0.015625)"/>
       </defs>
       <use xlink:href="#DejaVuSerif-34"/>
       <use xlink:href="#DejaVuSerif-30" transform="translate(63.623047 0)"/>
      </g>
     </g>
    </g>
    <g id="ytick_5">
     <g id="line2d_13">
      <g>
       <use xlink:href="#m8d228194c6" x="51.008281" y="235.167248" style="fill: #8a8275; stroke: #8a8275; stroke-width: 0.8"/>
      </g>
     </g>
     <g id="text_14">
      <!-- 50 -->
      <g style="fill: #3d3a33" transform="translate(34.328281 238.206623) scale(0.08 -0.08)">
       <use xlink:href="#DejaVuSerif-35"/>
       <use xlink:href="#DejaVuSerif-30" transform="translate(63.623047 0)"/>
      </g>
     </g>
    </g>
    <g id="ytick_6">
     <g id="line2d_14">
      <g>
       <use xlink:href="#m8d228194c6" x="51.008281" y="195.00947" style="fill: #8a8275; stroke: #8a8275; stroke-width: 0.8"/>
      </g>
     </g>
     <g id="text_15">
      <!-- 60 -->
      <g style="fill: #3d3a33" transform="translate(34.328281 198.048845) scale(0.08 -0.08)">
       <defs>
        <path id="DejaVuSerif-36" d="M 2094 219 
Q 2534 219 2771 542 
Q 3009 866 3009 1472 
Q 3009 2078 2771 2401 
Q 2534 2725 2094 2725 
Q 1647 2725 1412 2412 
Q 1178 2100 1178 1509 
Q 1178 888 1415 553 
Q 1653 219 2094 219 
z
M 1075 2569 
Q 1288 2803 1556 2918 
Q 1825 3034 2163 3034 
Q 2859 3034 3264 2615 
Q 3669 2197 3669 1472 
Q 3669 763 3233 336 
Q 2797 -91 2069 -91 
Q 1278 -91 853 498 
Q 428 1088 428 2181 
Q 428 3406 931 4078 
Q 1434 4750 2350 4750 
Q 2597 4750 2869 4703 
Q 3141 4656 3425 4563 
L 3425 3794 
L 3072 3794 
Q 3034 4109 2831 4275 
Q 2628 4441 2284 4441 
Q 1678 4441 1381 3981 
Q 1084 3522 1075 2569 
z
" transform="scale(0.015625)"/>
       </defs>
       <use xlink:href="#DejaVuSerif-36"/>
       <use xlink:href="#DejaVuSerif-30" transform="translate(63.623047 0)"/>
      </g>
     </g>
    </g>
    <g id="ytick_7">
     <g id="line2d_15">
      <g>
       <use xlink:href="#m8d228194c6" x="51.008281" y="154.851693" style="fill: #8a8275; stroke: #8a8275; stroke-width: 0.8"/>
      </g>
     </g>
     <g id="text_16">
      <!-- 70 -->
      <g style="fill: #3d3a33" transform="translate(34.328281 157.891068) scale(0.08 -0.08)">
       <defs>
        <path id="DejaVuSerif-37" d="M 3609 4347 
L 1784 0 
L 1319 0 
L 3059 4153 
L 903 4153 
L 903 3578 
L 538 3578 
L 538 4666 
L 3609 4666 
L 3609 4347 
z
" transform="scale(0.015625)"/>
       </defs>
       <use xlink:href="#DejaVuSerif-37"/>
       <use xlink:href="#DejaVuSerif-30" transform="translate(63.623047 0)"/>
      </g>
     </g>
    </g>
    <g id="ytick_8">
     <g id="line2d_16">
      <g>
       <use xlink:href="#m8d228194c6" x="51.008281" y="114.693915" style="fill: #8a8275; stroke: #8a8275; stroke-width: 0.8"/>
      </g>
     </g>
     <g id="text_17">
      <!-- 80 -->
      <g style="fill: #3d3a33" transform="translate(34.328281 117.73329) scale(0.08 -0.08)">
       <use xlink:href="#DejaVuSerif-38"/>
       <use xlink:href="#DejaVuSerif-30" transform="translate(63.623047 0)"/>
      </g>
     </g>
    </g>
    <g id="ytick_9">
     <g id="line2d_17">
      <g>
       <use xlink:href="#m8d228194c6" x="51.008281" y="74.536137" style="fill: #8a8275; stroke: #8a8275; stroke-width: 0.8"/>
      </g>
     </g>
     <g id="text_18">
      <!-- 90 -->
      <g style="fill: #3d3a33" transform="translate(34.328281 77.575512) scale(0.08 -0.08)">
       <use xlink:href="#DejaVuSerif-39"/>
       <use xlink:href="#DejaVuSerif-30" transform="translate(63.623047 0)"/>
      </g>
     </g>
    </g>
    <g id="ytick_10">
     <g id="line2d_18">
      <g>
       <use xlink:href="#m8d228194c6" x="51.008281" y="34.378359" style="fill: #8a8275; stroke: #8a8275; stroke-width: 0.8"/>
      </g>
     </g>
     <g id="text_19">
      <!-- 100 -->
      <g style="fill: #3d3a33" transform="translate(29.238281 37.417734) scale(0.08 -0.08)">
       <use xlink:href="#DejaVuSerif-31"/>
       <use xlink:href="#DejaVuSerif-30" transform="translate(63.623047 0)"/>
       <use xlink:href="#DejaVuSerif-30" transform="translate(127.246094 0)"/>
      </g>
     </g>
    </g>
    <g id="text_20">
     <!-- Relative humidity (%) -->
     <g style="fill: #3d3a33" transform="translate(21.238594 264.537734) rotate(-90) scale(0.09 -0.09)">
      <defs>
       <path id="DejaVuSerif-52" d="M 3066 2316 
Q 3284 2256 3442 2114 
Q 3600 1972 3725 1716 
L 4403 331 
L 4972 331 
L 4972 0 
L 3872 0 
L 3144 1484 
Q 2934 1916 2759 2042 
Q 2584 2169 2278 2169 
L 1581 2169 
L 1581 331 
L 2241 331 
L 2241 0 
L 353 0 
L 353 331 
L 947 331 
L 947 4331 
L 353 4331 
L 353 4666 
L 2719 4666 
Q 3400 4666 3770 4341 
Q 4141 4016 4141 3419 
Q 4141 2938 3870 2661 
Q 3600 2384 3066 2316 
z
M 1581 2503 
L 2503 2503 
Q 2975 2503 3200 2726 
Q 3425 2950 3425 3419 
Q 3425 3888 3200 4109 
Q 2975 4331 2503 4331 
L 1581 4331 
L 1581 2503 
z
" transform="scale(0.015625)"/>
       <path id="DejaVuSerif-6c" d="M 1313 331 
L 1856 331 
L 1856 0 
L 184 0 
L 184 331 
L 738 331 
L 738 4531 
L 184 4531 
L 184 4863 
L 1313 4863 
L 1313 331 
z
" transform="scale(0.015625)"/>
       <path id="DejaVuSerif-76" d="M 1581 0 
L 359 2988 
L -19 2988 
L -19 3322 
L 1509 3322 
L 1509 2988 
L 978 2988 
L 1913 703 
L 2847 2988 
L 2350 2988 
L 2350 3322 
L 3597 3322 
L 3597 2988 
L 3225 2988 
L 2003 0 
L 1581 0 
z
" transform="scale(0.015625)"/>
       <path id="DejaVuSerif-68" d="M 263 0 
L 263 331 
L 781 331 
L 781 4531 
L 231 4531 
L 231 4863 
L 1356 4863 
L 1356 2731 
Q 1516 3069 1770 3241 
Q 2025 3413 2363 3413 
Q 2913 3413 3172 3097 
Q 3431 2781 3431 2113 
L 3431 331 
L 3944 331 
L 3944 0 
L 2356 0 
L 2356 331 
L 2853 331 
L 2853 1931 
Q 2853 2541 2704 2764 
Q 2556 2988 2175 2988 
Q 1775 2988 1565 2697 
Q 1356 2406 1356 1850 
L 1356 331 
L 1856 331 
L 1856 0 
L 263 0 
z
" transform="scale(0.015625)"/>
       <path id="DejaVuSerif-64" d="M 3359 331 
L 3909 331 
L 3909 0 
L 2784 0 
L 2784 519 
Q 2616 206 2355 57 
Q 2094 -91 1709 -91 
Q 1097 -91 708 395 
Q 319 881 319 1663 
Q 319 2444 706 2928 
Q 1094 3413 1709 3413 
Q 2094 3413 2355 3264 
Q 2616 3116 2784 2803 
L 2784 4531 
L 2241 4531 
L 2241 4863 
L 3359 4863 
L 3359 331 
z
M 2784 1497 
L 2784 1825 
Q 2784 2422 2554 2737 
Q 2325 3053 1888 3053 
Q 1444 3053 1217 2703 
Q 991 2353 991 1663 
Q 991 975 1217 622 
Q 1444 269 1888 269 
Q 2325 269 2554 583 
Q 2784 897 2784 1497 
z
" transform="scale(0.015625)"/>
       <path id="DejaVuSerif-79" d="M 1381 -609 
L 1600 -56 
L 359 2988 
L -19 2988 
L -19 3322 
L 1509 3322 
L 1509 2988 
L 978 2988 
L 1913 703 
L 2847 2988 
L 2350 2988 
L 2350 3322 
L 3597 3322 
L 3597 2988 
L 3225 2988 
L 1703 -750 
Q 1547 -1138 1356 -1280 
Q 1166 -1422 819 -1422 
Q 672 -1422 517 -1397 
Q 363 -1372 206 -1325 
L 206 -691 
L 500 -691 
Q 519 -903 608 -995 
Q 697 -1088 884 -1088 
Q 1056 -1088 1161 -992 
Q 1266 -897 1381 -609 
z
" transform="scale(0.015625)"/>
       <path id="DejaVuSerif-25" d="M 1434 4459 
Q 1159 4459 1004 4200 
Q 850 3941 850 3475 
Q 850 3016 1008 2753 
Q 1166 2491 1434 2491 
Q 1700 2491 1854 2752 
Q 2009 3013 2009 3475 
Q 2009 3938 1854 4198 
Q 1700 4459 1434 4459 
z
M 4653 2169 
Q 4381 2169 4226 1906 
Q 4072 1644 4072 1178 
Q 4072 719 4228 458 
Q 4384 197 4653 197 
Q 4922 197 5075 458 
Q 5228 719 5228 1178 
Q 5228 1641 5073 1905 
Q 4919 2169 4653 2169 
z
M 4653 2450 
Q 5147 2450 5437 2106 
Q 5728 1763 5728 1178 
Q 5728 594 5436 251 
Q 5144 -91 4653 -91 
Q 4153 -91 3862 251 
Q 3572 594 3572 1178 
Q 3572 1766 3864 2108 
Q 4156 2450 4653 2450 
z
M 4263 4750 
L 4738 4750 
L 1819 -91 
L 1344 -91 
L 4263 4750 
z
M 1428 4750 
Q 1922 4750 2215 4408 
Q 2509 4066 2509 3481 
Q 2509 2891 2217 2550 
Q 1925 2209 1428 2209 
Q 931 2209 642 2551 
Q 353 2894 353 3481 
Q 353 4063 643 4406 
Q 934 4750 1428 4750 
z
" transform="scale(0.015625)"/>
      </defs>
      <use xlink:href="#DejaVuSerif-52"/>
      <use xlink:href="#DejaVuSerif-65" transform="translate(75.292969 0)"/>
      <use xlink:href="#DejaVuSerif-6c" transform="translate(134.472656 0)"/>
      <use xlink:href="#DejaVuSerif-61" transform="translate(166.455078 0)"/>
      <use xlink:href="#DejaVuSerif-74" transform="translate(226.074219 0)"/>
      <use xlink:href="#DejaVuSerif-69" transform="translate(266.259766 0)"/>
      <use xlink:href="#DejaVuSerif-76" transform="translate(298.242188 0)"/>
      <use xlink:href="#DejaVuSerif-65" transform="translate(354.736328 0)"/>
      <use xlink:href="#DejaVuSerif-20" transform="translate(413.916016 0)"/>
      <use xlink:href="#DejaVuSerif-68" transform="translate(445.703125 0)"/>
      <use xlink:href="#DejaVuSerif-75" transform="translate(510.107422 0)"/>
      <use xlink:href="#DejaVuSerif-6d" transform="translate(574.511719 0)"/>
      <use xlink:href="#DejaVuSerif-69" transform="translate(669.335938 0)"/>
      <use xlink:href="#DejaVuSerif-64" transform="translate(701.318359 0)"/>
      <use xlink:href="#DejaVuSerif-69" transform="translate(765.332031 0)"/>
      <use xlink:href="#DejaVuSerif-74" transform="translate(797.314453 0)"/>
      <use xlink:href="#DejaVuSerif-79" transform="translate(837.5 0)"/>
      <use xlink:href="#DejaVuSerif-20" transform="translate(893.994141 0)"/>
      <use xlink:href="#DejaVuSerif-28" transform="translate(925.78125 0)"/>
      <use xlink:href="#DejaVuSerif-25" transform="translate(964.794922 0)"/>
      <use xlink:href="#DejaVuSerif-29" transform="translate(1059.814453 0)"/>
     </g>
    </g>
   </g>
   <g id="QuadContourSet_1">
    <path d="M 51.008281 251.486064 
L 53.004671 255.246137 
L 56.709779 275.325026 
L 62.147514 295.403915 
L 65.564138 305.717826 
L 69.660205 315.482804 
L 71.815993 321.239035 
M 81.450068 350.213698 
L 82.972733 355.640582 
L 86.607137 375.71947 
L 94.675853 393.011902 
L 95.946986 395.798359 
" clip-path="url(#p6999cb5ce4)" style="fill: none; stroke: #a45a2a; stroke-opacity: 0.85; stroke-width: 0.9"/>
    <path d="M 51.008281 93.476576 
L 51.476764 94.615026 
L 56.096806 114.693915 
L 61.791395 134.772804 
L 65.564138 146.238295 
L 68.574508 154.851693 
L 76.526464 174.930582 
L 80.119996 183.067037 
L 85.708093 195.00947 
L 94.675853 212.288623 
L 96.213699 215.088359 
L 107.699399 235.167248 
L 109.23171 237.797158 
L 119.924946 255.246137 
L 123.787567 261.580384 
L 132.588581 275.325026 
L 138.343424 284.750552 
L 145.163381 295.403915 
L 152.899281 308.707342 
L 157.025154 315.482804 
L 167.448885 335.561693 
L 167.455138 335.578114 
L 175.36012 355.640582 
L 180.069121 375.71947 
L 182.010996 379.282997 
L 191.489606 395.798359 
" clip-path="url(#p6999cb5ce4)" style="fill: none; stroke: #a45a2a; stroke-opacity: 0.85; stroke-width: 0.9"/>
    <path d="M 54.169006 34.378359 
L 61.709389 54.457248 
L 65.564138 63.748938 
L 70.166227 74.536137 
L 79.587024 94.615026 
L 80.119996 96.118143 
L 87.115318 114.693915 
L 89.766176 120.759875 
M 102.784887 148.523136 
L 105.92333 154.851693 
L 109.23171 161.022424 
L 117.160325 174.930582 
L 123.787567 185.859597 
L 129.690187 195.00947 
L 138.343424 207.975264 
L 143.397342 215.088359 
L 152.899281 228.339349 
L 158.116749 235.167248 
L 167.455138 247.566942 
L 173.625904 255.246137 
L 182.010996 266.095549 
L 189.634674 275.325026 
L 196.566853 284.290015 
L 205.771536 295.403915 
L 211.12271 302.532521 
L 221.563891 315.482804 
L 225.678567 321.354949 
L 236.408556 335.561693 
L 240.234424 341.753287 
L 249.525765 355.640582 
L 254.790281 366.272196 
L 259.884948 375.71947 
L 269.346138 386.470883 
L 278.130976 395.798359 
" clip-path="url(#p6999cb5ce4)" style="fill: none; stroke: #a45a2a; stroke-opacity: 0.85; stroke-width: 0.9"/>
    <path d="M 75.76263 34.378359 
L 80.119996 44.473595 
L 84.568898 54.457248 
L 94.301276 74.536137 
L 94.675853 75.280757 
L 104.668477 94.615026 
L 109.23171 104.260167 
L 114.471721 114.693915 
L 123.787567 131.716801 
L 125.564512 134.772804 
L 137.922477 154.851693 
L 138.343424 155.512103 
L 151.519928 174.930582 
L 152.899281 176.900345 
L 166.416493 195.00947 
L 167.455138 196.38449 
L 182.010996 214.501995 
L 182.510598 215.088359 
L 196.566853 231.788062 
L 199.614149 235.167248 
L 211.12271 248.305849 
L 217.654465 255.246137 
L 225.678567 264.184456 
L 236.461618 275.325026 
L 240.234424 279.496216 
L 254.790281 294.452586 
L 255.771163 295.403915 
L 269.346138 309.808095 
L 275.189588 315.482804 
L 283.901996 325.006004 
L 294.533312 335.561693 
L 298.457853 340.118895 
L 313.01371 355.358604 
L 313.305839 355.640582 
L 327.569567 372.409684 
L 330.759907 375.71947 
L 342.125424 385.594059 
L 355.30797 395.798359 
" clip-path="url(#p6999cb5ce4)" style="fill: none; stroke: #a45a2a; stroke-opacity: 0.85; stroke-width: 0.9"/>
    <path d="M 95.795117 34.378359 
L 105.613043 54.457248 
L 109.23171 61.429526 
L 116.248634 74.536137 
L 123.787567 87.944316 
L 127.650618 94.615026 
L 138.343424 113.184531 
L 139.265659 114.693915 
L 152.111301 134.772804 
L 152.899281 135.95849 
L 166.257548 154.851693 
L 167.455138 156.496907 
L 181.753351 174.930582 
L 182.010996 175.258361 
L 196.566853 192.835572 
L 198.486577 195.00947 
L 204.266975 201.598111 
M 228.905193 228.362068 
L 235.638991 235.167248 
L 240.234424 239.972037 
L 254.790281 254.18241 
L 255.934882 255.246137 
L 269.346138 268.345298 
L 277.101487 275.325026 
L 283.901996 281.86161 
L 298.457853 294.734607 
L 299.253609 295.403915 
L 313.01371 307.970257 
L 322.0889 315.482804 
L 327.569567 320.516723 
L 342.125424 332.768453 
L 345.713508 335.561693 
L 356.681281 345.237466 
L 370.05676 355.640582 
L 371.237138 356.717469 
L 385.792996 368.927787 
L 395.126389 375.71947 
L 400.348853 379.32265 
L 414.90471 388.56386 
L 427.804733 395.798359 
" clip-path="url(#p6999cb5ce4)" style="fill: none; stroke: #a45a2a; stroke-opacity: 0.85; stroke-width: 0.9"/>
    <path d="M 114.409243 34.378359 
L 123.787567 51.859237 
L 125.229173 54.457248 
L 136.754876 74.536137 
L 138.343424 77.227612 
L 148.924324 94.615026 
L 152.899281 100.998866 
L 161.945943 114.693915 
L 167.455138 122.69723 
L 176.286592 134.772804 
L 182.010996 142.392163 
L 191.973309 154.851693 
L 196.566853 160.517378 
L 209.028483 174.930582 
L 211.12271 177.348897 
L 225.678567 193.23888 
L 227.390972 195.00947 
L 240.234424 208.471589 
L 247.006708 215.088359 
L 254.790281 222.884714 
L 267.993687 235.167248 
L 269.346138 236.472524 
L 283.901996 249.903586 
L 290.125765 255.246137 
L 298.457853 262.763567 
L 313.01371 274.859015 
L 313.598659 275.325026 
L 327.569567 287.171092 
L 338.239594 295.403915 
L 342.125424 298.643287 
L 356.681281 310.023183 
L 364.284077 315.482804 
L 371.237138 320.955708 
L 385.792996 331.467652 
L 391.951616 335.561693 
L 400.348853 341.776692 
L 414.90471 351.504368 
L 421.703053 355.640582 
L 429.460567 360.98815 
L 444.016424 369.985651 
L 454.526329 375.71947 
L 458.572281 377.975075 
L 473.128138 385.562535 
L 487.683996 392.35358 
L 495.607436 395.798359 
" clip-path="url(#p6999cb5ce4)" style="fill: none; stroke: #a45a2a; stroke-opacity: 0.85; stroke-width: 0.9"/>
    <path d="M 131.995472 34.378359 
L 138.343424 45.554719 
L 143.575882 54.457248 
L 152.899281 69.771098 
L 155.824775 74.536137 
L 167.455138 92.552746 
L 168.864956 94.615026 
L 182.010996 113.150412 
L 183.172023 114.693915 
L 196.566853 132.062973 
L 198.787073 134.772804 
L 211.12271 149.618514 
L 215.751797 154.851693 
L 225.678567 166.031381 
L 234.11046 174.930582 
L 240.234424 181.434139 
L 241.856899 183.044384 
M 267.897997 208.583583 
L 269.346138 209.985472 
L 274.982415 215.088359 
L 283.901996 223.392716 
L 297.545251 235.167248 
L 298.457853 235.985532 
L 313.01371 248.534061 
L 321.425663 255.246137 
L 327.569567 260.395262 
L 342.125424 271.821164 
L 346.861425 275.325026 
L 356.681281 283.037223 
L 371.237138 293.537863 
L 373.959339 295.403915 
L 385.792996 304.107572 
L 400.348853 313.815719 
L 402.985776 315.482804 
L 414.90471 323.657865 
L 429.460567 332.665415 
L 434.475449 335.561693 
L 444.016424 341.610832 
L 458.572281 349.986196 
L 469.466627 355.640582 
L 473.128138 357.753893 
L 487.683996 365.558036 
L 502.239853 372.415385 
L 509.940165 375.71947 
L 516.79571 379.015955 
L 531.351567 385.363208 
L 545.907424 390.898939 
L 560.463281 395.743895 
" clip-path="url(#p6999cb5ce4)" style="fill: none; stroke: #a45a2a; stroke-opacity: 0.85; stroke-width: 0.9"/>
    <path d="M 148.687543 34.378359 
L 152.899281 41.420063 
L 160.611846 54.457248 
L 167.455138 65.418756 
L 173.473188 74.536137 
L 182.010996 86.954129 
L 187.587547 94.615026 
L 196.566853 106.594192 
L 203.00514 114.693915 
L 211.12271 124.714723 
L 219.77888 134.772804 
L 225.678567 141.564748 
L 237.96661 154.851693 
L 240.234424 157.30385 
L 254.790281 172.267976 
L 257.521501 174.930582 
L 269.346138 186.591993 
L 278.487388 195.00947 
L 283.901996 200.096499 
L 298.457853 212.975046 
L 300.958635 215.088359 
L 313.01371 225.583902 
L 324.907542 235.167248 
L 327.569567 237.396901 
L 342.125424 249.054274 
L 350.42928 255.246137 
L 356.681281 260.137232 
L 371.237138 270.842795 
L 377.728746 275.325026 
L 385.792996 281.220007 
L 400.348853 291.127695 
L 407.055774 295.403915 
L 414.90471 300.750539 
L 429.460567 309.970053 
L 438.886954 315.482804 
L 444.016424 318.718047 
L 458.572281 327.332125 
L 473.128138 335.080748 
L 474.072995 335.561693 
L 487.683996 343.081238 
L 502.239853 350.307152 
L 514.079146 355.640582 
L 516.79571 356.981783 
L 531.351567 363.742674 
L 545.907424 369.765121 
L 560.463281 375.144975 
" clip-path="url(#p6999cb5ce4)" style="fill: none; stroke: #a45a2a; stroke-opacity: 0.85; stroke-width: 0.9"/>
    <path d="M 163.884487 34.378359 
L 167.455138 40.294103 
L 176.479151 54.457248 
L 182.010996 62.763375 
L 190.298185 74.536137 
L 196.566853 83.151133 
L 205.396587 94.615026 
L 211.12271 101.879293 
L 221.833103 114.693915 
L 225.678567 119.231138 
L 239.672451 134.772804 
L 240.234424 135.393659 
L 254.790281 150.821581 
L 258.827294 154.851693 
L 269.346138 165.413969 
L 279.467164 174.930582 
L 283.901996 179.157519 
L 284.895147 180.0544 
M 312.213583 204.353428 
L 313.01371 205.058003 
L 325.271592 215.088359 
L 327.569567 217.026813 
L 342.125424 228.813708 
L 350.527372 235.167248 
L 356.681281 240.004444 
L 371.237138 250.806966 
L 377.578675 255.246137 
L 385.792996 261.270711 
L 400.348853 271.257922 
L 406.633044 275.325026 
L 414.90471 280.977694 
L 429.460567 290.270789 
L 438.077843 295.403915 
L 444.016424 299.168454 
L 458.572281 307.858172 
L 472.597207 315.482804 
L 473.128138 315.792441 
L 487.683996 323.951863 
L 502.239853 331.340081 
L 511.200896 335.561693 
L 516.79571 338.404055 
L 531.351567 345.339278 
L 545.907424 351.605019 
L 556.082096 355.640582 
L 560.463281 357.52301 
" clip-path="url(#p6999cb5ce4)" style="fill: none; stroke: #a45a2a; stroke-opacity: 0.85; stroke-width: 0.9"/>
    <path d="M 178.239516 34.378359 
L 182.010996 40.226557 
L 191.69519 54.457248 
L 196.566853 61.359435 
L 206.39409 74.536137 
L 211.12271 80.708591 
L 222.397262 94.615026 
L 225.678567 98.590069 
L 239.771973 114.693915 
L 240.234424 115.217198 
L 254.790281 131.019983 
L 258.453595 134.772804 
L 269.346138 145.942308 
L 278.599569 154.851693 
L 283.901996 159.998387 
L 298.457853 173.338378 
L 300.2677 174.930582 
L 313.01371 186.332159 
L 323.414192 195.00947 
L 327.569567 198.559033 
L 342.125424 210.415189 
L 348.193127 215.088359 
L 356.681281 221.832484 
L 371.237138 232.671911 
L 374.737712 235.167248 
L 385.792996 243.35517 
L 400.348853 253.358907 
L 403.209277 255.246137 
L 414.90471 263.318385 
L 429.460567 272.616308 
L 433.908571 275.325026 
L 444.016424 281.807805 
L 458.572281 290.496399 
L 467.355231 295.403915 
L 473.128138 298.824066 
L 487.683996 306.978798 
L 502.239853 314.429053 
L 504.385029 315.482804 
L 516.79571 321.976892 
L 531.351567 328.975964 
L 545.907424 335.364326 
L 546.373825 335.561693 
L 560.463281 341.938135 
" clip-path="url(#p6999cb5ce4)" style="fill: none; stroke: #a45a2a; stroke-opacity: 0.85; stroke-width: 0.9"/>
    <path d="M 192.082032 34.378359 
L 196.566853 40.931629 
L 206.331329 54.457248 
L 211.12271 60.897593 
L 221.84135 74.536137 
L 225.678567 79.314533 
L 238.679205 94.615026 
L 240.234424 96.420497 
L 254.790281 112.531354 
L 256.844472 114.693915 
L 263.607712 121.791064 
M 289.517961 147.441961 
L 297.480742 154.851693 
L 298.457853 155.770059 
L 313.01371 168.979523 
L 319.990083 174.930582 
L 327.569567 181.512419 
L 342.125424 193.401097 
L 344.169813 195.00947 
L 356.681281 205.100547 
L 370.025881 215.088359 
L 371.237138 216.02377 
L 385.792996 226.905582 
L 397.712848 235.167248 
L 400.348853 237.064892 
L 414.90471 247.151625 
L 427.52518 255.246137 
L 429.460567 256.543679 
L 444.016424 265.958356 
L 458.572281 274.608906 
L 459.817767 275.325026 
L 473.128138 283.365146 
L 487.683996 291.476123 
L 495.151273 295.403915 
L 502.239853 299.343999 
L 516.79571 306.978669 
L 531.351567 313.98746 
L 534.59318 315.482804 
L 545.907424 321.019644 
L 560.463281 327.624203 
" clip-path="url(#p6999cb5ce4)" style="fill: none; stroke: #a45a2a; stroke-opacity: 0.85; stroke-width: 0.9"/>
    <path d="M 205.465765 34.378359 
L 211.12271 42.211503 
L 220.448872 54.457248 
L 225.678567 61.156662 
L 236.708998 74.536137 
L 240.234424 78.739804 
L 254.319273 94.615026 
L 254.790281 95.140619 
L 269.346138 110.758006 
L 273.225098 114.693915 
L 283.901996 125.520607 
L 293.595012 134.772804 
L 298.457853 139.439969 
L 313.01371 152.698317 
L 315.478012 154.851693 
L 327.569567 165.555467 
L 338.888279 174.930582 
L 342.125424 177.66275 
L 356.681281 189.457264 
L 363.936476 195.00947 
L 371.237138 200.739791 
L 385.792996 211.547512 
L 390.787737 215.088359 
L 400.348853 222.082477 
L 414.90471 232.078001 
L 419.607191 235.167248 
L 429.460567 241.885169 
L 444.016424 251.195979 
L 450.68256 255.246137 
L 458.572281 260.248716 
L 473.128138 268.970884 
L 484.488115 275.325026 
L 487.683996 277.200771 
L 502.239853 285.409775 
L 516.79571 292.978138 
L 521.678849 295.403915 
L 531.351567 300.465665 
L 545.907424 307.605863 
L 560.463281 314.18921 
" clip-path="url(#p6999cb5ce4)" style="fill: none; stroke: #a45a2a; stroke-opacity: 0.85; stroke-width: 0.9"/>
    <path d="M 218.437184 34.378359 
L 225.678567 43.925158 
L 234.10078 54.457248 
L 240.234424 61.974565 
L 251.056604 74.536137 
L 254.790281 78.812567 
L 269.346138 94.577107 
L 269.382489 94.615026 
L 283.901996 109.698213 
L 288.998506 114.693915 
L 298.457853 123.980762 
L 310.135562 134.772804 
L 313.01371 137.452022 
L 327.569567 150.452341 
L 332.753181 154.851693 
L 342.125424 162.919074 
L 342.761913 163.432341 
M 371.346331 186.375082 
L 382.933612 195.00947 
L 385.792996 197.19556 
L 400.348853 207.925528 
L 410.71704 215.088359 
L 414.90471 218.073404 
L 429.460567 228.033605 
L 440.601247 235.167248 
L 444.016424 237.435751 
L 458.572281 246.744399 
L 472.933381 255.246137 
L 473.128138 255.366362 
L 487.683996 264.114144 
L 502.239853 272.204619 
L 508.122029 275.325026 
L 516.79571 280.14201 
L 531.351567 287.773316 
L 545.907424 294.837171 
L 547.111912 295.403915 
L 560.463281 302.002499 
" clip-path="url(#p6999cb5ce4)" style="fill: none; stroke: #a45a2a; stroke-opacity: 0.85; stroke-width: 0.9"/>
   </g>
   <g id="patch_3">
    <path d="M 51.008281 395.798359 
L 51.008281 34.378359 
" style="fill: none; stroke: #8a8275; stroke-width: 0.8; stroke-linejoin: miter; stroke-linecap: square"/>
   </g>
   <g id="patch_4">
    <path d="M 51.008281 395.798359 
L 560.463281 395.798359 
" style="fill: none; stroke: #8a8275; stroke-width: 0.8; stroke-linejoin: miter; stroke-linecap: square"/>
   </g>
   <g id="patch_5">
    <path d="M 381.177269 335.521319 
Q 326.246301 325.678487 271.315333 315.835655 
" style="fill: none; stroke: #3d3a33; stroke-width: 0.9; stroke-linecap: round"/>
   </g>
   <g id="text_21">
    <g id="patch_6">
     <path d="M 385.792996 351.418792 
L 441.510964 351.418792 
Q 443.760964 351.418792 443.760964 349.168792 
L 443.760964 333.511839 
Q 443.760964 331.261839 441.510964 331.261839 
L 385.792996 331.261839 
Q 383.542996 331.261839 383.542996 333.511839 
L 383.542996 349.168792 
Q 383.542996 351.418792 385.792996 351.418792 
z
" style="fill: #f5efdf; stroke: #3d3a33; stroke-width: 0.8; stroke-linejoin: miter"/>
    </g>
    <!-- 95 °F, 30% RH -->
    <g style="fill: #1b1b1b" transform="translate(385.792996 339.210667) scale(0.075 -0.075)">
     <defs>
      <path id="DejaVuSerif-2c" d="M 231 -622 
Q 525 -406 662 -114 
Q 800 178 800 594 
L 800 709 
L 1416 709 
Q 1391 175 1164 -208 
Q 938 -591 481 -872 
L 231 -622 
z
" transform="scale(0.015625)"/>
      <path id="DejaVuSerif-48" d="M 353 0 
L 353 331 
L 947 331 
L 947 4331 
L 353 4331 
L 353 4666 
L 2175 4666 
L 2175 4331 
L 1581 4331 
L 1581 2719 
L 4000 2719 
L 4000 4331 
L 3406 4331 
L 3406 4666 
L 5228 4666 
L 5228 4331 
L 4634 4331 
L 4634 331 
L 5228 331 
L 5228 0 
L 3406 0 
L 3406 331 
L 4000 331 
L 4000 2338 
L 1581 2338 
L 1581 331 
L 2175 331 
L 2175 0 
L 353 0 
z
" transform="scale(0.015625)"/>
     </defs>
     <use xlink:href="#DejaVuSerif-39"/>
     <use xlink:href="#DejaVuSerif-35" transform="translate(63.623047 0)"/>
     <use xlink:href="#DejaVuSerif-20" transform="translate(127.246094 0)"/>
     <use xlink:href="#DejaVuSerif-b0" transform="translate(159.033203 0)"/>
     <use xlink:href="#DejaVuSerif-46" transform="translate(209.033203 0)"/>
     <use xlink:href="#DejaVuSerif-2c" transform="translate(262.792969 0)"/>
     <use xlink:href="#DejaVuSerif-20" transform="translate(294.580078 0)"/>
     <use xlink:href="#DejaVuSerif-33" transform="translate(326.367188 0)"/>
     <use xlink:href="#DejaVuSerif-30" transform="translate(389.990234 0)"/>
     <use xlink:href="#DejaVuSerif-25" transform="translate(453.613281 0)"/>
     <use xlink:href="#DejaVuSerif-20" transform="translate(548.632812 0)"/>
     <use xlink:href="#DejaVuSerif-52" transform="translate(580.419922 0)"/>
     <use xlink:href="#DejaVuSerif-48" transform="translate(655.712891 0)"/>
    </g>
    <!-- → HI 94 °F -->
    <g style="fill: #1b1b1b" transform="translate(385.792996 347.609026) scale(0.075 -0.075)">
     <defs>
      <path id="DejaVuSerif-2192" d="M 366 2322 
L 4391 2322 
L 3788 3375 
L 3822 3375 
L 5125 2084 
L 5125 2053 
L 3822 763 
L 3788 763 
L 4391 1816 
L 366 1816 
L 366 2322 
z
" transform="scale(0.015625)"/>
      <path id="DejaVuSerif-49" d="M 1581 331 
L 2175 331 
L 2175 0 
L 353 0 
L 353 331 
L 947 331 
L 947 4331 
L 353 4331 
L 353 4666 
L 2175 4666 
L 2175 4331 
L 1581 4331 
L 1581 331 
z
" transform="scale(0.015625)"/>
     </defs>
     <use xlink:href="#DejaVuSerif-2192"/>
     <use xlink:href="#DejaVuSerif-20" transform="translate(83.789062 0)"/>
     <use xlink:href="#DejaVuSerif-48" transform="translate(115.576172 0)"/>
     <use xlink:href="#DejaVuSerif-49" transform="translate(202.783203 0)"/>
     <use xlink:href="#DejaVuSerif-20" transform="translate(242.285156 0)"/>
     <use xlink:href="#DejaVuSerif-39" transform="translate(274.072266 0)"/>
     <use xlink:href="#DejaVuSerif-34" transform="translate(337.695312 0)"/>
     <use xlink:href="#DejaVuSerif-20" transform="translate(401.318359 0)"/>
     <use xlink:href="#DejaVuSerif-b0" transform="translate(433.105469 0)"/>
     <use xlink:href="#DejaVuSerif-46" transform="translate(483.105469 0)"/>
    </g>
   </g>
   <g id="patch_7">
    <path d="M 162.626739 87.58918 
Q 215.072901 110.777091 267.519064 133.965003 
" style="fill: none; stroke: #3d3a33; stroke-width: 0.9; stroke-linecap: round"/>
   </g>
   <g id="text_22">
    <g id="patch_8">
     <path d="M 109.23171 86.377458 
L 164.949679 86.377458 
Q 167.199679 86.377458 167.199679 84.127458 
L 167.199679 68.470505 
Q 167.199679 66.220505 164.949679 66.220505 
L 109.23171 66.220505 
Q 106.98171 66.220505 106.98171 68.470505 
L 106.98171 84.127458 
Q 106.98171 86.377458 109.23171 86.377458 
z
" style="fill: #f5efdf; stroke: #3d3a33; stroke-width: 0.8; stroke-linejoin: miter"/>
    </g>
    <!-- 95 °F, 75% RH -->
    <g style="fill: #1b1b1b" transform="translate(109.23171 74.169333) scale(0.075 -0.075)">
     <use xlink:href="#DejaVuSerif-39"/>
     <use xlink:href="#DejaVuSerif-35" transform="translate(63.623047 0)"/>
     <use xlink:href="#DejaVuSerif-20" transform="translate(127.246094 0)"/>
     <use xlink:href="#DejaVuSerif-b0" transform="translate(159.033203 0)"/>
     <use xlink:href="#DejaVuSerif-46" transform="translate(209.033203 0)"/>
     <use xlink:href="#DejaVuSerif-2c" transform="translate(262.792969 0)"/>
     <use xlink:href="#DejaVuSerif-20" transform="translate(294.580078 0)"/>
     <use xlink:href="#DejaVuSerif-37" transform="translate(326.367188 0)"/>
     <use xlink:href="#DejaVuSerif-35" transform="translate(389.990234 0)"/>
     <use xlink:href="#DejaVuSerif-25" transform="translate(453.613281 0)"/>
     <use xlink:href="#DejaVuSerif-20" transform="translate(548.632812 0)"/>
     <use xlink:href="#DejaVuSerif-52" transform="translate(580.419922 0)"/>
     <use xlink:href="#DejaVuSerif-48" transform="translate(655.712891 0)"/>
    </g>
    <!-- → HI 128 °F -->
    <g style="fill: #1b1b1b" transform="translate(109.23171 82.567693) scale(0.075 -0.075)">
     <use xlink:href="#DejaVuSerif-2192"/>
     <use xlink:href="#DejaVuSerif-20" transform="translate(83.789062 0)"/>
     <use xlink:href="#DejaVuSerif-48" transform="translate(115.576172 0)"/>
     <use xlink:href="#DejaVuSerif-49" transform="translate(202.783203 0)"/>
     <use xlink:href="#DejaVuSerif-20" transform="translate(242.285156 0)"/>
     <use xlink:href="#DejaVuSerif-31" transform="translate(274.072266 0)"/>
     <use xlink:href="#DejaVuSerif-32" transform="translate(337.695312 0)"/>
     <use xlink:href="#DejaVuSerif-38" transform="translate(401.318359 0)"/>
     <use xlink:href="#DejaVuSerif-20" transform="translate(464.941406 0)"/>
     <use xlink:href="#DejaVuSerif-b0" transform="translate(496.728516 0)"/>
     <use xlink:href="#DejaVuSerif-46" transform="translate(546.728516 0)"/>
    </g>
   </g>
   <g id="text_23">
    <!-- What the same air temperature feels like at different humidity -->
    <g style="fill: #1b1b1b" transform="translate(51.008281 22.378359) scale(0.105 -0.105)">
     <defs>
      <path id="DejaVuSerif-57" d="M 4878 0 
L 4366 0 
L 3297 3794 
L 2228 0 
L 1716 0 
L 494 4331 
L 31 4331 
L 31 4666 
L 1734 4666 
L 1734 4331 
L 1153 4331 
L 2125 884 
L 3188 4666 
L 3694 4666 
L 4775 844 
L 5753 4331 
L 5216 4331 
L 5216 4666 
L 6559 4666 
L 6559 4331 
L 6100 4331 
L 4878 0 
z
" transform="scale(0.015625)"/>
      <path id="DejaVuSerif-73" d="M 359 184 
L 359 959 
L 691 959 
Q 703 588 923 403 
Q 1144 219 1575 219 
Q 1963 219 2166 364 
Q 2369 509 2369 788 
Q 2369 1006 2220 1140 
Q 2072 1275 1594 1428 
L 1178 1569 
Q 750 1706 558 1912 
Q 366 2119 366 2438 
Q 366 2894 700 3153 
Q 1034 3413 1625 3413 
Q 1888 3413 2178 3344 
Q 2469 3275 2778 3144 
L 2778 2419 
L 2447 2419 
Q 2434 2741 2221 2922 
Q 2009 3103 1644 3103 
Q 1281 3103 1095 2975 
Q 909 2847 909 2591 
Q 909 2381 1050 2254 
Q 1191 2128 1613 1997 
L 2069 1856 
Q 2541 1709 2748 1489 
Q 2956 1269 2956 922 
Q 2956 450 2595 179 
Q 2234 -91 1600 -91 
Q 1278 -91 972 -22 
Q 666 47 359 184 
z
" transform="scale(0.015625)"/>
      <path id="DejaVuSerif-66" d="M 2753 4078 
L 2450 4078 
Q 2447 4313 2317 4434 
Q 2188 4556 1941 4556 
Q 1619 4556 1487 4379 
Q 1356 4203 1356 3750 
L 1356 3322 
L 2284 3322 
L 2284 2988 
L 1356 2988 
L 1356 331 
L 2094 331 
L 2094 0 
L 231 0 
L 231 331 
L 781 331 
L 781 2988 
L 231 2988 
L 231 3322 
L 781 3322 
L 781 3738 
Q 781 4294 1070 4578 
Q 1359 4863 1919 4863 
Q 2128 4863 2337 4825 
Q 2547 4788 2753 4709 
L 2753 4078 
z
" transform="scale(0.015625)"/>
      <path id="DejaVuSerif-6b" d="M 1831 0 
L 219 0 
L 219 331 
L 738 331 
L 738 4531 
L 184 4531 
L 184 4863 
L 1313 4863 
L 1313 1697 
L 2713 2988 
L 2234 2988 
L 2234 3322 
L 3738 3322 
L 3738 2988 
L 3169 2988 
L 2181 2075 
L 3444 331 
L 3922 331 
L 3922 0 
L 2284 0 
L 2284 331 
L 2759 331 
L 1766 1697 
L 1313 1275 
L 1313 331 
L 1831 331 
L 1831 0 
z
" transform="scale(0.015625)"/>
      <path id="DejaVuSerif-6e" d="M 263 0 
L 263 331 
L 781 331 
L 781 2988 
L 231 2988 
L 231 3322 
L 1356 3322 
L 1356 2731 
Q 1516 3069 1770 3241 
Q 2025 3413 2363 3413 
Q 2913 3413 3172 3097 
Q 3431 2781 3431 2113 
L 3431 331 
L 3944 331 
L 3944 0 
L 2356 0 
L 2356 331 
L 2853 331 
L 2853 1931 
Q 2853 2541 2703 2767 
Q 2553 2994 2175 2994 
Q 1775 2994 1565 2701 
Q 1356 2409 1356 1850 
L 1356 331 
L 1856 331 
L 1856 0 
L 263 0 
z
" transform="scale(0.015625)"/>
     </defs>
     <use xlink:href="#DejaVuSerif-57"/>
     <use xlink:href="#DejaVuSerif-68" transform="translate(102.783203 0)"/>
     <use xlink:href="#DejaVuSerif-61" transform="translate(167.1875 0)"/>
     <use xlink:href="#DejaVuSerif-74" transform="translate(226.806641 0)"/>
     <use xlink:href="#DejaVuSerif-20" transform="translate(266.992188 0)"/>
     <use xlink:href="#DejaVuSerif-74" transform="translate(298.779297 0)"/>
     <use xlink:href="#DejaVuSerif-68" transform="translate(338.964844 0)"/>
     <use xlink:href="#DejaVuSerif-65" transform="translate(403.369141 0)"/>
     <use xlink:href="#DejaVuSerif-20" transform="translate(462.548828 0)"/>
     <use xlink:href="#DejaVuSerif-73" transform="translate(494.335938 0)"/>
     <use xlink:href="#DejaVuSerif-61" transform="translate(545.654297 0)"/>
     <use xlink:href="#DejaVuSerif-6d" transform="translate(605.273438 0)"/>
     <use xlink:href="#DejaVuSerif-65" transform="translate(700.097656 0)"/>
     <use xlink:href="#DejaVuSerif-20" transform="translate(759.277344 0)"/>
     <use xlink:href="#DejaVuSerif-61" transform="translate(791.064453 0)"/>
     <use xlink:href="#DejaVuSerif-69" transform="translate(850.683594 0)"/>
     <use xlink:href="#DejaVuSerif-72" transform="translate(882.666016 0)"/>
     <use xlink:href="#DejaVuSerif-20" transform="translate(930.46875 0)"/>
     <use xlink:href="#DejaVuSerif-74" transform="translate(962.255859 0)"/>
     <use xlink:href="#DejaVuSerif-65" transform="translate(1002.441406 0)"/>
     <use xlink:href="#DejaVuSerif-6d" transform="translate(1061.621094 0)"/>
     <use xlink:href="#DejaVuSerif-70" transform="translate(1156.445312 0)"/>
     <use xlink:href="#DejaVuSerif-65" transform="translate(1220.458984 0)"/>
     <use xlink:href="#DejaVuSerif-72" transform="translate(1279.638672 0)"/>
     <use xlink:href="#DejaVuSerif-61" transform="translate(1327.441406 0)"/>
     <use xlink:href="#DejaVuSerif-74" transform="translate(1387.060547 0)"/>
     <use xlink:href="#DejaVuSerif-75" transform="translate(1427.246094 0)"/>
     <use xlink:href="#DejaVuSerif-72" transform="translate(1491.650391 0)"/>
     <use xlink:href="#DejaVuSerif-65" transform="translate(1539.453125 0)"/>
     <use xlink:href="#DejaVuSerif-20" transform="translate(1598.632812 0)"/>
     <use xlink:href="#DejaVuSerif-66" transform="translate(1630.419922 0)"/>
     <use xlink:href="#DejaVuSerif-65" transform="translate(1667.431641 0)"/>
     <use xlink:href="#DejaVuSerif-65" transform="translate(1726.611328 0)"/>
     <use xlink:href="#DejaVuSerif-6c" transform="translate(1785.791016 0)"/>
     <use xlink:href="#DejaVuSerif-73" transform="translate(1817.773438 0)"/>
     <use xlink:href="#DejaVuSerif-20" transform="translate(1869.091797 0)"/>
     <use xlink:href="#DejaVuSerif-6c" transform="translate(1900.878906 0)"/>
     <use xlink:href="#DejaVuSerif-69" transform="translate(1932.861328 0)"/>
     <use xlink:href="#DejaVuSerif-6b" transform="translate(1964.84375 0)"/>
     <use xlink:href="#DejaVuSerif-65" transform="translate(2025.439453 0)"/>
     <use xlink:href="#DejaVuSerif-20" transform="translate(2084.619141 0)"/>
     <use xlink:href="#DejaVuSerif-61" transform="translate(2116.40625 0)"/>
     <use xlink:href="#DejaVuSerif-74" transform="translate(2176.025391 0)"/>
     <use xlink:href="#DejaVuSerif-20" transform="translate(2216.210938 0)"/>
     <use xlink:href="#DejaVuSerif-64" transform="translate(2247.998047 0)"/>
     <use xlink:href="#DejaVuSerif-69" transform="translate(2312.011719 0)"/>
     <use xlink:href="#DejaVuSerif-66" transform="translate(2343.994141 0)"/>
     <use xlink:href="#DejaVuSerif-66" transform="translate(2381.005859 0)"/>
     <use xlink:href="#DejaVuSerif-65" transform="translate(2418.017578 0)"/>
     <use xlink:href="#DejaVuSerif-72" transform="translate(2477.197266 0)"/>
     <use xlink:href="#DejaVuSerif-65" transform="translate(2525 0)"/>
     <use xlink:href="#DejaVuSerif-6e" transform="translate(2584.179688 0)"/>
     <use xlink:href="#DejaVuSerif-74" transform="translate(2648.583984 0)"/>
     <use xlink:href="#DejaVuSerif-20" transform="translate(2688.769531 0)"/>
     <use xlink:href="#DejaVuSerif-68" transform="translate(2720.556641 0)"/>
     <use xlink:href="#DejaVuSerif-75" transform="translate(2784.960938 0)"/>
     <use xlink:href="#DejaVuSerif-6d" transform="translate(2849.365234 0)"/>
     <use xlink:href="#DejaVuSerif-69" transform="translate(2944.189453 0)"/>
     <use xlink:href="#DejaVuSerif-64" transform="translate(2976.171875 0)"/>
     <use xlink:href="#DejaVuSerif-69" transform="translate(3040.185547 0)"/>
     <use xlink:href="#DejaVuSerif-74" transform="translate(3072.167969 0)"/>
     <use xlink:href="#DejaVuSerif-79" transform="translate(3112.353516 0)"/>
    </g>
   </g>
   <g id="text_24">
    <g clip-path="url(#p6999cb5ce4)">
     <!-- 80 °F -->
     <g style="fill: #3d3a33; opacity: 0.85" transform="translate(72.040484 326.240813) rotate(-287.660803) scale(0.075 -0.075)">
      <use xlink:href="#DejaVuSerif-38"/>
      <use xlink:href="#DejaVuSerif-30" transform="translate(63.623047 0)"/>
      <use xlink:href="#DejaVuSerif-20" transform="translate(127.246094 0)"/>
      <use xlink:href="#DejaVuSerif-b0" transform="translate(159.033203 0)"/>
      <use xlink:href="#DejaVuSerif-46" transform="translate(209.033203 0)"/>
     </g>
    </g>
   </g>
   <g id="text_25">
    <g clip-path="url(#p6999cb5ce4)">
     <!-- 90 °F -->
     <g style="fill: #3d3a33; opacity: 0.85" transform="translate(89.813259 126.087226) rotate(-294.100994) scale(0.075 -0.075)">
      <use xlink:href="#DejaVuSerif-39"/>
      <use xlink:href="#DejaVuSerif-30" transform="translate(63.623047 0)"/>
      <use xlink:href="#DejaVuSerif-20" transform="translate(127.246094 0)"/>
      <use xlink:href="#DejaVuSerif-b0" transform="translate(159.033203 0)"/>
      <use xlink:href="#DejaVuSerif-46" transform="translate(209.033203 0)"/>
     </g>
    </g>
   </g>
   <g id="text_26">
    <g clip-path="url(#p6999cb5ce4)">
     <!-- 100 °F -->
     <g style="fill: #3d3a33; opacity: 0.85" transform="translate(206.459582 206.788974) rotate(-311.134002) scale(0.075 -0.075)">
      <use xlink:href="#DejaVuSerif-31"/>
      <use xlink:href="#DejaVuSerif-30" transform="translate(63.623047 0)"/>
      <use xlink:href="#DejaVuSerif-30" transform="translate(127.246094 0)"/>
      <use xlink:href="#DejaVuSerif-20" transform="translate(190.869141 0)"/>
      <use xlink:href="#DejaVuSerif-b0" transform="translate(222.65625 0)"/>
      <use xlink:href="#DejaVuSerif-46" transform="translate(272.65625 0)"/>
     </g>
    </g>
   </g>
   <g id="text_27">
    <g clip-path="url(#p6999cb5ce4)">
     <!-- 110 °F -->
     <g style="fill: #3d3a33; opacity: 0.85" transform="translate(244.371658 188.131724) rotate(-314.145248) scale(0.075 -0.075)">
      <use xlink:href="#DejaVuSerif-31"/>
      <use xlink:href="#DejaVuSerif-31" transform="translate(63.623047 0)"/>
      <use xlink:href="#DejaVuSerif-30" transform="translate(127.246094 0)"/>
      <use xlink:href="#DejaVuSerif-20" transform="translate(190.869141 0)"/>
      <use xlink:href="#DejaVuSerif-b0" transform="translate(222.65625 0)"/>
      <use xlink:href="#DejaVuSerif-46" transform="translate(272.65625 0)"/>
     </g>
    </g>
   </g>
   <g id="text_28">
    <g clip-path="url(#p6999cb5ce4)">
     <!-- 120 °F -->
     <g style="fill: #3d3a33; opacity: 0.85" transform="translate(287.669759 185.061847) rotate(-316.966594) scale(0.075 -0.075)">
      <use xlink:href="#DejaVuSerif-31"/>
      <use xlink:href="#DejaVuSerif-32" transform="translate(63.623047 0)"/>
      <use xlink:href="#DejaVuSerif-30" transform="translate(127.246094 0)"/>
      <use xlink:href="#DejaVuSerif-20" transform="translate(190.869141 0)"/>
      <use xlink:href="#DejaVuSerif-b0" transform="translate(222.65625 0)"/>
      <use xlink:href="#DejaVuSerif-46" transform="translate(272.65625 0)"/>
     </g>
    </g>
   </g>
   <g id="text_29">
    <g clip-path="url(#p6999cb5ce4)">
     <!-- 130 °F -->
     <g style="fill: #3d3a33; opacity: 0.85" transform="translate(266.011683 126.95918) rotate(-313.865203) scale(0.075 -0.075)">
      <use xlink:href="#DejaVuSerif-31"/>
      <use xlink:href="#DejaVuSerif-33" transform="translate(63.623047 0)"/>
      <use xlink:href="#DejaVuSerif-30" transform="translate(127.246094 0)"/>
      <use xlink:href="#DejaVuSerif-20" transform="translate(190.869141 0)"/>
      <use xlink:href="#DejaVuSerif-b0" transform="translate(222.65625 0)"/>
      <use xlink:href="#DejaVuSerif-46" transform="translate(272.65625 0)"/>
     </g>
    </g>
   </g>
   <g id="text_30">
    <g clip-path="url(#p6999cb5ce4)">
     <!-- 140 °F -->
     <g style="fill: #3d3a33; opacity: 0.85" transform="translate(345.890245 168.244278) rotate(-319.862385) scale(0.075 -0.075)">
      <use xlink:href="#DejaVuSerif-31"/>
      <use xlink:href="#DejaVuSerif-34" transform="translate(63.623047 0)"/>
      <use xlink:href="#DejaVuSerif-30" transform="translate(127.246094 0)"/>
      <use xlink:href="#DejaVuSerif-20" transform="translate(190.869141 0)"/>
      <use xlink:href="#DejaVuSerif-b0" transform="translate(222.65625 0)"/>
      <use xlink:href="#DejaVuSerif-46" transform="translate(272.65625 0)"/>
     </g>
    </g>
   </g>
   <g id="line2d_19">
    <defs>
     <path id="m3fda375c9f" d="M 0 3 
C 0.795609 3 1.55874 2.683901 2.12132 2.12132 
C 2.683901 1.55874 3 0.795609 3 0 
C 3 -0.795609 2.683901 -1.55874 2.12132 -2.12132 
C 1.55874 -2.683901 0.795609 -3 0 -3 
C -0.795609 -3 -1.55874 -2.683901 -2.12132 -2.12132 
C -2.683901 -1.55874 -3 -0.795609 -3 0 
C -3 0.795609 -2.683901 1.55874 -2.12132 2.12132 
C -1.55874 2.683901 -0.795609 3 0 3 
z
" style="stroke: #1b1b1b"/>
    </defs>
    <g clip-path="url(#p6999cb5ce4)">
     <use xlink:href="#m3fda375c9f" x="269.346138" y="315.482804" style="fill: #1b1b1b; stroke: #1b1b1b"/>
    </g>
   </g>
   <g id="line2d_20">
    <g clip-path="url(#p6999cb5ce4)">
     <use xlink:href="#m3fda375c9f" x="269.346138" y="134.772804" style="fill: #1b1b1b; stroke: #1b1b1b"/>
    </g>
   </g>
  </g>
 </g>
 <defs>
  <clipPath id="p6999cb5ce4">
   <rect x="51.008281" y="34.378359" width="509.455" height="361.42"/>
  </clipPath>
 </defs>
</svg>
