<?xml version="1.0" encoding="utf-8" standalone="no"?>
<!DOCTYPE svg PUBLIC "-//W3C//DTD SVG 1.1//EN"
  "http://www.w3.org/Graphics/SVG/1.1/DTD/svg11.dtd">
<svg xmlns:xlink="http://www.w3.org/1999/xlink" width="318.397422pt" height="313.2pt" viewBox="0 0 318.397422 313.2" xmlns="http://www.w3.org/2000/svg" version="1.1">
 <metadata>
  <rdf:RDF xmlns:dc="http://purl.org/dc/elements/1.1/" xmlns:cc="http://creativecommons.org/ns#" xmlns:rdf="http://www.w3.org/1999/02/22-rdf-syntax-ns#">
   <cc:Work>
    <dc:type rdf:resource="http://purl.org/dc/dcmitype/StillImage"/>
    <dc:date>2026-05-27T14:14:40.851592</dc:date>
    <dc:format>image/svg+xml</dc:format>
    <dc:creator>
     <cc:Agent>
      <dc:title>Matplotlib v3.10.9, https://matplotlib.org/</dc:title>
     </cc:Agent>
    </dc:creator>
   </cc:Work>
  </rdf:RDF>
 </metadata>
 <defs>
  <style type="text/css">*{stroke-linejoin: round; stroke-linecap: butt}</style>
 </defs>
 <g id="figure_1">
  <g id="patch_1">
   <path d="M 0 313.2 
L 318.397422 313.2 
L 318.397422 0 
L 0 0 
z
" style="fill: #f5efdf"/>
  </g>
  <g id="axes_1">
   <g id="patch_2">
    <path d="M 155.106563 271.44 
L 163.026563 271.44 
L 163.026563 212.04 
L 155.106563 212.04 
z
" clip-path="url(#pc5eff67845)" style="fill: #f5efdf; stroke: #3d3a33; stroke-width: 1.2; stroke-linejoin: miter"/>
   </g>
   <g id="patch_3">
    <path d="M 109.566563 212.04 
L 208.566563 212.04 
L 208.566563 53.64 
L 109.566563 53.64 
z
" clip-path="url(#pc5eff67845)" style="fill: #f5efdf; stroke: #1b1b1b; stroke-width: 2; stroke-linejoin: miter"/>
   </g>
   <g id="line2d_1">
    <path d="M 112.734563 196.2 
L 205.398563 196.2 
" clip-path="url(#pc5eff67845)" style="fill: none; stroke: #3d3a33; stroke-opacity: 0.55; stroke-width: 0.7; stroke-linecap: square"/>
   </g>
   <g id="line2d_2">
    <path d="M 112.734563 180.36 
L 205.398563 180.36 
" clip-path="url(#pc5eff67845)" style="fill: none; stroke: #3d3a33; stroke-opacity: 0.55; stroke-width: 0.7; stroke-linecap: square"/>
   </g>
   <g id="line2d_3">
    <path d="M 112.734563 164.52 
L 205.398563 164.52 
" clip-path="url(#pc5eff67845)" style="fill: none; stroke: #3d3a33; stroke-opacity: 0.55; stroke-width: 0.7; stroke-linecap: square"/>
   </g>
   <g id="line2d_4">
    <path d="M 112.734563 148.68 
L 205.398563 148.68 
" clip-path="url(#pc5eff67845)" style="fill: none; stroke: #3d3a33; stroke-opacity: 0.55; stroke-width: 0.7; stroke-linecap: square"/>
   </g>
   <g id="line2d_5">
    <path d="M 112.734563 132.84 
L 205.398563 132.84 
" clip-path="url(#pc5eff67845)" style="fill: none; stroke: #3d3a33; stroke-opacity: 0.55; stroke-width: 0.7; stroke-linecap: square"/>
   </g>
   <g id="line2d_6">
    <path d="M 112.734563 117 
L 205.398563 117 
" clip-path="url(#pc5eff67845)" style="fill: none; stroke: #3d3a33; stroke-opacity: 0.55; stroke-width: 0.7; stroke-linecap: square"/>
   </g>
   <g id="line2d_7">
    <path d="M 112.734563 101.16 
L 205.398563 101.16 
" clip-path="url(#pc5eff67845)" style="fill: none; stroke: #3d3a33; stroke-opacity: 0.55; stroke-width: 0.7; stroke-linecap: square"/>
   </g>
   <g id="line2d_8">
    <path d="M 112.734563 85.32 
L 205.398563 85.32 
" clip-path="url(#pc5eff67845)" style="fill: none; stroke: #3d3a33; stroke-opacity: 0.55; stroke-width: 0.7; stroke-linecap: square"/>
   </g>
   <g id="line2d_9">
    <path d="M 112.734563 69.48 
L 205.398563 69.48 
" clip-path="url(#pc5eff67845)" style="fill: none; stroke: #3d3a33; stroke-opacity: 0.55; stroke-width: 0.7; stroke-linecap: square"/>
   </g>
   <g id="patch_4">
    <path d="M 100.664611 97.062787 
Q 81.647164 87.101268 63.381371 77.533471 
" style="fill: none; stroke: #3d3a33; stroke-width: 1.2; stroke-linecap: round"/>
    <path d="M 63.88756 79.153277 
L 63.381371 77.533471 
L 65.001177 77.027282 
" style="fill: none; stroke: #3d3a33; stroke-width: 1.2; stroke-linecap: round"/>
   </g>
   <g id="text_1">
    <!-- humidity -->
    <g style="fill: #1b1b1b" transform="translate(18 73.745039) scale(0.085 -0.085)">
     <defs>
      <path id="DejaVuSerif-68" d="M 263 0 
L 263 331 
L 781 331 
L 781 4531 
L 231 4531 
L 231 4863 
L 1356 4863 
L 1356 2731 
Q 1516 3069 1770 3241 
Q 2025 3413 2363 3413 
Q 2913 3413 3172 3097 
Q 3431 2781 3431 2113 
L 3431 331 
L 3944 331 
L 3944 0 
L 2356 0 
L 2356 331 
L 2853 331 
L 2853 1931 
Q 2853 2541 2704 2764 
Q 2556 2988 2175 2988 
Q 1775 2988 1565 2697 
Q 1356 2406 1356 1850 
L 1356 331 
L 1856 331 
L 1856 0 
L 263 0 
z
" transform="scale(0.015625)"/>
      <path id="DejaVuSerif-75" d="M 2266 3322 
L 3341 3322 
L 3341 331 
L 3884 331 
L 3884 0 
L 2766 0 
L 2766 588 
Q 2606 256 2353 82 
Q 2100 -91 1766 -91 
Q 1213 -91 952 223 
Q 691 538 691 1209 
L 691 2988 
L 172 2988 
L 172 3322 
L 1269 3322 
L 1269 1388 
Q 1269 781 1417 556 
Q 1566 331 1947 331 
Q 2347 331 2556 625 
Q 2766 919 2766 1478 
L 2766 2988 
L 2266 2988 
L 2266 3322 
z
" transform="scale(0.015625)"/>
      <path id="DejaVuSerif-6d" d="M 3316 2675 
Q 3481 3041 3739 3227 
Q 3997 3413 4341 3413 
Q 4863 3413 5119 3089 
Q 5375 2766 5375 2113 
L 5375 331 
L 5894 331 
L 5894 0 
L 4300 0 
L 4300 331 
L 4800 331 
L 4800 2047 
Q 4800 2556 4650 2772 
Q 4500 2988 4153 2988 
Q 3769 2988 3567 2697 
Q 3366 2406 3366 1850 
L 3366 331 
L 3866 331 
L 3866 0 
L 2291 0 
L 2291 331 
L 2791 331 
L 2791 2069 
Q 2791 2566 2641 2777 
Q 2491 2988 2144 2988 
Q 1759 2988 1557 2697 
Q 1356 2406 1356 1850 
L 1356 331 
L 1856 331 
L 1856 0 
L 263 0 
L 263 331 
L 781 331 
L 781 2994 
L 231 2994 
L 231 3322 
L 1356 3322 
L 1356 2731 
Q 1516 3063 1762 3238 
Q 2009 3413 2322 3413 
Q 2709 3413 2968 3220 
Q 3228 3028 3316 2675 
z
" transform="scale(0.015625)"/>
      <path id="DejaVuSerif-69" d="M 622 4353 
Q 622 4497 726 4603 
Q 831 4709 978 4709 
Q 1122 4709 1226 4603 
Q 1331 4497 1331 4353 
Q 1331 4206 1228 4103 
Q 1125 4000 978 4000 
Q 831 4000 726 4103 
Q 622 4206 622 4353 
z
M 1356 331 
L 1900 331 
L 1900 0 
L 231 0 
L 231 331 
L 781 331 
L 781 2988 
L 231 2988 
L 231 3322 
L 1356 3322 
L 1356 331 
z
" transform="scale(0.015625)"/>
      <path id="DejaVuSerif-64" d="M 3359 331 
L 3909 331 
L 3909 0 
L 2784 0 
L 2784 519 
Q 2616 206 2355 57 
Q 2094 -91 1709 -91 
Q 1097 -91 708 395 
Q 319 881 319 1663 
Q 319 2444 706 2928 
Q 1094 3413 1709 3413 
Q 2094 3413 2355 3264 
Q 2616 3116 2784 2803 
L 2784 4531 
L 2241 4531 
L 2241 4863 
L 3359 4863 
L 3359 331 
z
M 2784 1497 
L 2784 1825 
Q 2784 2422 2554 2737 
Q 2325 3053 1888 3053 
Q 1444 3053 1217 2703 
Q 991 2353 991 1663 
Q 991 975 1217 622 
Q 1444 269 1888 269 
Q 2325 269 2554 583 
Q 2784 897 2784 1497 
z
" transform="scale(0.015625)"/>
      <path id="DejaVuSerif-74" d="M 691 2988 
L 184 2988 
L 184 3322 
L 691 3322 
L 691 4353 
L 1269 4353 
L 1269 3322 
L 2350 3322 
L 2350 2988 
L 1269 2988 
L 1269 878 
Q 1269 456 1350 337 
Q 1431 219 1650 219 
Q 1875 219 1978 351 
Q 2081 484 2088 781 
L 2522 781 
Q 2497 328 2275 118 
Q 2053 -91 1600 -91 
Q 1103 -91 897 129 
Q 691 350 691 878 
L 691 2988 
z
" transform="scale(0.015625)"/>
      <path id="DejaVuSerif-79" d="M 1381 -609 
L 1600 -56 
L 359 2988 
L -19 2988 
L -19 3322 
L 1509 3322 
L 1509 2988 
L 978 2988 
L 1913 703 
L 2847 2988 
L 2350 2988 
L 2350 3322 
L 3597 3322 
L 3597 2988 
L 3225 2988 
L 1703 -750 
Q 1547 -1138 1356 -1280 
Q 1166 -1422 819 -1422 
Q 672 -1422 517 -1397 
Q 363 -1372 206 -1325 
L 206 -691 
L 500 -691 
Q 519 -903 608 -995 
Q 697 -1088 884 -1088 
Q 1056 -1088 1161 -992 
Q 1266 -897 1381 -609 
z
" transform="scale(0.015625)"/>
     </defs>
     <use xlink:href="#DejaVuSerif-68"/>
     <use xlink:href="#DejaVuSerif-75" transform="translate(64.404297 0)"/>
     <use xlink:href="#DejaVuSerif-6d" transform="translate(128.808594 0)"/>
     <use xlink:href="#DejaVuSerif-69" transform="translate(223.632812 0)"/>
     <use xlink:href="#DejaVuSerif-64" transform="translate(255.615234 0)"/>
     <use xlink:href="#DejaVuSerif-69" transform="translate(319.628906 0)"/>
     <use xlink:href="#DejaVuSerif-74" transform="translate(351.611328 0)"/>
     <use xlink:href="#DejaVuSerif-79" transform="translate(391.796875 0)"/>
    </g>
   </g>
   <g id="patch_5">
    <path d="M 217.468514 97.062787 
Q 236.485961 87.101268 254.751754 77.533471 
" style="fill: none; stroke: #3d3a33; stroke-width: 1.2; stroke-linecap: round"/>
    <path d="M 253.131948 77.027282 
L 254.751754 77.533471 
L 254.245565 79.153277 
" style="fill: none; stroke: #3d3a33; stroke-width: 1.2; stroke-linecap: round"/>
   </g>
   <g id="text_2">
    <!-- sunshine -->
    <g style="fill: #1b1b1b" transform="translate(262.026563 73.805469) scale(0.085 -0.085)">
     <defs>
      <path id="DejaVuSerif-73" d="M 359 184 
L 359 959 
L 691 959 
Q 703 588 923 403 
Q 1144 219 1575 219 
Q 1963 219 2166 364 
Q 2369 509 2369 788 
Q 2369 1006 2220 1140 
Q 2072 1275 1594 1428 
L 1178 1569 
Q 750 1706 558 1912 
Q 366 2119 366 2438 
Q 366 2894 700 3153 
Q 1034 3413 1625 3413 
Q 1888 3413 2178 3344 
Q 2469 3275 2778 3144 
L 2778 2419 
L 2447 2419 
Q 2434 2741 2221 2922 
Q 2009 3103 1644 3103 
Q 1281 3103 1095 2975 
Q 909 2847 909 2591 
Q 909 2381 1050 2254 
Q 1191 2128 1613 1997 
L 2069 1856 
Q 2541 1709 2748 1489 
Q 2956 1269 2956 922 
Q 2956 450 2595 179 
Q 2234 -91 1600 -91 
Q 1278 -91 972 -22 
Q 666 47 359 184 
z
" transform="scale(0.015625)"/>
      <path id="DejaVuSerif-6e" d="M 263 0 
L 263 331 
L 781 331 
L 781 2988 
L 231 2988 
L 231 3322 
L 1356 3322 
L 1356 2731 
Q 1516 3069 1770 3241 
Q 2025 3413 2363 3413 
Q 2913 3413 3172 3097 
Q 3431 2781 3431 2113 
L 3431 331 
L 3944 331 
L 3944 0 
L 2356 0 
L 2356 331 
L 2853 331 
L 2853 1931 
Q 2853 2541 2703 2767 
Q 2553 2994 2175 2994 
Q 1775 2994 1565 2701 
Q 1356 2409 1356 1850 
L 1356 331 
L 1856 331 
L 1856 0 
L 263 0 
z
" transform="scale(0.015625)"/>
      <path id="DejaVuSerif-65" d="M 3469 1600 
L 991 1600 
L 991 1575 
Q 991 903 1244 561 
Q 1497 219 1991 219 
Q 2369 219 2611 417 
Q 2853 616 2950 1006 
L 3413 1006 
Q 3275 459 2904 184 
Q 2534 -91 1931 -91 
Q 1203 -91 761 389 
Q 319 869 319 1663 
Q 319 2450 753 2931 
Q 1188 3413 1894 3413 
Q 2647 3413 3050 2948 
Q 3453 2484 3469 1600 
z
M 2791 1931 
Q 2772 2513 2545 2808 
Q 2319 3103 1894 3103 
Q 1497 3103 1269 2806 
Q 1041 2509 991 1931 
L 2791 1931 
z
" transform="scale(0.015625)"/>
     </defs>
     <use xlink:href="#DejaVuSerif-73"/>
     <use xlink:href="#DejaVuSerif-75" transform="translate(51.318359 0)"/>
     <use xlink:href="#DejaVuSerif-6e" transform="translate(115.722656 0)"/>
     <use xlink:href="#DejaVuSerif-73" transform="translate(180.126953 0)"/>
     <use xlink:href="#DejaVuSerif-68" transform="translate(231.445312 0)"/>
     <use xlink:href="#DejaVuSerif-69" transform="translate(295.849609 0)"/>
     <use xlink:href="#DejaVuSerif-6e" transform="translate(327.832031 0)"/>
     <use xlink:href="#DejaVuSerif-65" transform="translate(392.236328 0)"/>
    </g>
   </g>
   <g id="patch_6">
    <path d="M 100.664611 178.121213 
Q 81.647164 188.082732 63.381371 197.650529 
" style="fill: none; stroke: #3d3a33; stroke-width: 1.2; stroke-linecap: round"/>
    <path d="M 65.001177 198.156718 
L 63.381371 197.650529 
L 63.88756 196.030723 
" style="fill: none; stroke: #3d3a33; stroke-width: 1.2; stroke-linecap: round"/>
   </g>
   <g id="text_3">
    <!-- exertion -->
    <g style="fill: #1b1b1b" transform="translate(20.462344 206.861469) scale(0.085 -0.085)">
     <defs>
      <path id="DejaVuSerif-78" d="M 1863 2028 
L 2559 2988 
L 2113 2988 
L 2113 3322 
L 3391 3322 
L 3391 2988 
L 2950 2988 
L 2059 1759 
L 3097 331 
L 3531 331 
L 3531 0 
L 1997 0 
L 1997 331 
L 2419 331 
L 1697 1325 
L 972 331 
L 1403 331 
L 1403 0 
L 141 0 
L 141 331 
L 581 331 
L 1497 1594 
L 488 2988 
L 78 2988 
L 78 3322 
L 1563 3322 
L 1563 2988 
L 1166 2988 
L 1863 2028 
z
" transform="scale(0.015625)"/>
      <path id="DejaVuSerif-72" d="M 3059 3328 
L 3059 2497 
L 2728 2497 
Q 2713 2744 2591 2866 
Q 2469 2988 2234 2988 
Q 1809 2988 1582 2694 
Q 1356 2400 1356 1850 
L 1356 331 
L 2022 331 
L 2022 0 
L 263 0 
L 263 331 
L 781 331 
L 781 2994 
L 231 2994 
L 231 3322 
L 1356 3322 
L 1356 2731 
Q 1525 3078 1790 3245 
Q 2056 3413 2438 3413 
Q 2578 3413 2733 3391 
Q 2888 3369 3059 3328 
z
" transform="scale(0.015625)"/>
      <path id="DejaVuSerif-6f" d="M 1925 219 
Q 2388 219 2623 584 
Q 2859 950 2859 1663 
Q 2859 2375 2623 2739 
Q 2388 3103 1925 3103 
Q 1463 3103 1227 2739 
Q 991 2375 991 1663 
Q 991 950 1228 584 
Q 1466 219 1925 219 
z
M 1925 -91 
Q 1200 -91 759 389 
Q 319 869 319 1663 
Q 319 2456 758 2934 
Q 1197 3413 1925 3413 
Q 2653 3413 3092 2934 
Q 3531 2456 3531 1663 
Q 3531 869 3092 389 
Q 2653 -91 1925 -91 
z
" transform="scale(0.015625)"/>
     </defs>
     <use xlink:href="#DejaVuSerif-65"/>
     <use xlink:href="#DejaVuSerif-78" transform="translate(59.179688 0)"/>
     <use xlink:href="#DejaVuSerif-65" transform="translate(115.576172 0)"/>
     <use xlink:href="#DejaVuSerif-72" transform="translate(174.755859 0)"/>
     <use xlink:href="#DejaVuSerif-74" transform="translate(222.558594 0)"/>
     <use xlink:href="#DejaVuSerif-69" transform="translate(262.744141 0)"/>
     <use xlink:href="#DejaVuSerif-6f" transform="translate(294.726562 0)"/>
     <use xlink:href="#DejaVuSerif-6e" transform="translate(354.931641 0)"/>
    </g>
   </g>
   <g id="patch_7">
    <path d="M 217.468514 178.121213 
Q 236.485961 188.082732 254.751754 197.650529 
" style="fill: none; stroke: #3d3a33; stroke-width: 1.2; stroke-linecap: round"/>
    <path d="M 254.245565 196.030723 
L 254.751754 197.650529 
L 253.131948 198.156718 
" style="fill: none; stroke: #3d3a33; stroke-width: 1.2; stroke-linecap: round"/>
   </g>
   <g id="text_4">
    <!-- wind -->
    <g style="fill: #1b1b1b" transform="translate(262.026563 206.861469) scale(0.085 -0.085)">
     <defs>
      <path id="DejaVuSerif-77" d="M 3072 3322 
L 3922 728 
L 4672 2988 
L 4191 2988 
L 4191 3322 
L 5394 3322 
L 5394 2988 
L 5025 2988 
L 4038 0 
L 3559 0 
L 2741 2484 
L 1919 0 
L 1459 0 
L 475 2988 
L 103 2988 
L 103 3322 
L 1606 3322 
L 1606 2988 
L 1069 2988 
L 1813 728 
L 2669 3322 
L 3072 3322 
z
" transform="scale(0.015625)"/>
     </defs>
     <use xlink:href="#DejaVuSerif-77"/>
     <use xlink:href="#DejaVuSerif-69" transform="translate(85.595703 0)"/>
     <use xlink:href="#DejaVuSerif-6e" transform="translate(117.578125 0)"/>
     <use xlink:href="#DejaVuSerif-64" transform="translate(181.982422 0)"/>
    </g>
   </g>
   <g id="text_5">
    <!-- measures air temperature only -->
    <g style="fill: #8a8275" transform="translate(100.120078 281.34) scale(0.075 -0.075)">
     <defs>
      <path id="DejaVuSerif-Italic-6d" d="M 3503 2675 
Q 3741 3041 4034 3227 
Q 4328 3413 4672 3413 
Q 5194 3413 5388 3088 
Q 5503 2894 5503 2578 
Q 5503 2372 5453 2113 
L 5106 331 
L 5625 331 
L 5563 0 
L 4469 0 
L 4866 2047 
Q 4913 2291 4913 2466 
Q 4913 2659 4856 2772 
Q 4750 2988 4403 2988 
Q 4019 2988 3761 2697 
Q 3503 2406 3394 1850 
L 3034 0 
L 2459 0 
L 2863 2069 
Q 2906 2303 2906 2472 
Q 2906 2666 2850 2775 
Q 2741 2988 2394 2988 
Q 2009 2988 1751 2697 
Q 1494 2406 1384 1850 
L 1025 0 
L 450 0 
L 1031 2994 
L 481 2994 
L 544 3322 
L 1669 3322 
L 1556 2731 
Q 1778 3063 2059 3238 
Q 2341 3413 2653 3413 
Q 3041 3413 3262 3220 
Q 3484 3028 3503 2675 
z
" transform="scale(0.015625)"/>
      <path id="DejaVuSerif-Italic-65" d="M 938 1275 
Q 925 1156 925 1050 
Q 925 756 1031 563 
Q 1216 219 1709 219 
Q 2072 219 2250 328 
Q 2569 525 2644 778 
L 3066 778 
Q 2941 381 2475 103 
Q 2150 -91 1506 -91 
Q 863 -91 516 388 
Q 272 722 272 1206 
Q 272 1419 319 1659 
Q 472 2450 1000 2931 
Q 1528 3413 2278 3413 
Q 3500 3413 3500 2547 
Q 3500 1913 2859 1603 
Q 2206 1288 938 1275 
z
M 2541 1975 
Q 2891 2181 2891 2569 
Q 2891 3103 2181 3103 
Q 1763 3103 1472 2784 
Q 1181 2466 1003 1606 
Q 2006 1653 2541 1975 
z
" transform="scale(0.015625)"/>
      <path id="DejaVuSerif-Italic-61" d="M 2325 519 
Q 1909 -91 1238 -91 
Q 688 -91 409 281 
Q 216 544 216 919 
Q 216 1078 250 1256 
Q 463 2359 1231 2928 
Q 1884 3413 2675 3413 
Q 3206 3413 3388 3322 
L 2806 331 
L 3300 331 
L 3238 0 
L 2225 0 
L 2325 519 
z
M 822 938 
Q 822 269 1469 269 
Q 1863 269 2130 583 
Q 2397 897 2516 1497 
L 2806 3003 
L 2806 3003 
Q 2806 3094 2556 3094 
Q 1956 3094 1491 2625 
Q 1028 2153 863 1297 
Q 822 1097 822 938 
z
" transform="scale(0.015625)"/>
      <path id="DejaVuSerif-Italic-73" d="M 222 959 
L 553 959 
Q 541 869 541 788 
Q 541 219 1313 219 
Q 2088 219 2200 788 
Q 2209 844 2209 944 
Q 2209 1041 2103 1158 
Q 1997 1275 1550 1428 
L 1159 1569 
Q 759 1706 629 1882 
Q 500 2059 500 2263 
Q 500 2344 516 2438 
Q 606 2894 990 3153 
Q 1375 3413 1931 3413 
Q 2484 3413 3066 3144 
L 2925 2419 
L 2594 2419 
Q 2606 2491 2606 2553 
Q 2606 2781 2448 2942 
Q 2291 3103 1925 3103 
Q 1191 3103 1091 2591 
Q 1078 2538 1078 2444 
Q 1078 2347 1179 2237 
Q 1281 2128 1678 1997 
L 2106 1856 
Q 2550 1709 2716 1488 
Q 2831 1331 2831 1178 
Q 2831 522 2306 181 
Q 1894 -91 1262 -91 
Q 631 -91 72 184 
L 222 959 
z
" transform="scale(0.015625)"/>
      <path id="DejaVuSerif-Italic-75" d="M 3097 3322 
L 3672 3322 
L 3091 331 
L 3634 331 
L 3572 0 
L 2453 0 
L 2566 588 
Q 2341 256 2055 82 
Q 1769 -91 1434 -91 
Q 881 -91 681 225 
Q 559 413 559 734 
Q 559 944 613 1209 
L 956 2988 
L 438 2988 
L 503 3322 
L 1600 3322 
L 1225 1388 
Q 1163 1066 1163 853 
Q 1163 663 1213 556 
Q 1316 331 1697 331 
Q 2097 331 2364 625 
Q 2631 919 2738 1478 
L 3097 3322 
z
" transform="scale(0.015625)"/>
      <path id="DejaVuSerif-Italic-72" d="M 3375 3328 
L 3213 2497 
L 2881 2497 
Q 2891 2559 2891 2613 
Q 2891 2775 2816 2866 
Q 2719 2988 2484 2988 
Q 2059 2988 1775 2694 
Q 1491 2400 1384 1850 
L 1025 0 
L 450 0 
L 1031 2994 
L 481 2994 
L 544 3322 
L 1669 3322 
L 1556 2731 
Q 1791 3078 2089 3245 
Q 2388 3413 2769 3413 
Q 2909 3413 3059 3391 
Q 3209 3369 3375 3328 
z
" transform="scale(0.015625)"/>
      <path id="DejaVuSerif-Italic-20" transform="scale(0.015625)"/>
      <path id="DejaVuSerif-Italic-69" d="M 1009 4353 
Q 1038 4497 1163 4603 
Q 1288 4709 1434 4709 
Q 1578 4709 1663 4603 
Q 1728 4522 1728 4422 
Q 1728 4388 1719 4353 
Q 1691 4206 1567 4103 
Q 1444 4000 1297 4000 
Q 1150 4000 1066 4103 
Q 1003 4181 1003 4281 
Q 1003 4316 1009 4353 
z
M 963 331 
L 1506 331 
L 1444 0 
L 325 0 
L 903 2988 
L 353 2988 
L 419 3322 
L 1544 3322 
L 963 331 
z
" transform="scale(0.015625)"/>
      <path id="DejaVuSerif-Italic-74" d="M 856 2988 
L 350 2988 
L 416 3322 
L 922 3322 
L 1122 4353 
L 1700 4353 
L 1500 3322 
L 2581 3322 
L 2516 2988 
L 1434 2988 
L 1025 878 
Q 978 631 978 488 
Q 978 388 1000 338 
Q 1059 219 1278 219 
Q 1503 219 1633 351 
Q 1763 484 1825 781 
L 2259 781 
Q 2147 328 1884 118 
Q 1622 -91 1169 -91 
Q 672 -91 506 131 
Q 406 266 406 516 
Q 406 675 447 878 
L 856 2988 
z
" transform="scale(0.015625)"/>
      <path id="DejaVuSerif-Italic-70" d="M 1466 1825 
L 1400 1497 
Q 1353 1250 1353 1053 
Q 1353 769 1453 581 
Q 1622 269 2059 269 
Q 2500 269 2795 622 
Q 3091 975 3225 1663 
Q 3284 1978 3284 2225 
Q 3284 2513 3200 2703 
Q 3041 3053 2600 3053 
Q 2163 3053 1872 2737 
Q 1581 2422 1466 1825 
z
M 1116 2988 
L 563 2988 
L 628 3322 
L 1756 3322 
L 1656 2803 
Q 1884 3116 2175 3264 
Q 2466 3413 2850 3413 
Q 3463 3413 3753 2928 
Q 3947 2609 3947 2163 
Q 3947 1928 3897 1663 
Q 3744 881 3262 395 
Q 2781 -91 2169 -91 
Q 1784 -91 1551 57 
Q 1319 206 1213 519 
L 850 -1331 
L 275 -1331 
L 1116 2988 
z
" transform="scale(0.015625)"/>
      <path id="DejaVuSerif-Italic-6f" d="M 1644 219 
Q 2106 219 2414 584 
Q 2722 950 2859 1663 
Q 2922 1988 2922 2241 
Q 2922 2541 2834 2738 
Q 2669 3103 2206 3103 
Q 1744 3103 1436 2739 
Q 1128 2375 991 1663 
Q 928 1338 928 1088 
Q 928 784 1019 584 
Q 1184 219 1644 219 
z
M 1584 -91 
Q 859 -91 513 388 
Q 272 722 272 1203 
Q 272 1419 319 1663 
Q 472 2456 1005 2934 
Q 1538 3413 2266 3413 
Q 2994 3413 3341 2934 
Q 3578 2603 3578 2122 
Q 3578 1906 3531 1663 
Q 3378 869 2845 389 
Q 2313 -91 1584 -91 
z
" transform="scale(0.015625)"/>
      <path id="DejaVuSerif-Italic-6e" d="M 450 0 
L 1031 2988 
L 481 2988 
L 544 3322 
L 1669 3322 
L 1556 2731 
Q 1781 3069 2068 3241 
Q 2356 3413 2694 3413 
Q 3244 3413 3444 3097 
Q 3563 2906 3563 2588 
Q 3563 2378 3509 2113 
L 3163 331 
L 3675 331 
L 3613 0 
L 2522 0 
L 2897 1931 
Q 2959 2253 2959 2469 
Q 2959 2659 2909 2769 
Q 2803 2994 2425 2994 
Q 2025 2994 1759 2701 
Q 1494 2409 1384 1850 
L 1025 0 
L 450 0 
z
" transform="scale(0.015625)"/>
      <path id="DejaVuSerif-Italic-6c" d="M 903 331 
L 1447 331 
L 1384 0 
L 266 0 
L 1147 4531 
L 594 4531 
L 656 4863 
L 1784 4863 
L 903 331 
z
" transform="scale(0.015625)"/>
      <path id="DejaVuSerif-Italic-79" d="M 3681 3294 
Q 3372 1506 2828 563 
Q 2031 -822 1391 -1238 
Q 1106 -1422 356 -1422 
Q 209 -1422 60 -1397 
Q -88 -1372 -238 -1325 
L -113 -691 
L 181 -691 
Q 175 -741 175 -788 
Q 175 -919 231 -994 
Q 309 -1100 513 -1100 
Q 1063 -1100 1541 -622 
L 756 2988 
L 378 2988 
L 444 3322 
L 1303 3322 
L 2041 25 
Q 2544 778 2666 1088 
Q 3059 2059 3138 2959 
L 2759 2959 
L 2825 3294 
L 3681 3294 
z
" transform="scale(0.015625)"/>
     </defs>
     <use xlink:href="#DejaVuSerif-Italic-6d"/>
     <use xlink:href="#DejaVuSerif-Italic-65" transform="translate(94.824219 0)"/>
     <use xlink:href="#DejaVuSerif-Italic-61" transform="translate(154.003906 0)"/>
     <use xlink:href="#DejaVuSerif-Italic-73" transform="translate(213.623047 0)"/>
     <use xlink:href="#DejaVuSerif-Italic-75" transform="translate(264.941406 0)"/>
     <use xlink:href="#DejaVuSerif-Italic-72" transform="translate(329.345703 0)"/>
     <use xlink:href="#DejaVuSerif-Italic-65" transform="translate(377.148438 0)"/>
     <use xlink:href="#DejaVuSerif-Italic-73" transform="translate(436.328125 0)"/>
     <use xlink:href="#DejaVuSerif-Italic-20" transform="translate(487.646484 0)"/>
     <use xlink:href="#DejaVuSerif-Italic-61" transform="translate(519.433594 0)"/>
     <use xlink:href="#DejaVuSerif-Italic-69" transform="translate(579.052734 0)"/>
     <use xlink:href="#DejaVuSerif-Italic-72" transform="translate(611.035156 0)"/>
     <use xlink:href="#DejaVuSerif-Italic-20" transform="translate(658.837891 0)"/>
     <use xlink:href="#DejaVuSerif-Italic-74" transform="translate(690.625 0)"/>
     <use xlink:href="#DejaVuSerif-Italic-65" transform="translate(730.810547 0)"/>
     <use xlink:href="#DejaVuSerif-Italic-6d" transform="translate(789.990234 0)"/>
     <use xlink:href="#DejaVuSerif-Italic-70" transform="translate(884.814453 0)"/>
     <use xlink:href="#DejaVuSerif-Italic-65" transform="translate(948.828125 0)"/>
     <use xlink:href="#DejaVuSerif-Italic-72" transform="translate(1008.007812 0)"/>
     <use xlink:href="#DejaVuSerif-Italic-61" transform="translate(1055.810547 0)"/>
     <use xlink:href="#DejaVuSerif-Italic-74" transform="translate(1115.429688 0)"/>
     <use xlink:href="#DejaVuSerif-Italic-75" transform="translate(1155.615234 0)"/>
     <use xlink:href="#DejaVuSerif-Italic-72" transform="translate(1220.019531 0)"/>
     <use xlink:href="#DejaVuSerif-Italic-65" transform="translate(1267.822266 0)"/>
     <use xlink:href="#DejaVuSerif-Italic-20" transform="translate(1327.001953 0)"/>
     <use xlink:href="#DejaVuSerif-Italic-6f" transform="translate(1358.789062 0)"/>
     <use xlink:href="#DejaVuSerif-Italic-6e" transform="translate(1418.994141 0)"/>
     <use xlink:href="#DejaVuSerif-Italic-6c" transform="translate(1483.398438 0)"/>
     <use xlink:href="#DejaVuSerif-Italic-79" transform="translate(1515.380859 0)"/>
    </g>
   </g>
   <g id="text_6">
    <!-- What an air-temperature reading isn't measuring -->
    <g style="fill: #1b1b1b" transform="translate(21.373203 31.86) scale(0.11 -0.11)">
     <defs>
      <path id="DejaVuSerif-57" d="M 4878 0 
L 4366 0 
L 3297 3794 
L 2228 0 
L 1716 0 
L 494 4331 
L 31 4331 
L 31 4666 
L 1734 4666 
L 1734 4331 
L 1153 4331 
L 2125 884 
L 3188 4666 
L 3694 4666 
L 4775 844 
L 5753 4331 
L 5216 4331 
L 5216 4666 
L 6559 4666 
L 6559 4331 
L 6100 4331 
L 4878 0 
z
" transform="scale(0.015625)"/>
      <path id="DejaVuSerif-61" d="M 2547 1044 
L 2547 1747 
L 1806 1747 
Q 1378 1747 1168 1562 
Q 959 1378 959 997 
Q 959 650 1171 447 
Q 1384 244 1747 244 
Q 2106 244 2326 466 
Q 2547 688 2547 1044 
z
M 3122 2075 
L 3122 331 
L 3634 331 
L 3634 0 
L 2547 0 
L 2547 359 
Q 2356 128 2106 18 
Q 1856 -91 1522 -91 
Q 969 -91 644 203 
Q 319 497 319 997 
Q 319 1513 691 1797 
Q 1063 2081 1741 2081 
L 2547 2081 
L 2547 2309 
Q 2547 2688 2317 2895 
Q 2088 3103 1672 3103 
Q 1328 3103 1125 2947 
Q 922 2791 872 2484 
L 575 2484 
L 575 3156 
Q 875 3284 1158 3348 
Q 1441 3413 1709 3413 
Q 2400 3413 2761 3070 
Q 3122 2728 3122 2075 
z
" transform="scale(0.015625)"/>
      <path id="DejaVuSerif-20" transform="scale(0.015625)"/>
      <path id="DejaVuSerif-2d" d="M 281 1959 
L 1881 1959 
L 1881 1472 
L 281 1472 
L 281 1959 
z
" transform="scale(0.015625)"/>
      <path id="DejaVuSerif-70" d="M 1313 1825 
L 1313 1497 
Q 1313 897 1542 583 
Q 1772 269 2209 269 
Q 2650 269 2876 622 
Q 3103 975 3103 1663 
Q 3103 2353 2876 2703 
Q 2650 3053 2209 3053 
Q 1772 3053 1542 2737 
Q 1313 2422 1313 1825 
z
M 738 2988 
L 184 2988 
L 184 3322 
L 1313 3322 
L 1313 2803 
Q 1481 3116 1742 3264 
Q 2003 3413 2388 3413 
Q 3000 3413 3387 2928 
Q 3775 2444 3775 1663 
Q 3775 881 3387 395 
Q 3000 -91 2388 -91 
Q 2003 -91 1742 57 
Q 1481 206 1313 519 
L 1313 -997 
L 1856 -997 
L 1856 -1331 
L 184 -1331 
L 184 -997 
L 738 -997 
L 738 2988 
z
" transform="scale(0.015625)"/>
      <path id="DejaVuSerif-67" d="M 3359 2988 
L 3359 72 
Q 3359 -644 2965 -1033 
Q 2572 -1422 1844 -1422 
Q 1516 -1422 1216 -1362 
Q 916 -1303 641 -1184 
L 641 -488 
L 941 -488 
Q 997 -813 1206 -963 
Q 1416 -1113 1806 -1113 
Q 2313 -1113 2548 -827 
Q 2784 -541 2784 72 
L 2784 519 
Q 2616 206 2355 57 
Q 2094 -91 1709 -91 
Q 1097 -91 708 395 
Q 319 881 319 1663 
Q 319 2444 706 2928 
Q 1094 3413 1709 3413 
Q 2094 3413 2355 3264 
Q 2616 3116 2784 2803 
L 2784 3322 
L 3909 3322 
L 3909 2988 
L 3359 2988 
z
M 2784 1825 
Q 2784 2422 2554 2737 
Q 2325 3053 1888 3053 
Q 1444 3053 1217 2703 
Q 991 2353 991 1663 
Q 991 975 1217 622 
Q 1444 269 1888 269 
Q 2325 269 2554 583 
Q 2784 897 2784 1497 
L 2784 1825 
z
" transform="scale(0.015625)"/>
      <path id="DejaVuSerif-27" d="M 1125 4666 
L 1125 2931 
L 628 2931 
L 628 4666 
L 1125 4666 
z
" transform="scale(0.015625)"/>
     </defs>
     <use xlink:href="#DejaVuSerif-57"/>
     <use xlink:href="#DejaVuSerif-68" transform="translate(102.783203 0)"/>
     <use xlink:href="#DejaVuSerif-61" transform="translate(167.1875 0)"/>
     <use xlink:href="#DejaVuSerif-74" transform="translate(226.806641 0)"/>
     <use xlink:href="#DejaVuSerif-20" transform="translate(266.992188 0)"/>
     <use xlink:href="#DejaVuSerif-61" transform="translate(298.779297 0)"/>
     <use xlink:href="#DejaVuSerif-6e" transform="translate(358.398438 0)"/>
     <use xlink:href="#DejaVuSerif-20" transform="translate(422.802734 0)"/>
     <use xlink:href="#DejaVuSerif-61" transform="translate(454.589844 0)"/>
     <use xlink:href="#DejaVuSerif-69" transform="translate(514.208984 0)"/>
     <use xlink:href="#DejaVuSerif-72" transform="translate(546.191406 0)"/>
     <use xlink:href="#DejaVuSerif-2d" transform="translate(593.994141 0)"/>
     <use xlink:href="#DejaVuSerif-74" transform="translate(627.783203 0)"/>
     <use xlink:href="#DejaVuSerif-65" transform="translate(667.96875 0)"/>
     <use xlink:href="#DejaVuSerif-6d" transform="translate(727.148438 0)"/>
     <use xlink:href="#DejaVuSerif-70" transform="translate(821.972656 0)"/>
     <use xlink:href="#DejaVuSerif-65" transform="translate(885.986328 0)"/>
     <use xlink:href="#DejaVuSerif-72" transform="translate(945.166016 0)"/>
     <use xlink:href="#DejaVuSerif-61" transform="translate(992.96875 0)"/>
     <use xlink:href="#DejaVuSerif-74" transform="translate(1052.587891 0)"/>
     <use xlink:href="#DejaVuSerif-75" transform="translate(1092.773438 0)"/>
     <use xlink:href="#DejaVuSerif-72" transform="translate(1157.177734 0)"/>
     <use xlink:href="#DejaVuSerif-65" transform="translate(1204.980469 0)"/>
     <use xlink:href="#DejaVuSerif-20" transform="translate(1264.160156 0)"/>
     <use xlink:href="#DejaVuSerif-72" transform="translate(1295.947266 0)"/>
     <use xlink:href="#DejaVuSerif-65" transform="translate(1343.75 0)"/>
     <use xlink:href="#DejaVuSerif-61" transform="translate(1402.929688 0)"/>
     <use xlink:href="#DejaVuSerif-64" transform="translate(1462.548828 0)"/>
     <use xlink:href="#DejaVuSerif-69" transform="translate(1526.5625 0)"/>
     <use xlink:href="#DejaVuSerif-6e" transform="translate(1558.544922 0)"/>
     <use xlink:href="#DejaVuSerif-67" transform="translate(1622.949219 0)"/>
     <use xlink:href="#DejaVuSerif-20" transform="translate(1686.962891 0)"/>
     <use xlink:href="#DejaVuSerif-69" transform="translate(1718.75 0)"/>
     <use xlink:href="#DejaVuSerif-73" transform="translate(1750.732422 0)"/>
     <use xlink:href="#DejaVuSerif-6e" transform="translate(1802.050781 0)"/>
     <use xlink:href="#DejaVuSerif-27" transform="translate(1866.455078 0)"/>
     <use xlink:href="#DejaVuSerif-74" transform="translate(1893.945312 0)"/>
     <use xlink:href="#DejaVuSerif-20" transform="translate(1934.130859 0)"/>
     <use xlink:href="#DejaVuSerif-6d" transform="translate(1965.917969 0)"/>
     <use xlink:href="#DejaVuSerif-65" transform="translate(2060.742188 0)"/>
     <use xlink:href="#DejaVuSerif-61" transform="translate(2119.921875 0)"/>
     <use xlink:href="#DejaVuSerif-73" transform="translate(2179.541016 0)"/>
     <use xlink:href="#DejaVuSerif-75" transform="translate(2230.859375 0)"/>
     <use xlink:href="#DejaVuSerif-72" transform="translate(2295.263672 0)"/>
     <use xlink:href="#DejaVuSerif-69" transform="translate(2343.066406 0)"/>
     <use xlink:href="#DejaVuSerif-6e" transform="translate(2375.048828 0)"/>
     <use xlink:href="#DejaVuSerif-67" transform="translate(2439.453125 0)"/>
    </g>
   </g>
   <g id="line2d_10">
    <path d="M 159.066563 184.32 
L 159.066563 97.2 
" clip-path="url(#pc5eff67845)" style="fill: none; stroke: #3f5160; stroke-width: 2.5; stroke-linecap: square"/>
   </g>
   <g id="line2d_11">
    <defs>
     <path id="m59aba0508e" d="M 0 4 
C 1.060812 4 2.078319 3.578535 2.828427 2.828427 
C 3.578535 2.078319 4 1.060812 4 0 
C 4 -1.060812 3.578535 -2.078319 2.828427 -2.828427 
C 2.078319 -3.578535 1.060812 -4 0 -4 
C -1.060812 -4 -2.078319 -3.578535 -2.828427 -2.828427 
C -3.578535 -2.078319 -4 -1.060812 -4 0 
C -4 1.060812 -3.578535 2.078319 -2.828427 2.828427 
C -2.078319 3.578535 -1.060812 4 0 4 
z
" style="stroke: #3f5160"/>
    </defs>
    <g clip-path="url(#pc5eff67845)">
     <use xlink:href="#m59aba0508e" x="159.066563" y="184.32" style="fill: #3f5160; stroke: #3f5160"/>
    </g>
   </g>
   <g id="text_7">
    <!-- T -->
    <g style="fill: #3f5160" transform="translate(166.194563 143.243438) scale(0.09 -0.09)">
     <defs>
      <path id="DejaVuSerif-Italic-54" d="M 769 0 
L 831 331 
L 1428 331 
L 2200 4294 
L 828 4294 
L 688 3566 
L 303 3566 
L 516 4666 
L 4659 4666 
L 4447 3566 
L 4063 3566 
L 4203 4294 
L 2831 4294 
L 2059 331 
L 2656 331 
L 2594 0 
L 769 0 
z
" transform="scale(0.015625)"/>
     </defs>
     <use xlink:href="#DejaVuSerif-Italic-54"/>
    </g>
   </g>
  </g>
 </g>
 <defs>
  <clipPath id="pc5eff67845">
   <rect x="22.446563" y="18" width="273.24" height="277.2"/>
  </clipPath>
 </defs>
</svg>
