<?xml version="1.0" encoding="utf-8" standalone="no"?>
<!DOCTYPE svg PUBLIC "-//W3C//DTD SVG 1.1//EN"
  "http://www.w3.org/Graphics/SVG/1.1/DTD/svg11.dtd">
<svg xmlns:xlink="http://www.w3.org/1999/xlink" width="419.4pt" height="270.48375pt" viewBox="0 0 419.4 270.48375" xmlns="http://www.w3.org/2000/svg" version="1.1">
 <metadata>
  <rdf:RDF xmlns:dc="http://purl.org/dc/elements/1.1/" xmlns:cc="http://creativecommons.org/ns#" xmlns:rdf="http://www.w3.org/1999/02/22-rdf-syntax-ns#">
   <cc:Work>
    <dc:type rdf:resource="http://purl.org/dc/dcmitype/StillImage"/>
    <dc:date>2026-05-27T11:02:36.064575</dc:date>
    <dc:format>image/svg+xml</dc:format>
    <dc:creator>
     <cc:Agent>
      <dc:title>Matplotlib v3.10.9, https://matplotlib.org/</dc:title>
     </cc:Agent>
    </dc:creator>
   </cc:Work>
  </rdf:RDF>
 </metadata>
 <defs>
  <style type="text/css">*{stroke-linejoin: round; stroke-linecap: butt}</style>
 </defs>
 <g id="figure_1">
  <g id="patch_1">
   <path d="M 0 270.48375 
L 419.4 270.48375 
L 419.4 0 
L 0 0 
z
" style="fill: #f5efdf"/>
  </g>
  <g id="axes_1">
   <g id="patch_2">
    <path d="M 106.191 185.2875 
L 117.909 185.2875 
L 117.909 68.1075 
L 106.191 68.1075 
z
" clip-path="url(#pb1bc261b1c)" style="fill: #f5efdf; stroke: #3f5160; stroke-width: 1.2; stroke-linejoin: miter"/>
   </g>
   <g id="patch_3">
    <path d="M 203.841 185.2875 
L 215.559 185.2875 
L 215.559 68.1075 
L 203.841 68.1075 
z
" clip-path="url(#pb1bc261b1c)" style="fill: #f5efdf; stroke: #3d3a33; stroke-width: 1.2; stroke-linejoin: miter"/>
   </g>
   <g id="patch_4">
    <path d="M 301.491 185.2875 
L 313.209 185.2875 
L 313.209 68.1075 
L 301.491 68.1075 
z
" clip-path="url(#pb1bc261b1c)" style="fill: #f5efdf; stroke: #702424; stroke-width: 1.2; stroke-linejoin: miter"/>
   </g>
   <g id="patch_5">
    <path d="M 112.05 206.7705 
C 114.898679 206.7705 117.631067 205.638708 119.645387 203.624387 
C 121.659708 201.610067 122.7915 198.877679 122.7915 196.029 
C 122.7915 193.180321 121.659708 190.447933 119.645387 188.433613 
C 117.631067 186.419292 114.898679 185.2875 112.05 185.2875 
C 109.201321 185.2875 106.468933 186.419292 104.454613 188.433613 
C 102.440292 190.447933 101.3085 193.180321 101.3085 196.029 
C 101.3085 198.877679 102.440292 201.610067 104.454613 203.624387 
C 106.468933 205.638708 109.201321 206.7705 112.05 206.7705 
z
" clip-path="url(#pb1bc261b1c)" style="fill: #f5efdf; stroke: #3f5160; stroke-width: 1.4; stroke-linejoin: miter"/>
   </g>
   <g id="text_1">
    <!-- Td (dry-bulb) -->
    <g style="fill: #3f5160" transform="translate(85.3675 57.5415) scale(0.08 -0.08)">
     <defs>
      <path id="DejaVuSerif-Italic-54" d="M 769 0 
L 831 331 
L 1428 331 
L 2200 4294 
L 828 4294 
L 688 3566 
L 303 3566 
L 516 4666 
L 4659 4666 
L 4447 3566 
L 4063 3566 
L 4203 4294 
L 2831 4294 
L 2059 331 
L 2656 331 
L 2594 0 
L 769 0 
z
" transform="scale(0.015625)"/>
      <path id="DejaVuSerif-Italic-64" d="M 3841 4863 
L 2897 0 
L 2322 0 
L 2422 519 
Q 2191 206 1902 57 
Q 1613 -91 1228 -91 
Q 616 -91 322 394 
Q 125 716 125 1166 
Q 125 1397 178 1663 
Q 331 2444 812 2928 
Q 1294 3413 1909 3413 
Q 2294 3413 2525 3264 
Q 2756 3116 2866 2803 
L 3200 4531 
L 2656 4531 
L 2722 4863 
L 3841 4863 
z
M 2613 1497 
L 2675 1825 
Q 2722 2069 2722 2266 
Q 2722 2550 2622 2738 
Q 2456 3053 2019 3053 
Q 1575 3053 1279 2703 
Q 984 2353 850 1663 
Q 788 1347 788 1103 
Q 788 813 875 622 
Q 1031 269 1475 269 
Q 1913 269 2203 583 
Q 2494 897 2613 1497 
z
" transform="scale(0.015625)"/>
      <path id="DejaVuSerif-Italic-20" transform="scale(0.015625)"/>
      <path id="DejaVuSerif-Italic-28" d="M 1472 -997 
Q 778 -656 534 83 
Q 291 822 506 1931 
Q 722 3044 1253 3783 
Q 1784 4522 2609 4863 
L 2550 4556 
Q 2006 4225 1679 3623 
Q 1353 3022 1141 1931 
Q 928 844 1020 242 
Q 1113 -359 1531 -691 
L 1472 -997 
z
" transform="scale(0.015625)"/>
      <path id="DejaVuSerif-Italic-72" d="M 3375 3328 
L 3213 2497 
L 2881 2497 
Q 2891 2559 2891 2613 
Q 2891 2775 2816 2866 
Q 2719 2988 2484 2988 
Q 2059 2988 1775 2694 
Q 1491 2400 1384 1850 
L 1025 0 
L 450 0 
L 1031 2994 
L 481 2994 
L 544 3322 
L 1669 3322 
L 1556 2731 
Q 1791 3078 2089 3245 
Q 2388 3413 2769 3413 
Q 2909 3413 3059 3391 
Q 3209 3369 3375 3328 
z
" transform="scale(0.015625)"/>
      <path id="DejaVuSerif-Italic-79" d="M 3681 3294 
Q 3372 1506 2828 563 
Q 2031 -822 1391 -1238 
Q 1106 -1422 356 -1422 
Q 209 -1422 60 -1397 
Q -88 -1372 -238 -1325 
L -113 -691 
L 181 -691 
Q 175 -741 175 -788 
Q 175 -919 231 -994 
Q 309 -1100 513 -1100 
Q 1063 -1100 1541 -622 
L 756 2988 
L 378 2988 
L 444 3322 
L 1303 3322 
L 2041 25 
Q 2544 778 2666 1088 
Q 3059 2059 3138 2959 
L 2759 2959 
L 2825 3294 
L 3681 3294 
z
" transform="scale(0.015625)"/>
      <path id="DejaVuSerif-Italic-2d" d="M 328 1959 
L 1928 1959 
L 1834 1472 
L 234 1472 
L 328 1959 
z
" transform="scale(0.015625)"/>
      <path id="DejaVuSerif-Italic-62" d="M 1153 4531 
L 600 4531 
L 666 4863 
L 1794 4863 
L 1394 2803 
Q 1622 3116 1912 3264 
Q 2203 3413 2588 3413 
Q 3200 3413 3494 2928 
Q 3688 2609 3688 2163 
Q 3688 1928 3634 1663 
Q 3481 881 3000 395 
Q 2519 -91 1906 -91 
Q 1522 -91 1289 57 
Q 1056 206 950 519 
L 850 0 
L 275 0 
L 1153 4531 
z
M 1141 1497 
Q 1091 1250 1091 1053 
Q 1091 769 1191 581 
Q 1359 269 1797 269 
Q 2238 269 2533 622 
Q 2828 975 2963 1663 
Q 3025 1978 3025 2225 
Q 3025 2513 2938 2703 
Q 2781 3053 2338 3053 
Q 1900 3053 1609 2737 
Q 1319 2422 1203 1825 
L 1141 1497 
z
" transform="scale(0.015625)"/>
      <path id="DejaVuSerif-Italic-75" d="M 3097 3322 
L 3672 3322 
L 3091 331 
L 3634 331 
L 3572 0 
L 2453 0 
L 2566 588 
Q 2341 256 2055 82 
Q 1769 -91 1434 -91 
Q 881 -91 681 225 
Q 559 413 559 734 
Q 559 944 613 1209 
L 956 2988 
L 438 2988 
L 503 3322 
L 1600 3322 
L 1225 1388 
Q 1163 1066 1163 853 
Q 1163 663 1213 556 
Q 1316 331 1697 331 
Q 2097 331 2364 625 
Q 2631 919 2738 1478 
L 3097 3322 
z
" transform="scale(0.015625)"/>
      <path id="DejaVuSerif-Italic-6c" d="M 903 331 
L 1447 331 
L 1384 0 
L 266 0 
L 1147 4531 
L 594 4531 
L 656 4863 
L 1784 4863 
L 903 331 
z
" transform="scale(0.015625)"/>
      <path id="DejaVuSerif-Italic-29" d="M -113 -997 
L -53 -691 
Q 491 -359 819 242 
Q 1147 844 1359 1931 
Q 1572 3022 1478 3623 
Q 1384 4225 966 4556 
L 1025 4863 
Q 1722 4522 1965 3783 
Q 2209 3044 1994 1931 
Q 1778 822 1247 83 
Q 716 -656 -113 -997 
z
" transform="scale(0.015625)"/>
     </defs>
     <use xlink:href="#DejaVuSerif-Italic-54"/>
     <use xlink:href="#DejaVuSerif-Italic-64" transform="translate(66.699219 0)"/>
     <use xlink:href="#DejaVuSerif-Italic-20" transform="translate(130.712891 0)"/>
     <use xlink:href="#DejaVuSerif-Italic-28" transform="translate(162.5 0)"/>
     <use xlink:href="#DejaVuSerif-Italic-64" transform="translate(201.513672 0)"/>
     <use xlink:href="#DejaVuSerif-Italic-72" transform="translate(265.527344 0)"/>
     <use xlink:href="#DejaVuSerif-Italic-79" transform="translate(313.330078 0)"/>
     <use xlink:href="#DejaVuSerif-Italic-2d" transform="translate(369.824219 0)"/>
     <use xlink:href="#DejaVuSerif-Italic-62" transform="translate(403.613281 0)"/>
     <use xlink:href="#DejaVuSerif-Italic-75" transform="translate(467.626953 0)"/>
     <use xlink:href="#DejaVuSerif-Italic-6c" transform="translate(532.03125 0)"/>
     <use xlink:href="#DejaVuSerif-Italic-62" transform="translate(564.013672 0)"/>
     <use xlink:href="#DejaVuSerif-Italic-29" transform="translate(628.027344 0)"/>
    </g>
   </g>
   <g id="text_2">
    <!-- dry air -->
    <g style="fill: #8a8275" transform="translate(99.31875 219.304828) scale(0.075 -0.075)">
     <defs>
      <path id="DejaVuSerif-64" d="M 3359 331 
L 3909 331 
L 3909 0 
L 2784 0 
L 2784 519 
Q 2616 206 2355 57 
Q 2094 -91 1709 -91 
Q 1097 -91 708 395 
Q 319 881 319 1663 
Q 319 2444 706 2928 
Q 1094 3413 1709 3413 
Q 2094 3413 2355 3264 
Q 2616 3116 2784 2803 
L 2784 4531 
L 2241 4531 
L 2241 4863 
L 3359 4863 
L 3359 331 
z
M 2784 1497 
L 2784 1825 
Q 2784 2422 2554 2737 
Q 2325 3053 1888 3053 
Q 1444 3053 1217 2703 
Q 991 2353 991 1663 
Q 991 975 1217 622 
Q 1444 269 1888 269 
Q 2325 269 2554 583 
Q 2784 897 2784 1497 
z
" transform="scale(0.015625)"/>
      <path id="DejaVuSerif-72" d="M 3059 3328 
L 3059 2497 
L 2728 2497 
Q 2713 2744 2591 2866 
Q 2469 2988 2234 2988 
Q 1809 2988 1582 2694 
Q 1356 2400 1356 1850 
L 1356 331 
L 2022 331 
L 2022 0 
L 263 0 
L 263 331 
L 781 331 
L 781 2994 
L 231 2994 
L 231 3322 
L 1356 3322 
L 1356 2731 
Q 1525 3078 1790 3245 
Q 2056 3413 2438 3413 
Q 2578 3413 2733 3391 
Q 2888 3369 3059 3328 
z
" transform="scale(0.015625)"/>
      <path id="DejaVuSerif-79" d="M 1381 -609 
L 1600 -56 
L 359 2988 
L -19 2988 
L -19 3322 
L 1509 3322 
L 1509 2988 
L 978 2988 
L 1913 703 
L 2847 2988 
L 2350 2988 
L 2350 3322 
L 3597 3322 
L 3597 2988 
L 3225 2988 
L 1703 -750 
Q 1547 -1138 1356 -1280 
Q 1166 -1422 819 -1422 
Q 672 -1422 517 -1397 
Q 363 -1372 206 -1325 
L 206 -691 
L 500 -691 
Q 519 -903 608 -995 
Q 697 -1088 884 -1088 
Q 1056 -1088 1161 -992 
Q 1266 -897 1381 -609 
z
" transform="scale(0.015625)"/>
      <path id="DejaVuSerif-20" transform="scale(0.015625)"/>
      <path id="DejaVuSerif-61" d="M 2547 1044 
L 2547 1747 
L 1806 1747 
Q 1378 1747 1168 1562 
Q 959 1378 959 997 
Q 959 650 1171 447 
Q 1384 244 1747 244 
Q 2106 244 2326 466 
Q 2547 688 2547 1044 
z
M 3122 2075 
L 3122 331 
L 3634 331 
L 3634 0 
L 2547 0 
L 2547 359 
Q 2356 128 2106 18 
Q 1856 -91 1522 -91 
Q 969 -91 644 203 
Q 319 497 319 997 
Q 319 1513 691 1797 
Q 1063 2081 1741 2081 
L 2547 2081 
L 2547 2309 
Q 2547 2688 2317 2895 
Q 2088 3103 1672 3103 
Q 1328 3103 1125 2947 
Q 922 2791 872 2484 
L 575 2484 
L 575 3156 
Q 875 3284 1158 3348 
Q 1441 3413 1709 3413 
Q 2400 3413 2761 3070 
Q 3122 2728 3122 2075 
z
" transform="scale(0.015625)"/>
      <path id="DejaVuSerif-69" d="M 622 4353 
Q 622 4497 726 4603 
Q 831 4709 978 4709 
Q 1122 4709 1226 4603 
Q 1331 4497 1331 4353 
Q 1331 4206 1228 4103 
Q 1125 4000 978 4000 
Q 831 4000 726 4103 
Q 622 4206 622 4353 
z
M 1356 331 
L 1900 331 
L 1900 0 
L 231 0 
L 231 331 
L 781 331 
L 781 2988 
L 231 2988 
L 231 3322 
L 1356 3322 
L 1356 331 
z
" transform="scale(0.015625)"/>
     </defs>
     <use xlink:href="#DejaVuSerif-64"/>
     <use xlink:href="#DejaVuSerif-72" transform="translate(64.013672 0)"/>
     <use xlink:href="#DejaVuSerif-79" transform="translate(111.816406 0)"/>
     <use xlink:href="#DejaVuSerif-20" transform="translate(168.310547 0)"/>
     <use xlink:href="#DejaVuSerif-61" transform="translate(200.097656 0)"/>
     <use xlink:href="#DejaVuSerif-69" transform="translate(259.716797 0)"/>
     <use xlink:href="#DejaVuSerif-72" transform="translate(291.699219 0)"/>
    </g>
   </g>
   <g id="patch_6">
    <path d="M 209.7 206.7705 
C 212.548679 206.7705 215.281067 205.638708 217.295387 203.624387 
C 219.309708 201.610067 220.4415 198.877679 220.4415 196.029 
C 220.4415 193.180321 219.309708 190.447933 217.295387 188.433613 
C 215.281067 186.419292 212.548679 185.2875 209.7 185.2875 
C 206.851321 185.2875 204.118933 186.419292 202.104613 188.433613 
C 200.090292 190.447933 198.9585 193.180321 198.9585 196.029 
C 198.9585 198.877679 200.090292 201.610067 202.104613 203.624387 
C 204.118933 205.638708 206.851321 206.7705 209.7 206.7705 
z
" clip-path="url(#pb1bc261b1c)" style="fill: #f5efdf; stroke: #3d3a33; stroke-width: 1.4; stroke-linejoin: miter"/>
   </g>
   <g id="text_3">
    <!-- Tnwb (natural wet-bulb) -->
    <g style="fill: #3d3a33" transform="translate(160.35875 57.65525) scale(0.08 -0.08)">
     <defs>
      <path id="DejaVuSerif-Italic-6e" d="M 450 0 
L 1031 2988 
L 481 2988 
L 544 3322 
L 1669 3322 
L 1556 2731 
Q 1781 3069 2068 3241 
Q 2356 3413 2694 3413 
Q 3244 3413 3444 3097 
Q 3563 2906 3563 2588 
Q 3563 2378 3509 2113 
L 3163 331 
L 3675 331 
L 3613 0 
L 2522 0 
L 2897 1931 
Q 2959 2253 2959 2469 
Q 2959 2659 2909 2769 
Q 2803 2994 2425 2994 
Q 2025 2994 1759 2701 
Q 1494 2409 1384 1850 
L 1025 0 
L 450 0 
z
" transform="scale(0.015625)"/>
      <path id="DejaVuSerif-Italic-77" d="M 3741 728 
Q 4156 1178 4250 1344 
Q 4594 1969 4931 2988 
L 4447 2984 
L 4513 3322 
L 5347 3322 
L 5281 2984 
L 5278 2984 
Q 4959 1825 4656 1266 
Q 4209 469 3719 0 
L 3241 0 
L 2900 2484 
L 1597 0 
L 1138 0 
L 734 2988 
L 359 2981 
L 425 3322 
L 1281 3322 
L 1631 728 
L 2991 3322 
L 3394 3322 
L 3741 728 
z
" transform="scale(0.015625)"/>
      <path id="DejaVuSerif-Italic-61" d="M 2325 519 
Q 1909 -91 1238 -91 
Q 688 -91 409 281 
Q 216 544 216 919 
Q 216 1078 250 1256 
Q 463 2359 1231 2928 
Q 1884 3413 2675 3413 
Q 3206 3413 3388 3322 
L 2806 331 
L 3300 331 
L 3238 0 
L 2225 0 
L 2325 519 
z
M 822 938 
Q 822 269 1469 269 
Q 1863 269 2130 583 
Q 2397 897 2516 1497 
L 2806 3003 
L 2806 3003 
Q 2806 3094 2556 3094 
Q 1956 3094 1491 2625 
Q 1028 2153 863 1297 
Q 822 1097 822 938 
z
" transform="scale(0.015625)"/>
      <path id="DejaVuSerif-Italic-74" d="M 856 2988 
L 350 2988 
L 416 3322 
L 922 3322 
L 1122 4353 
L 1700 4353 
L 1500 3322 
L 2581 3322 
L 2516 2988 
L 1434 2988 
L 1025 878 
Q 978 631 978 488 
Q 978 388 1000 338 
Q 1059 219 1278 219 
Q 1503 219 1633 351 
Q 1763 484 1825 781 
L 2259 781 
Q 2147 328 1884 118 
Q 1622 -91 1169 -91 
Q 672 -91 506 131 
Q 406 266 406 516 
Q 406 675 447 878 
L 856 2988 
z
" transform="scale(0.015625)"/>
      <path id="DejaVuSerif-Italic-65" d="M 938 1275 
Q 925 1156 925 1050 
Q 925 756 1031 563 
Q 1216 219 1709 219 
Q 2072 219 2250 328 
Q 2569 525 2644 778 
L 3066 778 
Q 2941 381 2475 103 
Q 2150 -91 1506 -91 
Q 863 -91 516 388 
Q 272 722 272 1206 
Q 272 1419 319 1659 
Q 472 2450 1000 2931 
Q 1528 3413 2278 3413 
Q 3500 3413 3500 2547 
Q 3500 1913 2859 1603 
Q 2206 1288 938 1275 
z
M 2541 1975 
Q 2891 2181 2891 2569 
Q 2891 3103 2181 3103 
Q 1763 3103 1472 2784 
Q 1181 2466 1003 1606 
Q 2006 1653 2541 1975 
z
" transform="scale(0.015625)"/>
     </defs>
     <use xlink:href="#DejaVuSerif-Italic-54"/>
     <use xlink:href="#DejaVuSerif-Italic-6e" transform="translate(66.699219 0)"/>
     <use xlink:href="#DejaVuSerif-Italic-77" transform="translate(131.103516 0)"/>
     <use xlink:href="#DejaVuSerif-Italic-62" transform="translate(216.699219 0)"/>
     <use xlink:href="#DejaVuSerif-Italic-20" transform="translate(280.712891 0)"/>
     <use xlink:href="#DejaVuSerif-Italic-28" transform="translate(312.5 0)"/>
     <use xlink:href="#DejaVuSerif-Italic-6e" transform="translate(351.513672 0)"/>
     <use xlink:href="#DejaVuSerif-Italic-61" transform="translate(415.917969 0)"/>
     <use xlink:href="#DejaVuSerif-Italic-74" transform="translate(475.537109 0)"/>
     <use xlink:href="#DejaVuSerif-Italic-75" transform="translate(515.722656 0)"/>
     <use xlink:href="#DejaVuSerif-Italic-72" transform="translate(580.126953 0)"/>
     <use xlink:href="#DejaVuSerif-Italic-61" transform="translate(627.929688 0)"/>
     <use xlink:href="#DejaVuSerif-Italic-6c" transform="translate(687.548828 0)"/>
     <use xlink:href="#DejaVuSerif-Italic-20" transform="translate(719.53125 0)"/>
     <use xlink:href="#DejaVuSerif-Italic-77" transform="translate(751.318359 0)"/>
     <use xlink:href="#DejaVuSerif-Italic-65" transform="translate(836.914062 0)"/>
     <use xlink:href="#DejaVuSerif-Italic-74" transform="translate(896.09375 0)"/>
     <use xlink:href="#DejaVuSerif-Italic-2d" transform="translate(936.279297 0)"/>
     <use xlink:href="#DejaVuSerif-Italic-62" transform="translate(970.068359 0)"/>
     <use xlink:href="#DejaVuSerif-Italic-75" transform="translate(1034.082031 0)"/>
     <use xlink:href="#DejaVuSerif-Italic-6c" transform="translate(1098.486328 0)"/>
     <use xlink:href="#DejaVuSerif-Italic-62" transform="translate(1130.46875 0)"/>
     <use xlink:href="#DejaVuSerif-Italic-29" transform="translate(1194.482422 0)"/>
    </g>
   </g>
   <g id="text_4">
    <!-- evaporative cooling -->
    <g style="fill: #8a8275" transform="translate(172.372852 219.304828) scale(0.075 -0.075)">
     <defs>
      <path id="DejaVuSerif-65" d="M 3469 1600 
L 991 1600 
L 991 1575 
Q 991 903 1244 561 
Q 1497 219 1991 219 
Q 2369 219 2611 417 
Q 2853 616 2950 1006 
L 3413 1006 
Q 3275 459 2904 184 
Q 2534 -91 1931 -91 
Q 1203 -91 761 389 
Q 319 869 319 1663 
Q 319 2450 753 2931 
Q 1188 3413 1894 3413 
Q 2647 3413 3050 2948 
Q 3453 2484 3469 1600 
z
M 2791 1931 
Q 2772 2513 2545 2808 
Q 2319 3103 1894 3103 
Q 1497 3103 1269 2806 
Q 1041 2509 991 1931 
L 2791 1931 
z
" transform="scale(0.015625)"/>
      <path id="DejaVuSerif-76" d="M 1581 0 
L 359 2988 
L -19 2988 
L -19 3322 
L 1509 3322 
L 1509 2988 
L 978 2988 
L 1913 703 
L 2847 2988 
L 2350 2988 
L 2350 3322 
L 3597 3322 
L 3597 2988 
L 3225 2988 
L 2003 0 
L 1581 0 
z
" transform="scale(0.015625)"/>
      <path id="DejaVuSerif-70" d="M 1313 1825 
L 1313 1497 
Q 1313 897 1542 583 
Q 1772 269 2209 269 
Q 2650 269 2876 622 
Q 3103 975 3103 1663 
Q 3103 2353 2876 2703 
Q 2650 3053 2209 3053 
Q 1772 3053 1542 2737 
Q 1313 2422 1313 1825 
z
M 738 2988 
L 184 2988 
L 184 3322 
L 1313 3322 
L 1313 2803 
Q 1481 3116 1742 3264 
Q 2003 3413 2388 3413 
Q 3000 3413 3387 2928 
Q 3775 2444 3775 1663 
Q 3775 881 3387 395 
Q 3000 -91 2388 -91 
Q 2003 -91 1742 57 
Q 1481 206 1313 519 
L 1313 -997 
L 1856 -997 
L 1856 -1331 
L 184 -1331 
L 184 -997 
L 738 -997 
L 738 2988 
z
" transform="scale(0.015625)"/>
      <path id="DejaVuSerif-6f" d="M 1925 219 
Q 2388 219 2623 584 
Q 2859 950 2859 1663 
Q 2859 2375 2623 2739 
Q 2388 3103 1925 3103 
Q 1463 3103 1227 2739 
Q 991 2375 991 1663 
Q 991 950 1228 584 
Q 1466 219 1925 219 
z
M 1925 -91 
Q 1200 -91 759 389 
Q 319 869 319 1663 
Q 319 2456 758 2934 
Q 1197 3413 1925 3413 
Q 2653 3413 3092 2934 
Q 3531 2456 3531 1663 
Q 3531 869 3092 389 
Q 2653 -91 1925 -91 
z
" transform="scale(0.015625)"/>
      <path id="DejaVuSerif-74" d="M 691 2988 
L 184 2988 
L 184 3322 
L 691 3322 
L 691 4353 
L 1269 4353 
L 1269 3322 
L 2350 3322 
L 2350 2988 
L 1269 2988 
L 1269 878 
Q 1269 456 1350 337 
Q 1431 219 1650 219 
Q 1875 219 1978 351 
Q 2081 484 2088 781 
L 2522 781 
Q 2497 328 2275 118 
Q 2053 -91 1600 -91 
Q 1103 -91 897 129 
Q 691 350 691 878 
L 691 2988 
z
" transform="scale(0.015625)"/>
      <path id="DejaVuSerif-63" d="M 3291 997 
Q 3169 466 2822 187 
Q 2475 -91 1925 -91 
Q 1200 -91 759 389 
Q 319 869 319 1663 
Q 319 2459 759 2936 
Q 1200 3413 1925 3413 
Q 2241 3413 2553 3339 
Q 2866 3266 3181 3116 
L 3181 2266 
L 2847 2266 
Q 2781 2703 2561 2903 
Q 2341 3103 1931 3103 
Q 1466 3103 1228 2742 
Q 991 2381 991 1663 
Q 991 944 1227 581 
Q 1463 219 1931 219 
Q 2303 219 2525 412 
Q 2747 606 2828 997 
L 3291 997 
z
" transform="scale(0.015625)"/>
      <path id="DejaVuSerif-6c" d="M 1313 331 
L 1856 331 
L 1856 0 
L 184 0 
L 184 331 
L 738 331 
L 738 4531 
L 184 4531 
L 184 4863 
L 1313 4863 
L 1313 331 
z
" transform="scale(0.015625)"/>
      <path id="DejaVuSerif-6e" d="M 263 0 
L 263 331 
L 781 331 
L 781 2988 
L 231 2988 
L 231 3322 
L 1356 3322 
L 1356 2731 
Q 1516 3069 1770 3241 
Q 2025 3413 2363 3413 
Q 2913 3413 3172 3097 
Q 3431 2781 3431 2113 
L 3431 331 
L 3944 331 
L 3944 0 
L 2356 0 
L 2356 331 
L 2853 331 
L 2853 1931 
Q 2853 2541 2703 2767 
Q 2553 2994 2175 2994 
Q 1775 2994 1565 2701 
Q 1356 2409 1356 1850 
L 1356 331 
L 1856 331 
L 1856 0 
L 263 0 
z
" transform="scale(0.015625)"/>
      <path id="DejaVuSerif-67" d="M 3359 2988 
L 3359 72 
Q 3359 -644 2965 -1033 
Q 2572 -1422 1844 -1422 
Q 1516 -1422 1216 -1362 
Q 916 -1303 641 -1184 
L 641 -488 
L 941 -488 
Q 997 -813 1206 -963 
Q 1416 -1113 1806 -1113 
Q 2313 -1113 2548 -827 
Q 2784 -541 2784 72 
L 2784 519 
Q 2616 206 2355 57 
Q 2094 -91 1709 -91 
Q 1097 -91 708 395 
Q 319 881 319 1663 
Q 319 2444 706 2928 
Q 1094 3413 1709 3413 
Q 2094 3413 2355 3264 
Q 2616 3116 2784 2803 
L 2784 3322 
L 3909 3322 
L 3909 2988 
L 3359 2988 
z
M 2784 1825 
Q 2784 2422 2554 2737 
Q 2325 3053 1888 3053 
Q 1444 3053 1217 2703 
Q 991 2353 991 1663 
Q 991 975 1217 622 
Q 1444 269 1888 269 
Q 2325 269 2554 583 
Q 2784 897 2784 1497 
L 2784 1825 
z
" transform="scale(0.015625)"/>
     </defs>
     <use xlink:href="#DejaVuSerif-65"/>
     <use xlink:href="#DejaVuSerif-76" transform="translate(59.179688 0)"/>
     <use xlink:href="#DejaVuSerif-61" transform="translate(115.673828 0)"/>
     <use xlink:href="#DejaVuSerif-70" transform="translate(175.292969 0)"/>
     <use xlink:href="#DejaVuSerif-6f" transform="translate(239.306641 0)"/>
     <use xlink:href="#DejaVuSerif-72" transform="translate(299.511719 0)"/>
     <use xlink:href="#DejaVuSerif-61" transform="translate(347.314453 0)"/>
     <use xlink:href="#DejaVuSerif-74" transform="translate(406.933594 0)"/>
     <use xlink:href="#DejaVuSerif-69" transform="translate(447.119141 0)"/>
     <use xlink:href="#DejaVuSerif-76" transform="translate(479.101562 0)"/>
     <use xlink:href="#DejaVuSerif-65" transform="translate(535.595703 0)"/>
     <use xlink:href="#DejaVuSerif-20" transform="translate(594.775391 0)"/>
     <use xlink:href="#DejaVuSerif-63" transform="translate(626.5625 0)"/>
     <use xlink:href="#DejaVuSerif-6f" transform="translate(682.568359 0)"/>
     <use xlink:href="#DejaVuSerif-6f" transform="translate(742.773438 0)"/>
     <use xlink:href="#DejaVuSerif-6c" transform="translate(802.978516 0)"/>
     <use xlink:href="#DejaVuSerif-69" transform="translate(834.960938 0)"/>
     <use xlink:href="#DejaVuSerif-6e" transform="translate(866.943359 0)"/>
     <use xlink:href="#DejaVuSerif-67" transform="translate(931.347656 0)"/>
    </g>
   </g>
   <g id="patch_7">
    <path d="M 307.35 206.7705 
C 310.198679 206.7705 312.931067 205.638708 314.945387 203.624387 
C 316.959708 201.610067 318.0915 198.877679 318.0915 196.029 
C 318.0915 193.180321 316.959708 190.447933 314.945387 188.433613 
C 312.931067 186.419292 310.198679 185.2875 307.35 185.2875 
C 304.501321 185.2875 301.768933 186.419292 299.754613 188.433613 
C 297.740292 190.447933 296.6085 193.180321 296.6085 196.029 
C 296.6085 198.877679 297.740292 201.610067 299.754613 203.624387 
C 301.768933 205.638708 304.501321 206.7705 307.35 206.7705 
z
" clip-path="url(#pb1bc261b1c)" style="fill: #1b1b1b"/>
   </g>
   <g id="text_5">
    <!-- Tg (black globe) -->
    <g style="fill: #702424" transform="translate(274.3925 57.5415) scale(0.08 -0.08)">
     <defs>
      <path id="DejaVuSerif-Italic-67" d="M 3822 3322 
L 3188 72 
Q 3044 -672 2581 -1031 
Q 2078 -1422 1381 -1422 
Q 1053 -1422 765 -1362 
Q 478 -1303 225 -1184 
L 363 -488 
L 663 -488 
Q 653 -813 834 -963 
Q 1016 -1113 1406 -1113 
Q 1913 -1113 2203 -825 
Q 2494 -544 2613 72 
L 2700 519 
Q 2472 206 2181 57 
Q 1891 -91 1525 -91 
Q 975 -91 697 281 
Q 522 516 503 841 
Q 491 1031 534 1256 
Q 750 2359 1516 2928 
Q 2169 3409 2931 3413 
Q 3631 3416 3822 3322 
z
M 3184 2988 
Q 3181 3094 2844 3094 
Q 2234 3094 1775 2625 
Q 1316 2153 1147 1297 
Q 1100 1044 1113 853 
Q 1125 659 1203 528 
Q 1356 269 1756 269 
Q 2194 269 2484 583 
Q 2775 897 2891 1497 
L 2953 1825 
L 3184 2988 
z
" transform="scale(0.015625)"/>
      <path id="DejaVuSerif-Italic-63" d="M 3163 997 
Q 2938 466 2536 187 
Q 2134 -91 1584 -91 
Q 859 -91 513 388 
Q 272 722 272 1203 
Q 272 1419 319 1663 
Q 475 2459 1008 2936 
Q 1541 3413 2266 3413 
Q 2581 3413 2879 3339 
Q 3178 3266 3463 3116 
L 3300 2266 
L 2966 2266 
Q 2966 2309 2966 2347 
Q 2966 2722 2803 2903 
Q 2622 3103 2213 3103 
Q 1747 3103 1439 2742 
Q 1131 2381 991 1663 
Q 928 1334 928 1078 
Q 928 778 1016 581 
Q 1181 219 1650 219 
Q 2022 219 2281 412 
Q 2541 606 2700 997 
L 3163 997 
z
" transform="scale(0.015625)"/>
      <path id="DejaVuSerif-Italic-6b" d="M 2113 2075 
L 3034 331 
L 3513 331 
L 3450 0 
L 2528 0 
L 1622 1697 
L 1088 1275 
L 841 0 
L 266 0 
L 1147 4531 
L 594 4531 
L 656 4863 
L 1784 4863 
L 1169 1697 
L 2822 2988 
L 2344 2988 
L 2406 3322 
L 3341 3322 
L 3278 2988 
L 2113 2075 
z
" transform="scale(0.015625)"/>
      <path id="DejaVuSerif-Italic-6f" d="M 1644 219 
Q 2106 219 2414 584 
Q 2722 950 2859 1663 
Q 2922 1988 2922 2241 
Q 2922 2541 2834 2738 
Q 2669 3103 2206 3103 
Q 1744 3103 1436 2739 
Q 1128 2375 991 1663 
Q 928 1338 928 1088 
Q 928 784 1019 584 
Q 1184 219 1644 219 
z
M 1584 -91 
Q 859 -91 513 388 
Q 272 722 272 1203 
Q 272 1419 319 1663 
Q 472 2456 1005 2934 
Q 1538 3413 2266 3413 
Q 2994 3413 3341 2934 
Q 3578 2603 3578 2122 
Q 3578 1906 3531 1663 
Q 3378 869 2845 389 
Q 2313 -91 1584 -91 
z
" transform="scale(0.015625)"/>
     </defs>
     <use xlink:href="#DejaVuSerif-Italic-54"/>
     <use xlink:href="#DejaVuSerif-Italic-67" transform="translate(66.699219 0)"/>
     <use xlink:href="#DejaVuSerif-Italic-20" transform="translate(130.712891 0)"/>
     <use xlink:href="#DejaVuSerif-Italic-28" transform="translate(162.5 0)"/>
     <use xlink:href="#DejaVuSerif-Italic-62" transform="translate(201.513672 0)"/>
     <use xlink:href="#DejaVuSerif-Italic-6c" transform="translate(265.527344 0)"/>
     <use xlink:href="#DejaVuSerif-Italic-61" transform="translate(297.509766 0)"/>
     <use xlink:href="#DejaVuSerif-Italic-63" transform="translate(357.128906 0)"/>
     <use xlink:href="#DejaVuSerif-Italic-6b" transform="translate(413.134766 0)"/>
     <use xlink:href="#DejaVuSerif-Italic-20" transform="translate(473.730469 0)"/>
     <use xlink:href="#DejaVuSerif-Italic-67" transform="translate(505.517578 0)"/>
     <use xlink:href="#DejaVuSerif-Italic-6c" transform="translate(569.53125 0)"/>
     <use xlink:href="#DejaVuSerif-Italic-6f" transform="translate(601.513672 0)"/>
     <use xlink:href="#DejaVuSerif-Italic-62" transform="translate(661.71875 0)"/>
     <use xlink:href="#DejaVuSerif-Italic-65" transform="translate(725.732422 0)"/>
     <use xlink:href="#DejaVuSerif-Italic-29" transform="translate(784.912109 0)"/>
    </g>
   </g>
   <g id="text_6">
    <!-- radiant heat -->
    <g style="fill: #8a8275" transform="translate(283.993945 219.304828) scale(0.075 -0.075)">
     <defs>
      <path id="DejaVuSerif-68" d="M 263 0 
L 263 331 
L 781 331 
L 781 4531 
L 231 4531 
L 231 4863 
L 1356 4863 
L 1356 2731 
Q 1516 3069 1770 3241 
Q 2025 3413 2363 3413 
Q 2913 3413 3172 3097 
Q 3431 2781 3431 2113 
L 3431 331 
L 3944 331 
L 3944 0 
L 2356 0 
L 2356 331 
L 2853 331 
L 2853 1931 
Q 2853 2541 2704 2764 
Q 2556 2988 2175 2988 
Q 1775 2988 1565 2697 
Q 1356 2406 1356 1850 
L 1356 331 
L 1856 331 
L 1856 0 
L 263 0 
z
" transform="scale(0.015625)"/>
     </defs>
     <use xlink:href="#DejaVuSerif-72"/>
     <use xlink:href="#DejaVuSerif-61" transform="translate(47.802734 0)"/>
     <use xlink:href="#DejaVuSerif-64" transform="translate(107.421875 0)"/>
     <use xlink:href="#DejaVuSerif-69" transform="translate(171.435547 0)"/>
     <use xlink:href="#DejaVuSerif-61" transform="translate(203.417969 0)"/>
     <use xlink:href="#DejaVuSerif-6e" transform="translate(263.037109 0)"/>
     <use xlink:href="#DejaVuSerif-74" transform="translate(327.441406 0)"/>
     <use xlink:href="#DejaVuSerif-20" transform="translate(367.626953 0)"/>
     <use xlink:href="#DejaVuSerif-68" transform="translate(399.414062 0)"/>
     <use xlink:href="#DejaVuSerif-65" transform="translate(463.818359 0)"/>
     <use xlink:href="#DejaVuSerif-61" transform="translate(522.998047 0)"/>
     <use xlink:href="#DejaVuSerif-74" transform="translate(582.617188 0)"/>
    </g>
   </g>
   <g id="text_7">
    <!-- What WBGT measures: three thermometers at once -->
    <g style="fill: #1b1b1b" transform="translate(64.87125 29.201094) scale(0.11 -0.11)">
     <defs>
      <path id="DejaVuSerif-57" d="M 4878 0 
L 4366 0 
L 3297 3794 
L 2228 0 
L 1716 0 
L 494 4331 
L 31 4331 
L 31 4666 
L 1734 4666 
L 1734 4331 
L 1153 4331 
L 2125 884 
L 3188 4666 
L 3694 4666 
L 4775 844 
L 5753 4331 
L 5216 4331 
L 5216 4666 
L 6559 4666 
L 6559 4331 
L 6100 4331 
L 4878 0 
z
" transform="scale(0.015625)"/>
      <path id="DejaVuSerif-42" d="M 1581 331 
L 2516 331 
Q 3078 331 3337 575 
Q 3597 819 3597 1350 
Q 3597 1878 3339 2120 
Q 3081 2363 2516 2363 
L 1581 2363 
L 1581 331 
z
M 1581 2694 
L 2375 2694 
Q 2888 2694 3123 2891 
Q 3359 3088 3359 3513 
Q 3359 3941 3123 4136 
Q 2888 4331 2375 4331 
L 1581 4331 
L 1581 2694 
z
M 353 0 
L 353 331 
L 947 331 
L 947 4331 
L 353 4331 
L 353 4666 
L 2656 4666 
Q 3363 4666 3720 4377 
Q 4078 4088 4078 3513 
Q 4078 3097 3829 2850 
Q 3581 2603 3103 2547 
Q 3697 2472 4005 2167 
Q 4313 1863 4313 1350 
Q 4313 656 3875 328 
Q 3438 0 2509 0 
L 353 0 
z
" transform="scale(0.015625)"/>
      <path id="DejaVuSerif-47" d="M 4097 3272 
Q 3988 3856 3641 4136 
Q 3294 4416 2675 4416 
Q 1869 4416 1472 3897 
Q 1075 3378 1075 2328 
Q 1075 1300 1484 772 
Q 1894 244 2688 244 
Q 3041 244 3362 331 
Q 3684 419 3975 594 
L 3975 1797 
L 3097 1797 
L 3097 2131 
L 4609 2131 
L 4609 391 
Q 4194 150 3714 29 
Q 3234 -91 2688 -91 
Q 1631 -91 995 570 
Q 359 1231 359 2328 
Q 359 3434 996 4092 
Q 1634 4750 2713 4750 
Q 3113 4750 3539 4658 
Q 3966 4566 4447 4378 
L 4447 3272 
L 4097 3272 
z
" transform="scale(0.015625)"/>
      <path id="DejaVuSerif-54" d="M 1222 0 
L 1222 331 
L 1819 331 
L 1819 4294 
L 447 4294 
L 447 3566 
L 63 3566 
L 63 4666 
L 4206 4666 
L 4206 3566 
L 3822 3566 
L 3822 4294 
L 2450 4294 
L 2450 331 
L 3047 331 
L 3047 0 
L 1222 0 
z
" transform="scale(0.015625)"/>
      <path id="DejaVuSerif-6d" d="M 3316 2675 
Q 3481 3041 3739 3227 
Q 3997 3413 4341 3413 
Q 4863 3413 5119 3089 
Q 5375 2766 5375 2113 
L 5375 331 
L 5894 331 
L 5894 0 
L 4300 0 
L 4300 331 
L 4800 331 
L 4800 2047 
Q 4800 2556 4650 2772 
Q 4500 2988 4153 2988 
Q 3769 2988 3567 2697 
Q 3366 2406 3366 1850 
L 3366 331 
L 3866 331 
L 3866 0 
L 2291 0 
L 2291 331 
L 2791 331 
L 2791 2069 
Q 2791 2566 2641 2777 
Q 2491 2988 2144 2988 
Q 1759 2988 1557 2697 
Q 1356 2406 1356 1850 
L 1356 331 
L 1856 331 
L 1856 0 
L 263 0 
L 263 331 
L 781 331 
L 781 2994 
L 231 2994 
L 231 3322 
L 1356 3322 
L 1356 2731 
Q 1516 3063 1762 3238 
Q 2009 3413 2322 3413 
Q 2709 3413 2968 3220 
Q 3228 3028 3316 2675 
z
" transform="scale(0.015625)"/>
      <path id="DejaVuSerif-73" d="M 359 184 
L 359 959 
L 691 959 
Q 703 588 923 403 
Q 1144 219 1575 219 
Q 1963 219 2166 364 
Q 2369 509 2369 788 
Q 2369 1006 2220 1140 
Q 2072 1275 1594 1428 
L 1178 1569 
Q 750 1706 558 1912 
Q 366 2119 366 2438 
Q 366 2894 700 3153 
Q 1034 3413 1625 3413 
Q 1888 3413 2178 3344 
Q 2469 3275 2778 3144 
L 2778 2419 
L 2447 2419 
Q 2434 2741 2221 2922 
Q 2009 3103 1644 3103 
Q 1281 3103 1095 2975 
Q 909 2847 909 2591 
Q 909 2381 1050 2254 
Q 1191 2128 1613 1997 
L 2069 1856 
Q 2541 1709 2748 1489 
Q 2956 1269 2956 922 
Q 2956 450 2595 179 
Q 2234 -91 1600 -91 
Q 1278 -91 972 -22 
Q 666 47 359 184 
z
" transform="scale(0.015625)"/>
      <path id="DejaVuSerif-75" d="M 2266 3322 
L 3341 3322 
L 3341 331 
L 3884 331 
L 3884 0 
L 2766 0 
L 2766 588 
Q 2606 256 2353 82 
Q 2100 -91 1766 -91 
Q 1213 -91 952 223 
Q 691 538 691 1209 
L 691 2988 
L 172 2988 
L 172 3322 
L 1269 3322 
L 1269 1388 
Q 1269 781 1417 556 
Q 1566 331 1947 331 
Q 2347 331 2556 625 
Q 2766 919 2766 1478 
L 2766 2988 
L 2266 2988 
L 2266 3322 
z
" transform="scale(0.015625)"/>
      <path id="DejaVuSerif-3a" d="M 666 325 
Q 666 500 786 622 
Q 906 744 1081 744 
Q 1256 744 1376 622 
Q 1497 500 1497 325 
Q 1497 150 1378 29 
Q 1259 -91 1081 -91 
Q 903 -91 784 29 
Q 666 150 666 325 
z
M 666 2363 
Q 666 2538 786 2658 
Q 906 2778 1081 2778 
Q 1259 2778 1378 2659 
Q 1497 2541 1497 2363 
Q 1497 2184 1378 2065 
Q 1259 1947 1081 1947 
Q 906 1947 786 2067 
Q 666 2188 666 2363 
z
" transform="scale(0.015625)"/>
     </defs>
     <use xlink:href="#DejaVuSerif-57"/>
     <use xlink:href="#DejaVuSerif-68" transform="translate(102.783203 0)"/>
     <use xlink:href="#DejaVuSerif-61" transform="translate(167.1875 0)"/>
     <use xlink:href="#DejaVuSerif-74" transform="translate(226.806641 0)"/>
     <use xlink:href="#DejaVuSerif-20" transform="translate(266.992188 0)"/>
     <use xlink:href="#DejaVuSerif-57" transform="translate(298.779297 0)"/>
     <use xlink:href="#DejaVuSerif-42" transform="translate(401.5625 0)"/>
     <use xlink:href="#DejaVuSerif-47" transform="translate(476.923828 0)"/>
     <use xlink:href="#DejaVuSerif-54" transform="translate(556.806641 0)"/>
     <use xlink:href="#DejaVuSerif-20" transform="translate(623.505859 0)"/>
     <use xlink:href="#DejaVuSerif-6d" transform="translate(655.292969 0)"/>
     <use xlink:href="#DejaVuSerif-65" transform="translate(750.117188 0)"/>
     <use xlink:href="#DejaVuSerif-61" transform="translate(809.296875 0)"/>
     <use xlink:href="#DejaVuSerif-73" transform="translate(868.916016 0)"/>
     <use xlink:href="#DejaVuSerif-75" transform="translate(920.234375 0)"/>
     <use xlink:href="#DejaVuSerif-72" transform="translate(984.638672 0)"/>
     <use xlink:href="#DejaVuSerif-65" transform="translate(1032.441406 0)"/>
     <use xlink:href="#DejaVuSerif-73" transform="translate(1091.621094 0)"/>
     <use xlink:href="#DejaVuSerif-3a" transform="translate(1142.939453 0)"/>
     <use xlink:href="#DejaVuSerif-20" transform="translate(1176.630859 0)"/>
     <use xlink:href="#DejaVuSerif-74" transform="translate(1208.417969 0)"/>
     <use xlink:href="#DejaVuSerif-68" transform="translate(1248.603516 0)"/>
     <use xlink:href="#DejaVuSerif-72" transform="translate(1313.007812 0)"/>
     <use xlink:href="#DejaVuSerif-65" transform="translate(1360.810547 0)"/>
     <use xlink:href="#DejaVuSerif-65" transform="translate(1419.990234 0)"/>
     <use xlink:href="#DejaVuSerif-20" transform="translate(1479.169922 0)"/>
     <use xlink:href="#DejaVuSerif-74" transform="translate(1510.957031 0)"/>
     <use xlink:href="#DejaVuSerif-68" transform="translate(1551.142578 0)"/>
     <use xlink:href="#DejaVuSerif-65" transform="translate(1615.546875 0)"/>
     <use xlink:href="#DejaVuSerif-72" transform="translate(1674.726562 0)"/>
     <use xlink:href="#DejaVuSerif-6d" transform="translate(1722.529297 0)"/>
     <use xlink:href="#DejaVuSerif-6f" transform="translate(1817.353516 0)"/>
     <use xlink:href="#DejaVuSerif-6d" transform="translate(1877.558594 0)"/>
     <use xlink:href="#DejaVuSerif-65" transform="translate(1972.382812 0)"/>
     <use xlink:href="#DejaVuSerif-74" transform="translate(2031.5625 0)"/>
     <use xlink:href="#DejaVuSerif-65" transform="translate(2071.748047 0)"/>
     <use xlink:href="#DejaVuSerif-72" transform="translate(2130.927734 0)"/>
     <use xlink:href="#DejaVuSerif-73" transform="translate(2178.730469 0)"/>
     <use xlink:href="#DejaVuSerif-20" transform="translate(2230.048828 0)"/>
     <use xlink:href="#DejaVuSerif-61" transform="translate(2261.835938 0)"/>
     <use xlink:href="#DejaVuSerif-74" transform="translate(2321.455078 0)"/>
     <use xlink:href="#DejaVuSerif-20" transform="translate(2361.640625 0)"/>
     <use xlink:href="#DejaVuSerif-6f" transform="translate(2393.427734 0)"/>
     <use xlink:href="#DejaVuSerif-6e" transform="translate(2453.632812 0)"/>
     <use xlink:href="#DejaVuSerif-63" transform="translate(2518.037109 0)"/>
     <use xlink:href="#DejaVuSerif-65" transform="translate(2574.042969 0)"/>
    </g>
   </g>
   <g id="text_8">
    <!-- WBGT_outdoor = 0.7· -->
    <g style="fill: #3d3a33" transform="translate(58.3425 238.912031) scale(0.09 -0.09)">
     <defs>
      <path id="DejaVuSerif-Italic-57" d="M 4425 0 
L 3913 0 
L 3581 3794 
L 1775 0 
L 1263 0 
L 881 4331 
L 419 4331 
L 484 4666 
L 2188 4666 
L 2122 4331 
L 1541 4331 
L 1844 884 
L 3641 4666 
L 4147 4666 
L 4484 844 
L 6141 4331 
L 5603 4331 
L 5669 4666 
L 7013 4666 
L 6947 4331 
L 6488 4331 
L 4425 0 
z
" transform="scale(0.015625)"/>
      <path id="DejaVuSerif-Italic-42" d="M 1194 331 
L 2128 331 
Q 2691 331 2998 575 
Q 3306 819 3409 1350 
Q 3513 1878 3302 2120 
Q 3091 2363 2525 2363 
L 1591 2363 
L 1194 331 
z
M 1653 2694 
L 2447 2694 
Q 2959 2694 3234 2891 
Q 3509 3088 3591 3513 
Q 3675 3941 3476 4136 
Q 3278 4331 2766 4331 
L 1972 4331 
L 1653 2694 
z
M -97 0 
L -34 331 
L 559 331 
L 1338 4331 
L 744 4331 
L 809 4666 
L 3113 4666 
Q 3819 4666 4120 4377 
Q 4422 4088 4309 3513 
Q 4231 3097 3934 2850 
Q 3638 2603 3147 2547 
Q 3728 2472 3976 2167 
Q 4225 1863 4125 1350 
Q 3991 656 3489 328 
Q 2988 0 2059 0 
L -97 0 
z
" transform="scale(0.015625)"/>
      <path id="DejaVuSerif-Italic-47" d="M 4281 3272 
Q 4284 3856 3992 4136 
Q 3700 4416 3081 4416 
Q 2275 4416 1776 3897 
Q 1278 3378 1075 2328 
Q 875 1300 1181 772 
Q 1488 244 2281 244 
Q 2634 244 2973 331 
Q 3313 419 3638 594 
L 3872 1797 
L 2994 1797 
L 3059 2131 
L 4572 2131 
L 4231 391 
Q 3769 150 3266 29 
Q 2763 -91 2216 -91 
Q 1159 -91 653 570 
Q 147 1231 359 2328 
Q 575 3434 1340 4092 
Q 2106 4750 3184 4750 
Q 3584 4750 3992 4658 
Q 4400 4566 4844 4378 
L 4631 3272 
L 4281 3272 
z
" transform="scale(0.015625)"/>
      <path id="DejaVuSerif-Italic-5f" d="M 3200 -1259 
L 3200 -1509 
L 0 -1509 
L 0 -1259 
L 3200 -1259 
z
" transform="scale(0.015625)"/>
      <path id="DejaVuSerif-Italic-3d" d="M 678 2894 
L 4684 2894 
L 4684 2394 
L 678 2394 
L 678 2894 
z
M 678 1619 
L 4684 1619 
L 4684 1119 
L 678 1119 
L 678 1619 
z
" transform="scale(0.015625)"/>
      <path id="DejaVuSerif-Italic-30" d="M 1011 744 
Q 1147 219 1625 219 
Q 2103 219 2442 744 
Q 2781 1269 2988 2328 
Q 3194 3391 3058 3916 
Q 2922 4441 2444 4441 
Q 1966 4441 1627 3916 
Q 1288 3391 1081 2328 
Q 875 1269 1011 744 
z
M 1563 -91 
Q 803 -91 501 546 
Q 200 1184 422 2328 
Q 644 3475 1195 4112 
Q 1747 4750 2506 4750 
Q 3269 4750 3569 4112 
Q 3869 3475 3647 2328 
Q 3425 1184 2875 546 
Q 2325 -91 1563 -91 
z
" transform="scale(0.015625)"/>
      <path id="DejaVuSerif-Italic-2e" d="M 664 29 
Q 569 150 603 325 
Q 638 500 780 622 
Q 922 744 1100 744 
Q 1272 744 1370 622 
Q 1469 500 1434 325 
Q 1400 153 1254 31 
Q 1109 -91 938 -91 
Q 759 -91 664 29 
z
" transform="scale(0.015625)"/>
      <path id="DejaVuSerif-Italic-37" d="M 4000 4347 
L 1331 0 
L 866 0 
L 3413 4153 
L 1256 4153 
L 1144 3578 
L 778 3578 
L 991 4666 
L 4063 4666 
L 4000 4347 
z
" transform="scale(0.015625)"/>
      <path id="DejaVuSerif-Italic-b7" d="M 594 2222 
Q 628 2397 772 2517 
Q 916 2638 1094 2638 
Q 1266 2638 1364 2516 
Q 1463 2394 1428 2222 
Q 1394 2047 1248 1926 
Q 1103 1806 931 1806 
Q 753 1806 656 1925 
Q 559 2044 594 2222 
z
" transform="scale(0.015625)"/>
     </defs>
     <use xlink:href="#DejaVuSerif-Italic-57"/>
     <use xlink:href="#DejaVuSerif-Italic-42" transform="translate(102.783203 0)"/>
     <use xlink:href="#DejaVuSerif-Italic-47" transform="translate(178.144531 0)"/>
     <use xlink:href="#DejaVuSerif-Italic-54" transform="translate(258.027344 0)"/>
     <use xlink:href="#DejaVuSerif-Italic-5f" transform="translate(324.726562 0)"/>
     <use xlink:href="#DejaVuSerif-Italic-6f" transform="translate(374.726562 0)"/>
     <use xlink:href="#DejaVuSerif-Italic-75" transform="translate(434.931641 0)"/>
     <use xlink:href="#DejaVuSerif-Italic-74" transform="translate(499.335938 0)"/>
     <use xlink:href="#DejaVuSerif-Italic-64" transform="translate(539.521484 0)"/>
     <use xlink:href="#DejaVuSerif-Italic-6f" transform="translate(603.535156 0)"/>
     <use xlink:href="#DejaVuSerif-Italic-6f" transform="translate(663.740234 0)"/>
     <use xlink:href="#DejaVuSerif-Italic-72" transform="translate(723.945312 0)"/>
     <use xlink:href="#DejaVuSerif-Italic-20" transform="translate(771.748047 0)"/>
     <use xlink:href="#DejaVuSerif-Italic-3d" transform="translate(803.535156 0)"/>
     <use xlink:href="#DejaVuSerif-Italic-20" transform="translate(887.324219 0)"/>
     <use xlink:href="#DejaVuSerif-Italic-30" transform="translate(919.111328 0)"/>
     <use xlink:href="#DejaVuSerif-Italic-2e" transform="translate(982.734375 0)"/>
     <use xlink:href="#DejaVuSerif-Italic-37" transform="translate(1014.521484 0)"/>
     <use xlink:href="#DejaVuSerif-Italic-b7" transform="translate(1078.144531 0)"/>
    </g>
   </g>
   <g id="text_9">
    <!-- Tnwb -->
    <g style="fill: #3d3a33" transform="translate(143.78625 239.037187) scale(0.09 -0.09)">
     <use xlink:href="#DejaVuSerif-Italic-54"/>
     <use xlink:href="#DejaVuSerif-Italic-6e" transform="translate(66.699219 0)"/>
     <use xlink:href="#DejaVuSerif-Italic-77" transform="translate(131.103516 0)"/>
     <use xlink:href="#DejaVuSerif-Italic-62" transform="translate(216.699219 0)"/>
    </g>
   </g>
   <g id="text_10">
    <!--  + 0.2· -->
    <g style="fill: #3d3a33" transform="translate(165.7575 239.037187) scale(0.09 -0.09)">
     <defs>
      <path id="DejaVuSerif-Italic-2b" d="M 2931 4013 
L 2931 2259 
L 4684 2259 
L 4684 1753 
L 2931 1753 
L 2931 0 
L 2431 0 
L 2431 1753 
L 678 1753 
L 678 2259 
L 2431 2259 
L 2431 4013 
L 2931 4013 
z
" transform="scale(0.015625)"/>
      <path id="DejaVuSerif-Italic-32" d="M 1050 3553 
L 700 3553 
L 863 4384 
Q 1231 4563 1589 4656 
Q 1947 4750 2272 4750 
Q 3000 4750 3353 4397 
Q 3706 4044 3588 3438 
Q 3456 2753 2313 1800 
Q 2225 1728 2178 1691 
L 772 513 
L 2719 513 
L 2831 1088 
L 3197 1088 
L 2984 0 
L -25 0 
L 41 341 
L 1731 1753 
Q 2291 2222 2567 2614 
Q 2844 3006 2928 3438 
Q 3019 3909 2825 4175 
Q 2631 4441 2200 4441 
Q 1753 4441 1467 4219 
Q 1181 3997 1050 3553 
z
" transform="scale(0.015625)"/>
     </defs>
     <use xlink:href="#DejaVuSerif-Italic-20"/>
     <use xlink:href="#DejaVuSerif-Italic-2b" transform="translate(31.787109 0)"/>
     <use xlink:href="#DejaVuSerif-Italic-20" transform="translate(115.576172 0)"/>
     <use xlink:href="#DejaVuSerif-Italic-30" transform="translate(147.363281 0)"/>
     <use xlink:href="#DejaVuSerif-Italic-2e" transform="translate(210.986328 0)"/>
     <use xlink:href="#DejaVuSerif-Italic-32" transform="translate(242.773438 0)"/>
     <use xlink:href="#DejaVuSerif-Italic-b7" transform="translate(306.396484 0)"/>
    </g>
   </g>
   <g id="text_11">
    <!-- Tg -->
    <g style="fill: #702424" transform="translate(199.935 238.909219) scale(0.09 -0.09)">
     <use xlink:href="#DejaVuSerif-Italic-54"/>
     <use xlink:href="#DejaVuSerif-Italic-67" transform="translate(66.699219 0)"/>
    </g>
   </g>
   <g id="text_12">
    <!--  + 0.1· -->
    <g style="fill: #3d3a33" transform="translate(219.465 239.037187) scale(0.09 -0.09)">
     <defs>
      <path id="DejaVuSerif-Italic-31" d="M 447 0 
L 513 331 
L 1325 331 
L 2078 4213 
L 1019 3603 
L 1100 4013 
L 2381 4750 
L 2813 4750 
L 1953 331 
L 2766 331 
L 2700 0 
L 447 0 
z
" transform="scale(0.015625)"/>
     </defs>
     <use xlink:href="#DejaVuSerif-Italic-20"/>
     <use xlink:href="#DejaVuSerif-Italic-2b" transform="translate(31.787109 0)"/>
     <use xlink:href="#DejaVuSerif-Italic-20" transform="translate(115.576172 0)"/>
     <use xlink:href="#DejaVuSerif-Italic-30" transform="translate(147.363281 0)"/>
     <use xlink:href="#DejaVuSerif-Italic-2e" transform="translate(210.986328 0)"/>
     <use xlink:href="#DejaVuSerif-Italic-31" transform="translate(242.773438 0)"/>
     <use xlink:href="#DejaVuSerif-Italic-b7" transform="translate(306.396484 0)"/>
    </g>
   </g>
   <g id="text_13">
    <!-- Td -->
    <g style="fill: #3f5160" transform="translate(243.8775 239.037187) scale(0.09 -0.09)">
     <use xlink:href="#DejaVuSerif-Italic-54"/>
     <use xlink:href="#DejaVuSerif-Italic-64" transform="translate(66.699219 0)"/>
    </g>
   </g>
   <g id="text_14">
    <!-- ~ -->
    <g style="fill: #3d3a33" transform="translate(205.510156 198.788375) scale(0.1 -0.1)">
     <defs>
      <path id="DejaVuSerif-Bold-7e" d="M 4684 2597 
L 4684 1953 
Q 4394 1684 4101 1556 
Q 3809 1428 3494 1428 
Q 3197 1428 2722 1609 
Q 2669 1628 2644 1638 
Q 2622 1647 2581 1663 
Q 2044 1869 1741 1869 
Q 1500 1869 1239 1756 
Q 978 1644 678 1416 
L 678 2059 
Q 978 2331 1267 2457 
Q 1556 2584 1869 2584 
Q 2166 2584 2638 2406 
Q 2694 2384 2719 2375 
L 2766 2356 
Q 3306 2144 3622 2144 
Q 3863 2144 4123 2256 
Q 4384 2369 4684 2597 
z
" transform="scale(0.015625)"/>
     </defs>
     <use xlink:href="#DejaVuSerif-Bold-7e"/>
    </g>
   </g>
  </g>
 </g>
 <defs>
  <clipPath id="pb1bc261b1c">
   <rect x="14.4" y="14.4" width="390.6" height="241.68375"/>
  </clipPath>
 </defs>
</svg>
